%TF.GenerationSoftware,KiCad,Pcbnew,(6.0.7)*%
%TF.CreationDate,2023-01-08T18:55:16-06:00*%
%TF.ProjectId,Master Switch Enclosure Board,4d617374-6572-4205-9377-697463682045,rev?*%
%TF.SameCoordinates,Original*%
%TF.FileFunction,Copper,L2,Bot*%
%TF.FilePolarity,Positive*%
%FSLAX46Y46*%
G04 Gerber Fmt 4.6, Leading zero omitted, Abs format (unit mm)*
G04 Created by KiCad (PCBNEW (6.0.7)) date 2023-01-08 18:55:16*
%MOMM*%
%LPD*%
G01*
G04 APERTURE LIST*
G04 Aperture macros list*
%AMRoundRect*
0 Rectangle with rounded corners*
0 $1 Rounding radius*
0 $2 $3 $4 $5 $6 $7 $8 $9 X,Y pos of 4 corners*
0 Add a 4 corners polygon primitive as box body*
4,1,4,$2,$3,$4,$5,$6,$7,$8,$9,$2,$3,0*
0 Add four circle primitives for the rounded corners*
1,1,$1+$1,$2,$3*
1,1,$1+$1,$4,$5*
1,1,$1+$1,$6,$7*
1,1,$1+$1,$8,$9*
0 Add four rect primitives between the rounded corners*
20,1,$1+$1,$2,$3,$4,$5,0*
20,1,$1+$1,$4,$5,$6,$7,0*
20,1,$1+$1,$6,$7,$8,$9,0*
20,1,$1+$1,$8,$9,$2,$3,0*%
G04 Aperture macros list end*
%TA.AperFunction,ComponentPad*%
%ADD10C,6.400000*%
%TD*%
%TA.AperFunction,ComponentPad*%
%ADD11RoundRect,0.250001X-0.499999X0.499999X-0.499999X-0.499999X0.499999X-0.499999X0.499999X0.499999X0*%
%TD*%
%TA.AperFunction,ComponentPad*%
%ADD12C,1.500000*%
%TD*%
%TA.AperFunction,ComponentPad*%
%ADD13RoundRect,0.250001X-0.499999X-0.499999X0.499999X-0.499999X0.499999X0.499999X-0.499999X0.499999X0*%
%TD*%
%TA.AperFunction,ComponentPad*%
%ADD14R,2.600000X2.600000*%
%TD*%
%TA.AperFunction,ComponentPad*%
%ADD15C,2.600000*%
%TD*%
%TA.AperFunction,ViaPad*%
%ADD16C,0.800000*%
%TD*%
%TA.AperFunction,ViaPad*%
%ADD17C,2.000000*%
%TD*%
%TA.AperFunction,Conductor*%
%ADD18C,0.250000*%
%TD*%
%TA.AperFunction,Conductor*%
%ADD19C,4.000000*%
%TD*%
G04 APERTURE END LIST*
D10*
%TO.P,M5,1*%
%TO.N,GND*%
X55000000Y-162000000D03*
%TD*%
D11*
%TO.P,J6,1,Pin_1*%
%TO.N,EM_12V*%
X85479000Y-62400000D03*
D12*
%TO.P,J6,2,Pin_2*%
%TO.N,GND*%
X85479000Y-65400000D03*
%TO.P,J6,3,Pin_3*%
%TO.N,CANH_EM*%
X85479000Y-68400000D03*
%TO.P,J6,4,Pin_4*%
%TO.N,CANL_EM*%
X85479000Y-71400000D03*
%TO.P,J6,5,Pin_5*%
%TO.N,BSPDTest_in*%
X85479000Y-74400000D03*
%TO.P,J6,6,Pin_6*%
%TO.N,BSPDTest_out*%
X85479000Y-77400000D03*
%TO.P,J6,7,Pin_7*%
%TO.N,VCUWake_out*%
X85479000Y-80400000D03*
%TO.P,J6,8,Pin_8*%
%TO.N,SEPIC_out*%
X85479000Y-83400000D03*
%TO.P,J6,9,Pin_9*%
X85479000Y-86400000D03*
%TO.P,J6,10,Pin_10*%
%TO.N,RST_out*%
X85479000Y-89400000D03*
%TO.P,J6,11,Pin_11*%
%TO.N,CHRG_in*%
X82479000Y-62400000D03*
%TO.P,J6,12,Pin_12*%
%TO.N,SHDN2_out*%
X82479000Y-65400000D03*
%TO.P,J6,13,Pin_13*%
%TO.N,SHDN2_in*%
X82479000Y-68400000D03*
%TO.P,J6,14,Pin_14*%
%TO.N,CANH_VCU1*%
X82479000Y-71400000D03*
%TO.P,J6,15,Pin_15*%
%TO.N,CANL_VCU1*%
X82479000Y-74400000D03*
%TO.P,J6,16,Pin_16*%
%TO.N,GND*%
X82479000Y-77400000D03*
%TO.P,J6,17,Pin_17*%
X82479000Y-80400000D03*
%TO.P,J6,18,Pin_18*%
X82479000Y-83400000D03*
%TO.P,J6,19,Pin_19*%
X82479000Y-86400000D03*
%TO.P,J6,20,Pin_20*%
X82479000Y-89400000D03*
%TD*%
D11*
%TO.P,J3,1,Pin_1*%
%TO.N,GND*%
X78271000Y-100788000D03*
D12*
%TO.P,J3,2,Pin_2*%
%TO.N,LV_mastersw_out*%
X78271000Y-103788000D03*
%TO.P,J3,3,Pin_3*%
X78271000Y-106788000D03*
%TO.P,J3,4,Pin_4*%
X78271000Y-109788000D03*
%TO.P,J3,5,Pin_5*%
X78271000Y-112788000D03*
%TO.P,J3,6,Pin_6*%
X78271000Y-115788000D03*
%TO.P,J3,7,Pin_7*%
%TO.N,TSALSafe_pt*%
X78271000Y-118788000D03*
%TO.P,J3,8,Pin_8*%
%TO.N,TSALEnergized_pt*%
X78271000Y-121788000D03*
%TO.P,J3,9,Pin_9*%
%TO.N,CANH_VCU1*%
X78271000Y-124788000D03*
%TO.P,J3,10,Pin_10*%
%TO.N,CANL_VCU1*%
X78271000Y-127788000D03*
%TO.P,J3,11,Pin_11*%
%TO.N,CANH_VCU2*%
X78271000Y-130788000D03*
%TO.P,J3,12,Pin_12*%
%TO.N,CANL_VCU2*%
X78271000Y-133788000D03*
%TO.P,J3,13,Pin_13*%
%TO.N,CANH_VCU3*%
X75271000Y-100788000D03*
%TO.P,J3,14,Pin_14*%
%TO.N,CANL_VCU3*%
X75271000Y-103788000D03*
%TO.P,J3,15,Pin_15*%
%TO.N,CANH_VCU4*%
X75271000Y-106788000D03*
%TO.P,J3,16,Pin_16*%
%TO.N,CANL_VCU4*%
X75271000Y-109788000D03*
%TO.P,J3,17,Pin_17*%
%TO.N,CANH_ret_VCU2*%
X75271000Y-112788000D03*
%TO.P,J3,18,Pin_18*%
%TO.N,CANL_ret_VCU2*%
X75271000Y-115788000D03*
%TO.P,J3,19,Pin_19*%
%TO.N,CANH_ret_VCU3*%
X75271000Y-118788000D03*
%TO.P,J3,20,Pin_20*%
%TO.N,CANL_ret_VCU3*%
X75271000Y-121788000D03*
%TO.P,J3,21,Pin_21*%
%TO.N,CANH_Tel*%
X75271000Y-124788000D03*
%TO.P,J3,22,Pin_22*%
%TO.N,CANL_Tel*%
X75271000Y-127788000D03*
%TO.P,J3,23,Pin_23*%
%TO.N,CANH_ret_Tel*%
X75271000Y-130788000D03*
%TO.P,J3,24,Pin_24*%
%TO.N,CANL_ret_Tel*%
X75271000Y-133788000D03*
%TD*%
D13*
%TO.P,J2,1,Pin_1*%
%TO.N,GND*%
X120671000Y-135465000D03*
D12*
%TO.P,J2,2,Pin_2*%
%TO.N,CANL_ret_VCU2*%
X123671000Y-135465000D03*
%TO.P,J2,3,Pin_3*%
%TO.N,CANH_ret_VCU2*%
X126671000Y-135465000D03*
%TO.P,J2,4,Pin_4*%
%TO.N,CANL_VCU3*%
X129671000Y-135465000D03*
%TO.P,J2,5,Pin_5*%
%TO.N,CANH_VCU3*%
X132671000Y-135465000D03*
%TO.P,J2,6,Pin_6*%
%TO.N,BSPDTest_out*%
X135671000Y-135465000D03*
%TO.P,J2,7,Pin_7*%
%TO.N,BSPDTest_in*%
X138671000Y-135465000D03*
%TO.P,J2,8,Pin_8*%
%TO.N,CANL_EM*%
X141671000Y-135465000D03*
%TO.P,J2,9,Pin_9*%
%TO.N,CANH_EM*%
X144671000Y-135465000D03*
%TO.P,J2,10,Pin_10*%
%TO.N,CHRG_in*%
X147671000Y-135465000D03*
%TO.P,J2,11,Pin_11*%
%TO.N,CANL_ret_VCU3*%
X120671000Y-138465000D03*
%TO.P,J2,12,Pin_12*%
%TO.N,CANH_ret_VCU3*%
X123671000Y-138465000D03*
%TO.P,J2,13,Pin_13*%
%TO.N,CANL_VCU4*%
X126671000Y-138465000D03*
%TO.P,J2,14,Pin_14*%
%TO.N,CANH_VCU4*%
X129671000Y-138465000D03*
%TO.P,J2,15,Pin_15*%
%TO.N,RST_out*%
X132671000Y-138465000D03*
%TO.P,J2,16,Pin_16*%
%TO.N,VCUWake_out*%
X135671000Y-138465000D03*
%TO.P,J2,17,Pin_17*%
%TO.N,CANL_VCU1*%
X138671000Y-138465000D03*
%TO.P,J2,18,Pin_18*%
%TO.N,CANH_VCU1*%
X141671000Y-138465000D03*
%TO.P,J2,19,Pin_19*%
%TO.N,SHDN2_in*%
X144671000Y-138465000D03*
%TO.P,J2,20,Pin_20*%
%TO.N,SHDN2_out*%
X147671000Y-138465000D03*
%TD*%
D13*
%TO.P,J7,1,Pin_1*%
%TO.N,HV+*%
X140254715Y-118682034D03*
D12*
%TO.P,J7,2,Pin_2*%
%TO.N,HV-*%
X143254715Y-118682034D03*
%TO.P,J7,3,Pin_3*%
%TO.N,Net-(J7-Pad3)*%
X140254715Y-121682034D03*
%TO.P,J7,4,Pin_4*%
%TO.N,Net-(J7-Pad4)*%
X143254715Y-121682034D03*
%TD*%
D10*
%TO.P,M1,1*%
%TO.N,GND*%
X55000000Y-55000000D03*
%TD*%
%TO.P,M2,1*%
%TO.N,GND*%
X107000000Y-55000000D03*
%TD*%
D13*
%TO.P,J1,1,Pin_1*%
%TO.N,LV_mastersw_out*%
X85415000Y-135465000D03*
D12*
%TO.P,J1,2,Pin_2*%
X88415000Y-135465000D03*
%TO.P,J1,3,Pin_3*%
X91415000Y-135465000D03*
%TO.P,J1,4,Pin_4*%
X94415000Y-135465000D03*
%TO.P,J1,5,Pin_5*%
X97415000Y-135465000D03*
%TO.P,J1,6,Pin_6*%
%TO.N,LVBAT_in*%
X100415000Y-135465000D03*
%TO.P,J1,7,Pin_7*%
X103415000Y-135465000D03*
%TO.P,J1,8,Pin_8*%
X106415000Y-135465000D03*
%TO.P,J1,9,Pin_9*%
X109415000Y-135465000D03*
%TO.P,J1,10,Pin_10*%
X112415000Y-135465000D03*
%TO.P,J1,11,Pin_11*%
%TO.N,LV_mastersw_out*%
X85415000Y-138465000D03*
%TO.P,J1,12,Pin_12*%
%TO.N,CANL_VCU2*%
X88415000Y-138465000D03*
%TO.P,J1,13,Pin_13*%
%TO.N,CANH_VCU2*%
X91415000Y-138465000D03*
%TO.P,J1,14,Pin_14*%
%TO.N,CANL_ret_Tel*%
X94415000Y-138465000D03*
%TO.P,J1,15,Pin_15*%
%TO.N,CANH_ret_Tel*%
X97415000Y-138465000D03*
%TO.P,J1,16,Pin_16*%
%TO.N,BYP_out*%
X100415000Y-138465000D03*
%TO.P,J1,17,Pin_17*%
%TO.N,CANL_Tel*%
X103415000Y-138465000D03*
%TO.P,J1,18,Pin_18*%
%TO.N,CANH_Tel*%
X106415000Y-138465000D03*
%TO.P,J1,19,Pin_19*%
%TO.N,TSALEnergized_pt*%
X109415000Y-138465000D03*
%TO.P,J1,20,Pin_20*%
%TO.N,TSALSafe_pt*%
X112415000Y-138465000D03*
%TD*%
D10*
%TO.P,M4,1*%
%TO.N,GND*%
X165000000Y-162000000D03*
%TD*%
D14*
%TO.P,J5,1,Pin_1*%
%TO.N,GND*%
X98199000Y-101340000D03*
D15*
%TO.P,J5,2,Pin_2*%
%TO.N,LV_mastersw_out*%
X98199000Y-106420000D03*
%TO.P,J5,3,Pin_3*%
X98199000Y-111500000D03*
%TO.P,J5,4,Pin_4*%
%TO.N,BYP_out*%
X98199000Y-116580000D03*
%TD*%
D10*
%TO.P,M3,1*%
%TO.N,GND*%
X165000000Y-115000000D03*
%TD*%
D14*
%TO.P,J4,1,Pin_1*%
%TO.N,LVBAT_sw*%
X111219000Y-116592000D03*
D15*
%TO.P,J4,2,Pin_2*%
X111219000Y-111512000D03*
%TO.P,J4,3,Pin_3*%
%TO.N,LVBAT_in*%
X111219000Y-106432000D03*
%TO.P,J4,4,Pin_4*%
X111219000Y-101352000D03*
%TD*%
D16*
%TO.N,Net-(IC1-Pad3)*%
X120671000Y-75052000D03*
X126229344Y-89388542D03*
D17*
%TO.N,GND*%
X68264000Y-93280000D03*
X137376000Y-83104000D03*
D16*
X103149000Y-131216000D03*
D17*
X64872000Y-92856000D03*
X68264000Y-89464000D03*
X131016000Y-76744000D03*
X64872000Y-96672000D03*
X135256000Y-80984000D03*
X133136000Y-78864000D03*
D16*
X97213000Y-131640000D03*
X93704000Y-57240000D03*
D17*
X128896000Y-74624000D03*
D16*
%TO.N,Net-(C10-Pad2)*%
X128303000Y-78868000D03*
X127879000Y-88620000D03*
%TO.N,/SEPIC/FB*%
X121688000Y-70384000D03*
X127455000Y-84380000D03*
%TO.N,RST_out*%
X76013000Y-90936000D03*
D17*
%TO.N,BYP_out*%
X98199000Y-120844000D03*
X94383000Y-125932000D03*
X98199000Y-125932000D03*
X94383000Y-116604000D03*
X102015000Y-116604000D03*
X94383000Y-120844000D03*
X102015000Y-120844000D03*
X102015000Y-125932000D03*
D16*
%TO.N,CANL_VCU1*%
X66399000Y-155010500D03*
%TO.N,CANH_VCU1*%
X64279000Y-154162500D03*
D17*
%TO.N,LV_mastersw_out*%
X90567000Y-122540000D03*
X87599000Y-122540000D03*
X89295000Y-125508000D03*
X94259000Y-106416000D03*
D16*
X124063000Y-88620000D03*
D17*
X83359000Y-106820000D03*
X86327000Y-131444000D03*
X115159000Y-95828000D03*
X89295000Y-114060000D03*
X85055000Y-109168000D03*
X84917000Y-104276000D03*
X84631000Y-122540000D03*
X90567000Y-128476000D03*
X102015000Y-111516000D03*
X85903000Y-125508000D03*
X89719000Y-131444000D03*
X94383000Y-111516000D03*
X88447000Y-109168000D03*
X101891000Y-106416000D03*
X82087000Y-114060000D03*
X86751000Y-106820000D03*
X85903000Y-119572000D03*
X84631000Y-128476000D03*
X87599000Y-128476000D03*
X81663000Y-109168000D03*
X85479000Y-114060000D03*
X81525000Y-104276000D03*
D16*
X124487000Y-97524000D03*
D17*
X91733317Y-109216467D03*
X89295000Y-119572000D03*
D16*
%TO.N,BSPDTest_in*%
X76861000Y-72704000D03*
%TO.N,BSPDTest_out*%
X76861000Y-73976000D03*
%TD*%
D18*
%TO.N,Net-(IC1-Pad3)*%
X126229344Y-89388542D02*
X126229344Y-80610344D01*
X126229344Y-80610344D02*
X120671000Y-75052000D01*
%TO.N,GND*%
X97637000Y-131216000D02*
X103149000Y-131216000D01*
X97637000Y-131216000D02*
X97213000Y-131640000D01*
%TO.N,Net-(C10-Pad2)*%
X128476000Y-78868000D02*
X128896000Y-79288000D01*
X128896000Y-79288000D02*
X128896000Y-87603000D01*
X128303000Y-78868000D02*
X128476000Y-78868000D01*
X128896000Y-87603000D02*
X127879000Y-88620000D01*
%TO.N,/SEPIC/FB*%
X127455000Y-76151000D02*
X121688000Y-70384000D01*
X127455000Y-84380000D02*
X127455000Y-76151000D01*
%TO.N,RST_out*%
X85479000Y-89400000D02*
X83943000Y-90936000D01*
X83943000Y-90936000D02*
X76013000Y-90936000D01*
%TO.N,CHRG_in*%
X148400000Y-141616000D02*
X149248000Y-140768000D01*
X149248000Y-140768000D02*
X149248000Y-137042000D01*
X149248000Y-137042000D02*
X147671000Y-135465000D01*
X78695000Y-123210500D02*
X80815000Y-125330500D01*
X71487000Y-73392000D02*
X71487000Y-120666500D01*
X80815000Y-125330500D02*
X80815000Y-140170500D01*
X80815000Y-140170500D02*
X82260500Y-141616000D01*
X82479000Y-62400000D02*
X71487000Y-73392000D01*
X82260500Y-141616000D02*
X148400000Y-141616000D01*
X71487000Y-120666500D02*
X74031000Y-123210500D01*
X74031000Y-123210500D02*
X78695000Y-123210500D01*
%TO.N,CANL_VCU1*%
X77085500Y-126602500D02*
X78271000Y-127788000D01*
X72335000Y-126602500D02*
X77085500Y-126602500D01*
X66399000Y-132538500D02*
X72335000Y-126602500D01*
X66399000Y-155010500D02*
X66399000Y-132538500D01*
%TO.N,CANH_VCU1*%
X76956500Y-126102500D02*
X70291000Y-126102500D01*
X70291000Y-126102500D02*
X64279000Y-132114500D01*
X64279000Y-132114500D02*
X64279000Y-154162500D01*
X78271000Y-124788000D02*
X76956500Y-126102500D01*
D19*
%TO.N,LV_mastersw_out*%
X102015000Y-111516000D02*
X102015000Y-107700000D01*
X104983000Y-104732000D02*
X104983000Y-98372000D01*
X107527000Y-95828000D02*
X113463000Y-95828000D01*
X102015000Y-107700000D02*
X104983000Y-104732000D01*
D18*
X124063000Y-88620000D02*
X124063000Y-97100000D01*
X124063000Y-97100000D02*
X124487000Y-97524000D01*
D19*
X113463000Y-95828000D02*
X115583000Y-95828000D01*
X104983000Y-98372000D02*
X107527000Y-95828000D01*
D18*
%TO.N,BSPDTest_in*%
X83783000Y-72704000D02*
X76861000Y-72704000D01*
X85479000Y-74400000D02*
X83783000Y-72704000D01*
%TO.N,BSPDTest_out*%
X84069000Y-74399009D02*
X82944991Y-73275000D01*
X82944991Y-73275000D02*
X77562000Y-73275000D01*
X77562000Y-73275000D02*
X76861000Y-73976000D01*
X84069000Y-75990000D02*
X84069000Y-74399009D01*
X85479000Y-77400000D02*
X84069000Y-75990000D01*
%TD*%
%TA.AperFunction,Conductor*%
%TO.N,LV_mastersw_out*%
G36*
X85294685Y-102615275D02*
G01*
X85308681Y-102616079D01*
X85508492Y-102638760D01*
X85535787Y-102644989D01*
X85718982Y-102708903D01*
X85744229Y-102721005D01*
X85908796Y-102823801D01*
X85930744Y-102841177D01*
X86073577Y-102982761D01*
X86082951Y-102993149D01*
X86424553Y-103416910D01*
X87475000Y-104720000D01*
X102704813Y-104720000D01*
X102717163Y-104720607D01*
X102893740Y-104737999D01*
X102917957Y-104742815D01*
X103081809Y-104792518D01*
X103104629Y-104801971D01*
X103255631Y-104882683D01*
X103276158Y-104896399D01*
X103408521Y-105005026D01*
X103425974Y-105022479D01*
X103534601Y-105154842D01*
X103548319Y-105175372D01*
X103629029Y-105326371D01*
X103638482Y-105349190D01*
X103688185Y-105513043D01*
X103693002Y-105537263D01*
X103710393Y-105713837D01*
X103711000Y-105726187D01*
X103711000Y-112445021D01*
X103710393Y-112457371D01*
X103693002Y-112633945D01*
X103688185Y-112658165D01*
X103638482Y-112822017D01*
X103629029Y-112844837D01*
X103548319Y-112995836D01*
X103534601Y-113016366D01*
X103425974Y-113148729D01*
X103408521Y-113166182D01*
X103276158Y-113274809D01*
X103255631Y-113288525D01*
X103163417Y-113337815D01*
X103104629Y-113369237D01*
X103081810Y-113378690D01*
X102917957Y-113428393D01*
X102893740Y-113433209D01*
X102717163Y-113450601D01*
X102704813Y-113451208D01*
X93099081Y-113451209D01*
X92095989Y-113451209D01*
X92095989Y-131640001D01*
X92941425Y-132375157D01*
X93536670Y-132892759D01*
X93536680Y-132892767D01*
X93821000Y-133140000D01*
X94197794Y-133140000D01*
X97456041Y-133140001D01*
X97468391Y-133140608D01*
X97644969Y-133158000D01*
X97669186Y-133162816D01*
X97833038Y-133212519D01*
X97855858Y-133221972D01*
X98006859Y-133302684D01*
X98027386Y-133316400D01*
X98159749Y-133425027D01*
X98177202Y-133442480D01*
X98285829Y-133574843D01*
X98299547Y-133595373D01*
X98380257Y-133746371D01*
X98389710Y-133769190D01*
X98439413Y-133933043D01*
X98444230Y-133957263D01*
X98461621Y-134133838D01*
X98462228Y-134146188D01*
X98462228Y-135949814D01*
X98461621Y-135962164D01*
X98444230Y-136138738D01*
X98439413Y-136162958D01*
X98389710Y-136326810D01*
X98380257Y-136349630D01*
X98299547Y-136500629D01*
X98285829Y-136521159D01*
X98177202Y-136653522D01*
X98159749Y-136670975D01*
X98027386Y-136779602D01*
X98006853Y-136793321D01*
X97855855Y-136874030D01*
X97833036Y-136883482D01*
X97669194Y-136933183D01*
X97644969Y-136938002D01*
X97468392Y-136955394D01*
X97456041Y-136956001D01*
X87754092Y-136956000D01*
X86751000Y-136956000D01*
X86751000Y-138917813D01*
X86750393Y-138930163D01*
X86733002Y-139106737D01*
X86728185Y-139130957D01*
X86678482Y-139294809D01*
X86669029Y-139317629D01*
X86588319Y-139468628D01*
X86574601Y-139489158D01*
X86465974Y-139621521D01*
X86448521Y-139638974D01*
X86316158Y-139747601D01*
X86295631Y-139761317D01*
X86229567Y-139796629D01*
X86144629Y-139842029D01*
X86121810Y-139851482D01*
X85957957Y-139901185D01*
X85933740Y-139906001D01*
X85757163Y-139923393D01*
X85744813Y-139924000D01*
X83941187Y-139924000D01*
X83928837Y-139923393D01*
X83752260Y-139906001D01*
X83728043Y-139901185D01*
X83564190Y-139851482D01*
X83541372Y-139842030D01*
X83456428Y-139796627D01*
X83405782Y-139746877D01*
X83390072Y-139677640D01*
X83395460Y-139648251D01*
X83407682Y-139608768D01*
X83412907Y-139559056D01*
X83427711Y-139418204D01*
X83427711Y-139418202D01*
X83428355Y-139412075D01*
X83410430Y-139215112D01*
X83354590Y-139025381D01*
X83262960Y-138850110D01*
X83139032Y-138695975D01*
X82987526Y-138568846D01*
X82987735Y-138568597D01*
X82944907Y-138516152D01*
X82935000Y-138467178D01*
X82935000Y-121464000D01*
X79119000Y-117452000D01*
X77581187Y-117452000D01*
X77568837Y-117451393D01*
X77392260Y-117434001D01*
X77368043Y-117429185D01*
X77204190Y-117379482D01*
X77181371Y-117370029D01*
X77122583Y-117338607D01*
X77030369Y-117289317D01*
X77009842Y-117275601D01*
X76877479Y-117166974D01*
X76860026Y-117149521D01*
X76751399Y-117017158D01*
X76737681Y-116996628D01*
X76656971Y-116845629D01*
X76647518Y-116822809D01*
X76597815Y-116658957D01*
X76592998Y-116634737D01*
X76575607Y-116458163D01*
X76575000Y-116445813D01*
X76575000Y-103618187D01*
X76575607Y-103605837D01*
X76592998Y-103429263D01*
X76597815Y-103405043D01*
X76647518Y-103241190D01*
X76656971Y-103218371D01*
X76737681Y-103067372D01*
X76751399Y-103046842D01*
X76860026Y-102914479D01*
X76877479Y-102897026D01*
X77009842Y-102788399D01*
X77030369Y-102774683D01*
X77122583Y-102725393D01*
X77181371Y-102693971D01*
X77204191Y-102684518D01*
X77368043Y-102634815D01*
X77392260Y-102629999D01*
X77568837Y-102612607D01*
X77581187Y-102612000D01*
X83359000Y-102612000D01*
X85294685Y-102615275D01*
G37*
%TD.AperFunction*%
%TD*%
%TA.AperFunction,Conductor*%
%TO.N,BYP_out*%
G36*
X102717163Y-114578962D02*
G01*
X102893740Y-114596354D01*
X102917957Y-114601170D01*
X103081809Y-114650873D01*
X103104629Y-114660326D01*
X103255631Y-114741038D01*
X103276158Y-114754754D01*
X103408521Y-114863381D01*
X103425974Y-114880834D01*
X103534601Y-115013197D01*
X103548319Y-115033727D01*
X103629029Y-115184726D01*
X103638482Y-115207545D01*
X103688185Y-115371398D01*
X103693002Y-115395618D01*
X103710393Y-115572192D01*
X103711000Y-115584542D01*
X103711000Y-129589813D01*
X103710393Y-129602163D01*
X103695059Y-129757851D01*
X103668477Y-129823683D01*
X103610522Y-129864693D01*
X103539596Y-129867860D01*
X103527604Y-129864273D01*
X103512855Y-129859050D01*
X103512854Y-129859050D01*
X103507978Y-129857323D01*
X103502885Y-129856416D01*
X103502882Y-129856415D01*
X103406707Y-129839284D01*
X103281250Y-129816937D01*
X103194802Y-129815881D01*
X103056141Y-129814186D01*
X103056139Y-129814186D01*
X103050971Y-129814123D01*
X102823325Y-129848958D01*
X102604424Y-129920506D01*
X102400149Y-130026845D01*
X102396016Y-130029948D01*
X102396013Y-130029950D01*
X102348985Y-130065260D01*
X102282500Y-130090166D01*
X102273332Y-130090500D01*
X97742697Y-130090500D01*
X97731720Y-130089573D01*
X97731699Y-130089861D01*
X97725722Y-130089422D01*
X97719805Y-130088416D01*
X97625670Y-130090470D01*
X97622921Y-130090500D01*
X97583336Y-130090500D01*
X97575784Y-130091221D01*
X97566576Y-130091760D01*
X97540602Y-130092326D01*
X97511085Y-130092970D01*
X97511083Y-130092970D01*
X97505090Y-130093101D01*
X97471716Y-130100286D01*
X97457190Y-130102536D01*
X97423205Y-130105778D01*
X97417453Y-130107466D01*
X97417445Y-130107467D01*
X97364204Y-130123086D01*
X97355256Y-130125358D01*
X97301001Y-130137039D01*
X97300990Y-130137042D01*
X97295135Y-130138303D01*
X97289619Y-130140650D01*
X97289616Y-130140651D01*
X97263729Y-130151666D01*
X97249880Y-130156625D01*
X97217124Y-130166235D01*
X97211792Y-130168981D01*
X97211790Y-130168982D01*
X97162451Y-130194393D01*
X97154093Y-130198317D01*
X97103035Y-130220043D01*
X97103033Y-130220044D01*
X97097515Y-130222392D01*
X97092543Y-130225739D01*
X97092538Y-130225742D01*
X97085549Y-130230447D01*
X97034242Y-130250476D01*
X96887325Y-130272958D01*
X96668424Y-130344506D01*
X96464149Y-130450845D01*
X96460014Y-130453949D01*
X96460007Y-130453954D01*
X96304435Y-130570760D01*
X96237950Y-130595666D01*
X96228782Y-130596000D01*
X94110050Y-130596000D01*
X94097700Y-130595393D01*
X93921123Y-130578001D01*
X93896906Y-130573185D01*
X93733053Y-130523482D01*
X93710234Y-130514029D01*
X93587553Y-130448455D01*
X93559232Y-130433317D01*
X93538705Y-130419601D01*
X93406342Y-130310974D01*
X93388889Y-130293521D01*
X93280262Y-130161158D01*
X93266544Y-130140628D01*
X93244981Y-130100285D01*
X93185834Y-129989629D01*
X93176381Y-129966809D01*
X93161848Y-129918899D01*
X93126678Y-129802957D01*
X93121861Y-129778737D01*
X93104470Y-129602163D01*
X93103863Y-129589813D01*
X93103863Y-115584542D01*
X93104470Y-115572192D01*
X93121861Y-115395618D01*
X93126678Y-115371398D01*
X93176381Y-115207545D01*
X93185834Y-115184726D01*
X93266544Y-115033727D01*
X93280262Y-115013197D01*
X93388889Y-114880834D01*
X93406342Y-114863381D01*
X93538705Y-114754754D01*
X93559232Y-114741038D01*
X93710234Y-114660326D01*
X93733054Y-114650873D01*
X93896906Y-114601170D01*
X93921123Y-114596354D01*
X94097700Y-114578962D01*
X94110050Y-114578355D01*
X102704813Y-114578355D01*
X102717163Y-114578962D01*
G37*
%TD.AperFunction*%
%TD*%
%TA.AperFunction,Conductor*%
%TO.N,GND*%
G36*
X109799189Y-50528502D02*
G01*
X109821612Y-50546877D01*
X169277527Y-111984656D01*
X169456044Y-112169124D01*
X169489043Y-112231985D01*
X169491500Y-112256747D01*
X169491500Y-166365500D01*
X169471498Y-166433621D01*
X169417842Y-166480114D01*
X169365500Y-166491500D01*
X50634500Y-166491500D01*
X50566379Y-166471498D01*
X50519886Y-166417842D01*
X50508500Y-166365500D01*
X50508500Y-155184000D01*
X62752000Y-155184000D01*
X67840000Y-157728000D01*
X67840000Y-134030643D01*
X67840742Y-134016990D01*
X67861993Y-133822021D01*
X67867875Y-133795357D01*
X67928428Y-133616062D01*
X67939917Y-133591292D01*
X68037672Y-133429256D01*
X68054227Y-133407541D01*
X68189342Y-133265375D01*
X68199285Y-133255990D01*
X71598408Y-130379809D01*
X71608065Y-130372408D01*
X71751616Y-130273003D01*
X71772840Y-130261157D01*
X71927199Y-130193618D01*
X71950299Y-130186070D01*
X72114755Y-130149425D01*
X72138878Y-130146452D01*
X72194358Y-130145007D01*
X72307306Y-130142066D01*
X72331552Y-130143780D01*
X72374140Y-130150967D01*
X72497691Y-130171816D01*
X72521150Y-130178151D01*
X72562197Y-130193619D01*
X72678813Y-130237564D01*
X72700625Y-130248289D01*
X72843952Y-130336872D01*
X72863299Y-130351585D01*
X72986943Y-130466033D01*
X73003105Y-130484187D01*
X73102476Y-130620248D01*
X73114852Y-130641168D01*
X73186252Y-130793783D01*
X73194379Y-130816687D01*
X73235148Y-130980172D01*
X73238726Y-131004208D01*
X73247658Y-131178585D01*
X73247693Y-131190752D01*
X72948176Y-137780113D01*
X72948176Y-137780126D01*
X72928000Y-138224000D01*
X77168000Y-142464000D01*
X150520000Y-142464000D01*
X153064000Y-139496000D01*
X153064000Y-110664000D01*
X152741573Y-110365022D01*
X152741565Y-110365014D01*
X130068820Y-89341197D01*
X130059783Y-89331909D01*
X129937157Y-89192159D01*
X129922175Y-89171054D01*
X129833902Y-89014878D01*
X129823548Y-88991156D01*
X129769051Y-88820243D01*
X129763762Y-88794907D01*
X129744666Y-88609965D01*
X129744000Y-88597024D01*
X129744000Y-78440000D01*
X128121451Y-76662922D01*
X128090290Y-76599129D01*
X128088500Y-76577964D01*
X128088500Y-76229768D01*
X128089027Y-76218585D01*
X128090702Y-76211092D01*
X128088562Y-76143001D01*
X128088500Y-76139044D01*
X128088500Y-76111144D01*
X128087996Y-76107153D01*
X128087063Y-76095311D01*
X128085923Y-76059036D01*
X128085674Y-76051111D01*
X128083461Y-76043493D01*
X128080021Y-76031652D01*
X128076012Y-76012293D01*
X128075846Y-76010983D01*
X128073474Y-75992203D01*
X128070558Y-75984837D01*
X128070556Y-75984831D01*
X128057200Y-75951098D01*
X128053355Y-75939868D01*
X128043230Y-75905017D01*
X128043230Y-75905016D01*
X128041019Y-75897407D01*
X128030705Y-75879966D01*
X128022008Y-75862213D01*
X128017472Y-75850758D01*
X128014552Y-75843383D01*
X127988563Y-75807612D01*
X127982047Y-75797692D01*
X127963578Y-75766463D01*
X127959542Y-75759638D01*
X127945221Y-75745317D01*
X127932380Y-75730283D01*
X127925131Y-75720306D01*
X127920472Y-75713893D01*
X127886395Y-75685702D01*
X127877616Y-75677712D01*
X122635122Y-70435217D01*
X122601096Y-70372905D01*
X122598907Y-70359292D01*
X122582232Y-70200635D01*
X122582232Y-70200633D01*
X122581542Y-70194072D01*
X122522527Y-70012444D01*
X122427040Y-69847056D01*
X122299253Y-69705134D01*
X122144752Y-69592882D01*
X122138724Y-69590198D01*
X122138722Y-69590197D01*
X121976319Y-69517891D01*
X121976318Y-69517891D01*
X121970288Y-69515206D01*
X121870786Y-69494056D01*
X121789944Y-69476872D01*
X121789939Y-69476872D01*
X121783487Y-69475500D01*
X121614597Y-69475500D01*
X121546476Y-69455498D01*
X121521551Y-69434460D01*
X120840000Y-68688000D01*
X107637325Y-67993122D01*
X106079963Y-67911156D01*
X104796481Y-67843604D01*
X104792309Y-67843315D01*
X104760614Y-67840590D01*
X104732417Y-67838165D01*
X104724132Y-67837175D01*
X104664735Y-67828066D01*
X104660612Y-67827364D01*
X99178549Y-66799478D01*
X97944000Y-66568000D01*
X85456448Y-66568000D01*
X85443539Y-66567337D01*
X85436679Y-66566630D01*
X85259057Y-66548336D01*
X85233790Y-66543076D01*
X85063246Y-66488842D01*
X85039583Y-66478542D01*
X84883676Y-66390687D01*
X84862608Y-66375780D01*
X84727882Y-66257992D01*
X84710290Y-66239100D01*
X84602403Y-66096328D01*
X84589030Y-66074243D01*
X84512510Y-65912481D01*
X84503919Y-65888134D01*
X84461977Y-65714170D01*
X84458529Y-65688584D01*
X84452721Y-65503225D01*
X84452979Y-65490302D01*
X84578585Y-63731810D01*
X84603390Y-63665287D01*
X84660222Y-63622735D01*
X84731037Y-63617664D01*
X84743932Y-63621194D01*
X84817611Y-63645632D01*
X84817613Y-63645632D01*
X84824139Y-63647797D01*
X84830975Y-63648497D01*
X84830978Y-63648498D01*
X84874031Y-63652909D01*
X84928600Y-63658500D01*
X86029400Y-63658500D01*
X86032646Y-63658163D01*
X86032650Y-63658163D01*
X86128307Y-63648238D01*
X86128311Y-63648237D01*
X86135165Y-63647526D01*
X86141701Y-63645345D01*
X86141703Y-63645345D01*
X86295997Y-63593868D01*
X86302945Y-63591550D01*
X86453348Y-63498478D01*
X86578305Y-63373303D01*
X86671115Y-63222738D01*
X86726797Y-63054861D01*
X86737500Y-62950400D01*
X86737500Y-61849600D01*
X86737163Y-61846350D01*
X86727238Y-61750693D01*
X86727237Y-61750689D01*
X86726526Y-61743835D01*
X86670550Y-61576055D01*
X86577478Y-61425652D01*
X86452303Y-61300695D01*
X86446072Y-61296854D01*
X86307968Y-61211725D01*
X86307966Y-61211724D01*
X86301738Y-61207885D01*
X86196514Y-61172984D01*
X86140389Y-61154368D01*
X86140387Y-61154368D01*
X86133861Y-61152203D01*
X86127025Y-61151503D01*
X86127022Y-61151502D01*
X86083969Y-61147091D01*
X86029400Y-61141500D01*
X84928600Y-61141500D01*
X84925354Y-61141837D01*
X84925350Y-61141837D01*
X84829693Y-61151762D01*
X84829689Y-61151763D01*
X84822835Y-61152474D01*
X84816299Y-61154655D01*
X84816297Y-61154655D01*
X84761358Y-61172984D01*
X84800000Y-60632000D01*
X81782570Y-60632000D01*
X81730720Y-60622298D01*
X81695821Y-60589382D01*
X81683202Y-60617012D01*
X81660292Y-60632000D01*
X81408000Y-60632000D01*
X81112915Y-60938889D01*
X81112912Y-60938891D01*
X73591613Y-68761042D01*
X70808000Y-71656000D01*
X70810572Y-72062445D01*
X70810572Y-72062450D01*
X70810591Y-72065501D01*
X70810591Y-72065508D01*
X70853497Y-78844585D01*
X70853500Y-78845382D01*
X70853500Y-120587733D01*
X70852973Y-120598916D01*
X70851298Y-120606409D01*
X70851547Y-120614335D01*
X70851547Y-120614336D01*
X70853438Y-120674486D01*
X70853500Y-120678445D01*
X70853500Y-120706356D01*
X70853997Y-120710290D01*
X70853997Y-120710291D01*
X70854005Y-120710356D01*
X70854938Y-120722193D01*
X70856327Y-120766389D01*
X70861978Y-120785839D01*
X70865987Y-120805200D01*
X70868526Y-120825297D01*
X70871445Y-120832668D01*
X70871445Y-120832670D01*
X70884804Y-120866412D01*
X70888649Y-120877642D01*
X70900982Y-120920093D01*
X70905015Y-120926912D01*
X70905017Y-120926917D01*
X70911293Y-120937528D01*
X70919988Y-120955276D01*
X70927448Y-120974117D01*
X70932110Y-120980533D01*
X70932110Y-120980534D01*
X70953436Y-121009887D01*
X70959952Y-121019807D01*
X70978034Y-121050381D01*
X70982458Y-121057862D01*
X70996779Y-121072183D01*
X71009619Y-121087216D01*
X71021528Y-121103607D01*
X71027634Y-121108658D01*
X71055605Y-121131798D01*
X71064384Y-121139788D01*
X71084976Y-121160380D01*
X71119002Y-121222692D01*
X71121878Y-121248678D01*
X71132637Y-122948529D01*
X71132070Y-122961284D01*
X71114655Y-123143809D01*
X71109670Y-123168842D01*
X71057716Y-123337960D01*
X71047788Y-123361474D01*
X70962820Y-123516649D01*
X70948357Y-123537680D01*
X70829692Y-123677457D01*
X70820938Y-123686766D01*
X63061431Y-131142675D01*
X63061425Y-131142682D01*
X63059140Y-131144877D01*
X62752000Y-131440000D01*
X62752000Y-155184000D01*
X50508500Y-155184000D01*
X50508500Y-59392925D01*
X80525645Y-59392925D01*
X80543570Y-59589888D01*
X80599410Y-59779619D01*
X80602263Y-59785077D01*
X80602265Y-59785081D01*
X80649720Y-59875853D01*
X80691040Y-59954890D01*
X80814968Y-60109025D01*
X80819692Y-60112989D01*
X80826933Y-60119065D01*
X80966474Y-60236154D01*
X80971872Y-60239121D01*
X80971877Y-60239125D01*
X81115180Y-60317905D01*
X81139787Y-60331433D01*
X81145654Y-60333294D01*
X81145656Y-60333295D01*
X81322430Y-60389371D01*
X81328306Y-60391235D01*
X81482227Y-60408500D01*
X81587978Y-60408500D01*
X81656099Y-60428502D01*
X81678911Y-60454829D01*
X81684816Y-60437464D01*
X81740385Y-60393274D01*
X81751430Y-60389371D01*
X81761111Y-60386448D01*
X81925169Y-60336916D01*
X82099796Y-60244066D01*
X82186062Y-60173709D01*
X82248287Y-60122960D01*
X82248290Y-60122957D01*
X82253062Y-60119065D01*
X82265344Y-60104219D01*
X82375201Y-59971425D01*
X82375203Y-59971421D01*
X82379130Y-59966675D01*
X82473198Y-59792701D01*
X82531682Y-59603768D01*
X82552355Y-59407075D01*
X82534430Y-59210112D01*
X82478590Y-59020381D01*
X82468919Y-59001881D01*
X82389813Y-58850568D01*
X82386960Y-58845110D01*
X82263032Y-58690975D01*
X82256727Y-58685684D01*
X82240334Y-58671929D01*
X82111526Y-58563846D01*
X82106128Y-58560879D01*
X82106123Y-58560875D01*
X81943608Y-58471533D01*
X81943609Y-58471533D01*
X81938213Y-58468567D01*
X81932346Y-58466706D01*
X81932344Y-58466705D01*
X81755564Y-58410627D01*
X81755563Y-58410627D01*
X81749694Y-58408765D01*
X81595773Y-58391500D01*
X81489231Y-58391500D01*
X81486175Y-58391800D01*
X81486168Y-58391800D01*
X81427660Y-58397537D01*
X81342167Y-58405920D01*
X81336266Y-58407702D01*
X81336264Y-58407702D01*
X81262947Y-58429838D01*
X81152831Y-58463084D01*
X80978204Y-58555934D01*
X80891938Y-58626291D01*
X80829713Y-58677040D01*
X80829710Y-58677043D01*
X80824938Y-58680935D01*
X80821011Y-58685682D01*
X80821009Y-58685684D01*
X80702799Y-58828575D01*
X80702797Y-58828579D01*
X80698870Y-58833325D01*
X80604802Y-59007299D01*
X80546318Y-59196232D01*
X80525645Y-59392925D01*
X50508500Y-59392925D01*
X50508500Y-50634500D01*
X50528502Y-50566379D01*
X50582158Y-50519886D01*
X50634500Y-50508500D01*
X109731068Y-50508500D01*
X109799189Y-50528502D01*
G37*
%TD.AperFunction*%
%TD*%
%TA.AperFunction,Conductor*%
%TO.N,LVBAT_in*%
G36*
X123503953Y-98784680D02*
G01*
X123588592Y-98793510D01*
X123690778Y-98804171D01*
X123716361Y-98809568D01*
X123802612Y-98837374D01*
X123888859Y-98865179D01*
X123912779Y-98875741D01*
X124070091Y-98965763D01*
X124091318Y-98981037D01*
X124231575Y-99105972D01*
X124240885Y-99115176D01*
X126766108Y-101885407D01*
X126773530Y-101894344D01*
X126874197Y-102027657D01*
X126886433Y-102047420D01*
X126958277Y-102191710D01*
X126966675Y-102213391D01*
X127010779Y-102368407D01*
X127015052Y-102391262D01*
X127030463Y-102557586D01*
X127031000Y-102569211D01*
X127031000Y-121789020D01*
X127030327Y-121802022D01*
X127011052Y-121987813D01*
X127005714Y-122013264D01*
X126950709Y-122184903D01*
X126940260Y-122208715D01*
X126847953Y-122371107D01*
X126840943Y-122382078D01*
X116733604Y-136532355D01*
X116726191Y-136541756D01*
X116613498Y-136671468D01*
X116596168Y-136687953D01*
X116465740Y-136790308D01*
X116445608Y-136803221D01*
X116298186Y-136879087D01*
X116275979Y-136887962D01*
X116121725Y-136933183D01*
X116116878Y-136934604D01*
X116093391Y-136939124D01*
X115922350Y-136955431D01*
X115910391Y-136956000D01*
X110629469Y-136956000D01*
X100362186Y-136956001D01*
X100349835Y-136955394D01*
X100173258Y-136938002D01*
X100149033Y-136933183D01*
X99985191Y-136883482D01*
X99962372Y-136874030D01*
X99811374Y-136793321D01*
X99790841Y-136779602D01*
X99658478Y-136670975D01*
X99641025Y-136653522D01*
X99532398Y-136521159D01*
X99518680Y-136500629D01*
X99437970Y-136349630D01*
X99428517Y-136326810D01*
X99378814Y-136162958D01*
X99373997Y-136138738D01*
X99356606Y-135962164D01*
X99355999Y-135949814D01*
X99355999Y-133521254D01*
X99356583Y-133509137D01*
X99373326Y-133335846D01*
X99377965Y-133312063D01*
X99425837Y-133151030D01*
X99434945Y-133128572D01*
X99512759Y-132979686D01*
X99525998Y-132959387D01*
X99630879Y-132828151D01*
X99647752Y-132810770D01*
X99775831Y-132702029D01*
X99795709Y-132688207D01*
X99942236Y-132606000D01*
X99964409Y-132596233D01*
X100129738Y-132541694D01*
X100141429Y-132538452D01*
X102509080Y-132003237D01*
X102589039Y-131985162D01*
X102659894Y-131989652D01*
X102680730Y-132000732D01*
X102681189Y-131999936D01*
X102686907Y-132003237D01*
X102692248Y-132007118D01*
X102698276Y-132009802D01*
X102698278Y-132009803D01*
X102860681Y-132082109D01*
X102866712Y-132084794D01*
X102960112Y-132104647D01*
X103047056Y-132123128D01*
X103047061Y-132123128D01*
X103053513Y-132124500D01*
X103244487Y-132124500D01*
X103250939Y-132123128D01*
X103250944Y-132123128D01*
X103337888Y-132104647D01*
X103431288Y-132084794D01*
X103437319Y-132082109D01*
X103599722Y-132009803D01*
X103599724Y-132009802D01*
X103605752Y-132007118D01*
X103760253Y-131894866D01*
X103888040Y-131752944D01*
X103891339Y-131747231D01*
X103891342Y-131747226D01*
X103901262Y-131730043D01*
X103952645Y-131681050D01*
X103982599Y-131670144D01*
X104203490Y-131620211D01*
X104203493Y-131620210D01*
X104983000Y-131444000D01*
X104983000Y-117940134D01*
X109410500Y-117940134D01*
X109417255Y-118002316D01*
X109468385Y-118138705D01*
X109555739Y-118255261D01*
X109672295Y-118342615D01*
X109808684Y-118393745D01*
X109870866Y-118400500D01*
X112567134Y-118400500D01*
X112629316Y-118393745D01*
X112765705Y-118342615D01*
X112882261Y-118255261D01*
X112969615Y-118138705D01*
X113020745Y-118002316D01*
X113027500Y-117940134D01*
X113027500Y-115243866D01*
X113020745Y-115181684D01*
X112969615Y-115045295D01*
X112882261Y-114928739D01*
X112765705Y-114841385D01*
X112629316Y-114790255D01*
X112567134Y-114783500D01*
X109870866Y-114783500D01*
X109808684Y-114790255D01*
X109672295Y-114841385D01*
X109555739Y-114928739D01*
X109468385Y-115045295D01*
X109417255Y-115181684D01*
X109410500Y-115243866D01*
X109410500Y-117940134D01*
X104983000Y-117940134D01*
X104983000Y-111464526D01*
X109406050Y-111464526D01*
X109406274Y-111469192D01*
X109406274Y-111469197D01*
X109412738Y-111603758D01*
X109418947Y-111733019D01*
X109471388Y-111996656D01*
X109562220Y-112249646D01*
X109689450Y-112486431D01*
X109692241Y-112490168D01*
X109692245Y-112490175D01*
X109767859Y-112591434D01*
X109850281Y-112701810D01*
X109853590Y-112705090D01*
X109853595Y-112705096D01*
X110029075Y-112879050D01*
X110041180Y-112891050D01*
X110044942Y-112893808D01*
X110044945Y-112893811D01*
X110145049Y-112967210D01*
X110257954Y-113049995D01*
X110262089Y-113052171D01*
X110262093Y-113052173D01*
X110491698Y-113172975D01*
X110495840Y-113175154D01*
X110749613Y-113263775D01*
X110754206Y-113264647D01*
X111009109Y-113313042D01*
X111009112Y-113313042D01*
X111013698Y-113313913D01*
X111141370Y-113318929D01*
X111277625Y-113324283D01*
X111277630Y-113324283D01*
X111282293Y-113324466D01*
X111386607Y-113313042D01*
X111544844Y-113295713D01*
X111544850Y-113295712D01*
X111549497Y-113295203D01*
X111595076Y-113283203D01*
X111804918Y-113227956D01*
X111804920Y-113227955D01*
X111809441Y-113226765D01*
X111837372Y-113214765D01*
X112052120Y-113122502D01*
X112052122Y-113122501D01*
X112056414Y-113120657D01*
X112175071Y-113047230D01*
X112281017Y-112981669D01*
X112281021Y-112981666D01*
X112284990Y-112979210D01*
X112490149Y-112805530D01*
X112667382Y-112603434D01*
X112725524Y-112513043D01*
X112810269Y-112381291D01*
X112812797Y-112377361D01*
X112923199Y-112132278D01*
X112960209Y-112001051D01*
X112994893Y-111878072D01*
X112994894Y-111878069D01*
X112996163Y-111873568D01*
X113014043Y-111733019D01*
X113029688Y-111610045D01*
X113029688Y-111610041D01*
X113030086Y-111606915D01*
X113032571Y-111512000D01*
X113012650Y-111243937D01*
X112953327Y-110981763D01*
X112855902Y-110731238D01*
X112722518Y-110497864D01*
X112556105Y-110286769D01*
X112360317Y-110102591D01*
X112139457Y-109949374D01*
X112135264Y-109947306D01*
X111902564Y-109832551D01*
X111902561Y-109832550D01*
X111898376Y-109830486D01*
X111850745Y-109815239D01*
X111796621Y-109797914D01*
X111642370Y-109748538D01*
X111637763Y-109747788D01*
X111637760Y-109747787D01*
X111381674Y-109706081D01*
X111381675Y-109706081D01*
X111377063Y-109705330D01*
X111246719Y-109703624D01*
X111112961Y-109701873D01*
X111112958Y-109701873D01*
X111108284Y-109701812D01*
X110841937Y-109738060D01*
X110583874Y-109813278D01*
X110339763Y-109925815D01*
X110335854Y-109928378D01*
X110118881Y-110070631D01*
X110118876Y-110070635D01*
X110114968Y-110073197D01*
X109914426Y-110252188D01*
X109742544Y-110458854D01*
X109603096Y-110688656D01*
X109499148Y-110936545D01*
X109432981Y-111197077D01*
X109406050Y-111464526D01*
X104983000Y-111464526D01*
X104983000Y-109416284D01*
X104983702Y-109402999D01*
X105003825Y-109213204D01*
X105009397Y-109187224D01*
X105066786Y-109012237D01*
X105077682Y-108988004D01*
X105170487Y-108828945D01*
X105186223Y-108807535D01*
X105314837Y-108666521D01*
X105324308Y-108657178D01*
X107511501Y-106716610D01*
X107513991Y-106714401D01*
X107850316Y-106416000D01*
X107850316Y-100470918D01*
X107850909Y-100458713D01*
X107867894Y-100284195D01*
X107872600Y-100260242D01*
X107921159Y-100098143D01*
X107930394Y-100075553D01*
X108009294Y-99925865D01*
X108022715Y-99905476D01*
X108132855Y-99769032D01*
X108140973Y-99759917D01*
X108800652Y-99087919D01*
X108809833Y-99079452D01*
X108947676Y-98964448D01*
X108968356Y-98950421D01*
X109120649Y-98867884D01*
X109143692Y-98858214D01*
X109309282Y-98807355D01*
X109333781Y-98802423D01*
X109512411Y-98784621D01*
X109524906Y-98784000D01*
X123490879Y-98784000D01*
X123503953Y-98784680D01*
G37*
%TD.AperFunction*%
%TD*%
M02*
