M48
; DRILL file {KiCad (6.0.7)} date Sun Jan  8 18:55:11 2023
; FORMAT={-:-/ absolute / inch / decimal}
; #@! TF.CreationDate,2023-01-08T18:55:11-06:00
; #@! TF.GenerationSoftware,Kicad,Pcbnew,(6.0.7)
; #@! TF.FileFunction,Plated,1,2,PTH
FMAT,2
INCH
; #@! TA.AperFunction,Plated,PTH,ViaDrill
T1C0.0157
; #@! TA.AperFunction,Plated,PTH,ComponentDrill
T2C0.0394
; #@! TA.AperFunction,Plated,PTH,ComponentDrill
T3C0.0512
; #@! TA.AperFunction,Plated,PTH,ViaDrill
T4C0.0591
; #@! TA.AperFunction,Plated,PTH,ComponentDrill
T5C0.1260
%
G90
G05
T1
X2.5307Y-6.0694
X2.6141Y-6.1028
X2.9926Y-3.5802
X3.026Y-2.8624
X3.026Y-2.9124
X3.6891Y-2.2535
X3.8273Y-5.1827
X4.061Y-5.166
X4.7508Y-2.9548
X4.7909Y-2.771
X4.8844Y-3.489
X4.9011Y-3.8395
X4.9697Y-3.5192
X5.0179Y-3.322
X5.0346Y-3.489
X5.0513Y-3.105
T2
X2.9634Y-3.968
X2.9634Y-4.0861
X2.9634Y-4.2043
X2.9634Y-4.3224
X2.9634Y-4.4405
X2.9634Y-4.5586
X2.9634Y-4.6767
X2.9634Y-4.7948
X2.9634Y-4.9129
X2.9634Y-5.031
X2.9634Y-5.1491
X2.9634Y-5.2672
X3.0815Y-3.968
X3.0815Y-4.0861
X3.0815Y-4.2043
X3.0815Y-4.3224
X3.0815Y-4.4405
X3.0815Y-4.5586
X3.0815Y-4.6767
X3.0815Y-4.7948
X3.0815Y-4.9129
X3.0815Y-5.031
X3.0815Y-5.1491
X3.0815Y-5.2672
X3.2472Y-2.4567
X3.2472Y-2.5748
X3.2472Y-2.6929
X3.2472Y-2.811
X3.2472Y-2.9291
X3.2472Y-3.0472
X3.2472Y-3.1654
X3.2472Y-3.2835
X3.2472Y-3.4016
X3.2472Y-3.5197
X3.3628Y-5.3333
X3.3628Y-5.4514
X3.3653Y-2.4567
X3.3653Y-2.5748
X3.3653Y-2.6929
X3.3653Y-2.811
X3.3653Y-2.9291
X3.3653Y-3.0472
X3.3653Y-3.1654
X3.3653Y-3.2835
X3.3653Y-3.4016
X3.3653Y-3.5197
X3.4809Y-5.3333
X3.4809Y-5.4514
X3.599Y-5.3333
X3.599Y-5.4514
X3.7171Y-5.3333
X3.7171Y-5.4514
X3.8352Y-5.3333
X3.8352Y-5.4514
X3.9533Y-5.3333
X3.9533Y-5.4514
X4.0715Y-5.3333
X4.0715Y-5.4514
X4.1896Y-5.3333
X4.1896Y-5.4514
X4.3077Y-5.3333
X4.3077Y-5.4514
X4.4258Y-5.3333
X4.4258Y-5.4514
X4.7508Y-5.3333
X4.7508Y-5.4514
X4.8689Y-5.3333
X4.8689Y-5.4514
X4.987Y-5.3333
X4.987Y-5.4514
X5.1052Y-5.3333
X5.1052Y-5.4514
X5.2233Y-5.3333
X5.2233Y-5.4514
X5.3414Y-5.3333
X5.3414Y-5.4514
X5.4595Y-5.3333
X5.4595Y-5.4514
X5.5218Y-4.6725
X5.5218Y-4.7906
X5.5776Y-5.3333
X5.5776Y-5.4514
X5.6399Y-4.6725
X5.6399Y-4.7906
X5.6957Y-5.3333
X5.6957Y-5.4514
X5.8138Y-5.3333
X5.8138Y-5.4514
T3
X3.8661Y-3.9898
X3.8661Y-4.1898
X3.8661Y-4.3898
X3.8661Y-4.5898
X4.3787Y-3.9902
X4.3787Y-4.1902
X4.3787Y-4.3902
X4.3787Y-4.5902
T4
X2.554Y-3.6557
X2.554Y-3.806
X2.6876Y-3.5222
X2.6876Y-3.6724
X3.2096Y-4.1054
X3.2151Y-4.298
X3.2318Y-4.4906
X3.2819Y-4.2055
X3.3319Y-4.8244
X3.3319Y-5.0581
X3.3432Y-4.1054
X3.3486Y-4.298
X3.3653Y-4.4906
X3.382Y-4.7076
X3.382Y-4.9413
X3.3987Y-5.175
X3.4154Y-4.2055
X3.4488Y-4.8244
X3.4488Y-5.0581
X3.4822Y-4.298
X3.5156Y-4.4906
X3.5156Y-4.7076
X3.5156Y-4.9413
X3.5322Y-5.175
X3.5656Y-4.8244
X3.5656Y-5.0581
X3.6115Y-4.2999
X3.711Y-4.1896
X3.7159Y-4.3904
X3.7159Y-4.5907
X3.7159Y-4.7576
X3.7159Y-4.958
X3.8661Y-4.7576
X3.8661Y-4.958
X4.0115Y-4.1896
X4.0163Y-4.3904
X4.0163Y-4.5907
X4.0163Y-4.7576
X4.0163Y-4.958
X4.5338Y-3.7728
X5.0746Y-2.938
X5.1581Y-3.0214
X5.2416Y-3.1049
X5.325Y-3.1883
X5.4085Y-3.2718
T5
X2.1654Y-2.1654
X2.1654Y-6.378
X4.2126Y-2.1654
X6.4961Y-4.5276
X6.4961Y-6.378
T0
M30
