%TF.GenerationSoftware,KiCad,Pcbnew,(6.0.7)*%
%TF.CreationDate,2023-01-08T18:55:16-06:00*%
%TF.ProjectId,Master Switch Enclosure Board,4d617374-6572-4205-9377-697463682045,rev?*%
%TF.SameCoordinates,Original*%
%TF.FileFunction,Soldermask,Top*%
%TF.FilePolarity,Negative*%
%FSLAX46Y46*%
G04 Gerber Fmt 4.6, Leading zero omitted, Abs format (unit mm)*
G04 Created by KiCad (PCBNEW (6.0.7)) date 2023-01-08 18:55:16*
%MOMM*%
%LPD*%
G01*
G04 APERTURE LIST*
G04 Aperture macros list*
%AMRoundRect*
0 Rectangle with rounded corners*
0 $1 Rounding radius*
0 $2 $3 $4 $5 $6 $7 $8 $9 X,Y pos of 4 corners*
0 Add a 4 corners polygon primitive as box body*
4,1,4,$2,$3,$4,$5,$6,$7,$8,$9,$2,$3,0*
0 Add four circle primitives for the rounded corners*
1,1,$1+$1,$2,$3*
1,1,$1+$1,$4,$5*
1,1,$1+$1,$6,$7*
1,1,$1+$1,$8,$9*
0 Add four rect primitives between the rounded corners*
20,1,$1+$1,$2,$3,$4,$5,0*
20,1,$1+$1,$4,$5,$6,$7,0*
20,1,$1+$1,$6,$7,$8,$9,0*
20,1,$1+$1,$8,$9,$2,$3,0*%
%AMFreePoly0*
4,1,22,0.500000,-0.750000,0.000000,-0.750000,0.000000,-0.745033,-0.079941,-0.743568,-0.215256,-0.701293,-0.333266,-0.622738,-0.424486,-0.514219,-0.481581,-0.384460,-0.499164,-0.250000,-0.500000,-0.250000,-0.500000,0.250000,-0.499164,0.250000,-0.499963,0.256109,-0.478152,0.396186,-0.417904,0.524511,-0.324060,0.630769,-0.204165,0.706417,-0.067858,0.745374,0.000000,0.744959,0.000000,0.750000,
0.500000,0.750000,0.500000,-0.750000,0.500000,-0.750000,$1*%
%AMFreePoly1*
4,1,20,0.000000,0.744959,0.073905,0.744508,0.209726,0.703889,0.328688,0.626782,0.421226,0.519385,0.479903,0.390333,0.500000,0.250000,0.500000,-0.250000,0.499851,-0.262216,0.476331,-0.402017,0.414519,-0.529596,0.319384,-0.634700,0.198574,-0.708877,0.061801,-0.746166,0.000000,-0.745033,0.000000,-0.750000,-0.500000,-0.750000,-0.500000,0.750000,0.000000,0.750000,0.000000,0.744959,
0.000000,0.744959,$1*%
G04 Aperture macros list end*
%ADD10C,6.400000*%
%ADD11RoundRect,0.237500X-0.250000X-0.237500X0.250000X-0.237500X0.250000X0.237500X-0.250000X0.237500X0*%
%ADD12RoundRect,0.237500X0.237500X-0.250000X0.237500X0.250000X-0.237500X0.250000X-0.237500X-0.250000X0*%
%ADD13C,1.000000*%
%ADD14RoundRect,0.250001X-0.499999X0.499999X-0.499999X-0.499999X0.499999X-0.499999X0.499999X0.499999X0*%
%ADD15C,1.500000*%
%ADD16RoundRect,0.250001X-0.499999X-0.499999X0.499999X-0.499999X0.499999X0.499999X-0.499999X0.499999X0*%
%ADD17R,8.153000X10.369000*%
%ADD18R,3.581000X1.600000*%
%ADD19RoundRect,0.250000X-0.337500X-0.475000X0.337500X-0.475000X0.337500X0.475000X-0.337500X0.475000X0*%
%ADD20RoundRect,0.237500X-0.300000X-0.237500X0.300000X-0.237500X0.300000X0.237500X-0.300000X0.237500X0*%
%ADD21RoundRect,0.250000X-0.650000X0.412500X-0.650000X-0.412500X0.650000X-0.412500X0.650000X0.412500X0*%
%ADD22RoundRect,0.250000X0.337500X0.475000X-0.337500X0.475000X-0.337500X-0.475000X0.337500X-0.475000X0*%
%ADD23RoundRect,0.237500X-0.237500X0.250000X-0.237500X-0.250000X0.237500X-0.250000X0.237500X0.250000X0*%
%ADD24RoundRect,0.250000X-0.412500X-0.650000X0.412500X-0.650000X0.412500X0.650000X-0.412500X0.650000X0*%
%ADD25RoundRect,0.237500X0.237500X-0.300000X0.237500X0.300000X-0.237500X0.300000X-0.237500X-0.300000X0*%
%ADD26RoundRect,0.237500X-0.237500X0.300000X-0.237500X-0.300000X0.237500X-0.300000X0.237500X0.300000X0*%
%ADD27RoundRect,0.500000X2.250000X-1.450000X2.250000X1.450000X-2.250000X1.450000X-2.250000X-1.450000X0*%
%ADD28FreePoly0,180.000000*%
%ADD29FreePoly1,180.000000*%
%ADD30R,2.600000X2.600000*%
%ADD31C,2.600000*%
%ADD32R,3.850000X2.500000*%
%ADD33RoundRect,0.237500X0.250000X0.237500X-0.250000X0.237500X-0.250000X-0.237500X0.250000X-0.237500X0*%
%ADD34R,0.800000X0.700000*%
%ADD35R,0.680000X0.700000*%
%ADD36R,4.320000X4.510000*%
%ADD37R,0.990600X2.997200*%
%ADD38R,10.337800X8.712200*%
%ADD39R,0.300000X0.650000*%
%ADD40R,2.750000X1.100000*%
G04 APERTURE END LIST*
D10*
%TO.C,M5*%
X55000000Y-162000000D03*
%TD*%
D11*
%TO.C,R11*%
X90926500Y-89664000D03*
X92751500Y-89664000D03*
%TD*%
D12*
%TO.C,R6*%
X123020000Y-81440400D03*
X123020000Y-79615400D03*
%TD*%
D13*
%TO.C,J6*%
X81539000Y-59400000D03*
X81539000Y-92400000D03*
D14*
X85479000Y-62400000D03*
D15*
X85479000Y-65400000D03*
X85479000Y-68400000D03*
X85479000Y-71400000D03*
X85479000Y-74400000D03*
X85479000Y-77400000D03*
X85479000Y-80400000D03*
X85479000Y-83400000D03*
X85479000Y-86400000D03*
X85479000Y-89400000D03*
X82479000Y-62400000D03*
X82479000Y-65400000D03*
X82479000Y-68400000D03*
X82479000Y-71400000D03*
X82479000Y-74400000D03*
X82479000Y-77400000D03*
X82479000Y-80400000D03*
X82479000Y-83400000D03*
X82479000Y-86400000D03*
X82479000Y-89400000D03*
%TD*%
D13*
%TO.C,J3*%
X74331000Y-97788000D03*
X74331000Y-136788000D03*
D14*
X78271000Y-100788000D03*
D15*
X78271000Y-103788000D03*
X78271000Y-106788000D03*
X78271000Y-109788000D03*
X78271000Y-112788000D03*
X78271000Y-115788000D03*
X78271000Y-118788000D03*
X78271000Y-121788000D03*
X78271000Y-124788000D03*
X78271000Y-127788000D03*
X78271000Y-130788000D03*
X78271000Y-133788000D03*
X75271000Y-100788000D03*
X75271000Y-103788000D03*
X75271000Y-106788000D03*
X75271000Y-109788000D03*
X75271000Y-112788000D03*
X75271000Y-115788000D03*
X75271000Y-118788000D03*
X75271000Y-121788000D03*
X75271000Y-124788000D03*
X75271000Y-127788000D03*
X75271000Y-130788000D03*
X75271000Y-133788000D03*
%TD*%
D13*
%TO.C,J2*%
X150671000Y-139405000D03*
X117671000Y-139405000D03*
D16*
X120671000Y-135465000D03*
D15*
X123671000Y-135465000D03*
X126671000Y-135465000D03*
X129671000Y-135465000D03*
X132671000Y-135465000D03*
X135671000Y-135465000D03*
X138671000Y-135465000D03*
X141671000Y-135465000D03*
X144671000Y-135465000D03*
X147671000Y-135465000D03*
X120671000Y-138465000D03*
X123671000Y-138465000D03*
X126671000Y-138465000D03*
X129671000Y-138465000D03*
X132671000Y-138465000D03*
X135671000Y-138465000D03*
X138671000Y-138465000D03*
X141671000Y-138465000D03*
X144671000Y-138465000D03*
X147671000Y-138465000D03*
%TD*%
D17*
%TO.C,D11*%
X110371000Y-125928000D03*
D18*
X99933000Y-123388000D03*
X99933000Y-128468000D03*
%TD*%
D19*
%TO.C,C11*%
X107930500Y-80560000D03*
X110005500Y-80560000D03*
%TD*%
D20*
%TO.C,C5*%
X131258500Y-89855900D03*
X132983500Y-89855900D03*
%TD*%
D21*
%TO.C,C15*%
X119913053Y-68257596D03*
X119913053Y-71382596D03*
%TD*%
D11*
%TO.C,R10*%
X90315500Y-59788000D03*
X92140500Y-59788000D03*
%TD*%
D22*
%TO.C,C9*%
X126796500Y-91164000D03*
X124721500Y-91164000D03*
%TD*%
D13*
%TO.C,J7*%
X137254715Y-122622034D03*
X146254715Y-122622034D03*
D16*
X140254715Y-118682034D03*
D15*
X143254715Y-118682034D03*
X140254715Y-121682034D03*
X143254715Y-121682034D03*
%TD*%
D23*
%TO.C,R9*%
X122960000Y-71167500D03*
X122960000Y-72992500D03*
%TD*%
%TO.C,R12*%
X94669000Y-129031500D03*
X94669000Y-130856500D03*
%TD*%
D24*
%TO.C,C1*%
X126485500Y-96248000D03*
X129610500Y-96248000D03*
%TD*%
D12*
%TO.C,R5*%
X125337000Y-81440400D03*
X125337000Y-79615400D03*
%TD*%
D10*
%TO.C,M1*%
X55000000Y-55000000D03*
%TD*%
D23*
%TO.C,R8*%
X122960000Y-67775500D03*
X122960000Y-69600500D03*
%TD*%
D19*
%TO.C,C13*%
X107931369Y-82654037D03*
X110006369Y-82654037D03*
%TD*%
D10*
%TO.C,M2*%
X107000000Y-55000000D03*
%TD*%
D13*
%TO.C,J1*%
X82415000Y-139405000D03*
X115415000Y-139405000D03*
D16*
X85415000Y-135465000D03*
D15*
X88415000Y-135465000D03*
X91415000Y-135465000D03*
X94415000Y-135465000D03*
X97415000Y-135465000D03*
X100415000Y-135465000D03*
X103415000Y-135465000D03*
X106415000Y-135465000D03*
X109415000Y-135465000D03*
X112415000Y-135465000D03*
X85415000Y-138465000D03*
X88415000Y-138465000D03*
X91415000Y-138465000D03*
X94415000Y-138465000D03*
X97415000Y-138465000D03*
X100415000Y-138465000D03*
X103415000Y-138465000D03*
X106415000Y-138465000D03*
X109415000Y-138465000D03*
X112415000Y-138465000D03*
%TD*%
D10*
%TO.C,M4*%
X165000000Y-162000000D03*
%TD*%
D25*
%TO.C,C3*%
X119825000Y-92911400D03*
X119825000Y-91186400D03*
%TD*%
D26*
%TO.C,C10*%
X125342877Y-75637188D03*
X125342877Y-77362188D03*
%TD*%
D27*
%TO.C,R13*%
X151260126Y-123770369D03*
X151260126Y-113770369D03*
%TD*%
D21*
%TO.C,C14*%
X117448000Y-68264000D03*
X117448000Y-71389000D03*
%TD*%
D12*
%TO.C,R1*%
X122793000Y-92888400D03*
X122793000Y-91063400D03*
%TD*%
D28*
%TO.C,JP1*%
X91846000Y-63180000D03*
D29*
X90546000Y-63180000D03*
%TD*%
D30*
%TO.C,J5*%
X98199000Y-101340000D03*
D31*
X98199000Y-106420000D03*
X98199000Y-111500000D03*
X98199000Y-116580000D03*
%TD*%
D32*
%TO.C,L1*%
X115445000Y-91816000D03*
X115445000Y-88816000D03*
X105545000Y-88816000D03*
X105545000Y-91816000D03*
%TD*%
D12*
%TO.C,R7*%
X123020000Y-77430400D03*
X123020000Y-75605400D03*
%TD*%
D27*
%TO.C,R14*%
X132311215Y-123663534D03*
X132311215Y-113663534D03*
%TD*%
D24*
%TO.C,C2*%
X131997500Y-96248000D03*
X135122500Y-96248000D03*
%TD*%
D23*
%TO.C,R4*%
X135089000Y-87671400D03*
X135089000Y-89496400D03*
%TD*%
D10*
%TO.C,M3*%
X165000000Y-115000000D03*
%TD*%
D21*
%TO.C,C12*%
X114984536Y-68263722D03*
X114984536Y-71388722D03*
%TD*%
D12*
%TO.C,R2*%
X122793000Y-96280400D03*
X122793000Y-94455400D03*
%TD*%
D33*
%TO.C,R3*%
X129664500Y-82684000D03*
X127839500Y-82684000D03*
%TD*%
D34*
%TO.C,Q1*%
X119872000Y-80312900D03*
X119872000Y-79042900D03*
X119872000Y-77772900D03*
X119872000Y-76502900D03*
D35*
X114357000Y-76502900D03*
X114357000Y-77772900D03*
X114357000Y-79042900D03*
X114357000Y-80312900D03*
D36*
X116857000Y-78407900D03*
%TD*%
D20*
%TO.C,C8*%
X131258500Y-87735900D03*
X132983500Y-87735900D03*
%TD*%
D37*
%TO.C,D1*%
X104989000Y-77414900D03*
X110069000Y-77414900D03*
D38*
X107529000Y-66404000D03*
%TD*%
D39*
%TO.C,IC1*%
X124935000Y-87513900D03*
X125435000Y-87513900D03*
X125935000Y-87513900D03*
X126435000Y-87513900D03*
X126935000Y-87513900D03*
X127435000Y-87513900D03*
X127435000Y-85413900D03*
X126935000Y-85413900D03*
X126435000Y-85413900D03*
X125935000Y-85413900D03*
X125435000Y-85413900D03*
X124935000Y-85413900D03*
D40*
X126185000Y-86463900D03*
%TD*%
D25*
%TO.C,C6*%
X119825000Y-96303400D03*
X119825000Y-94578400D03*
%TD*%
%TO.C,C7*%
X131296000Y-84394500D03*
X131296000Y-82669500D03*
%TD*%
D30*
%TO.C,J4*%
X111219000Y-116592000D03*
D31*
X111219000Y-111512000D03*
X111219000Y-106432000D03*
X111219000Y-101352000D03*
%TD*%
M02*
