%TF.GenerationSoftware,KiCad,Pcbnew,(6.0.7)*%
%TF.CreationDate,2023-01-08T12:05:45-06:00*%
%TF.ProjectId,Master Switch Enclosure Board,4d617374-6572-4205-9377-697463682045,rev?*%
%TF.SameCoordinates,Original*%
%TF.FileFunction,Soldermask,Bot*%
%TF.FilePolarity,Negative*%
%FSLAX46Y46*%
G04 Gerber Fmt 4.6, Leading zero omitted, Abs format (unit mm)*
G04 Created by KiCad (PCBNEW (6.0.7)) date 2023-01-08 12:05:45*
%MOMM*%
%LPD*%
G01*
G04 APERTURE LIST*
G04 Aperture macros list*
%AMRoundRect*
0 Rectangle with rounded corners*
0 $1 Rounding radius*
0 $2 $3 $4 $5 $6 $7 $8 $9 X,Y pos of 4 corners*
0 Add a 4 corners polygon primitive as box body*
4,1,4,$2,$3,$4,$5,$6,$7,$8,$9,$2,$3,0*
0 Add four circle primitives for the rounded corners*
1,1,$1+$1,$2,$3*
1,1,$1+$1,$4,$5*
1,1,$1+$1,$6,$7*
1,1,$1+$1,$8,$9*
0 Add four rect primitives between the rounded corners*
20,1,$1+$1,$2,$3,$4,$5,0*
20,1,$1+$1,$4,$5,$6,$7,0*
20,1,$1+$1,$6,$7,$8,$9,0*
20,1,$1+$1,$8,$9,$2,$3,0*%
G04 Aperture macros list end*
%ADD10C,6.400000*%
%ADD11C,1.000000*%
%ADD12RoundRect,0.250001X-0.499999X0.499999X-0.499999X-0.499999X0.499999X-0.499999X0.499999X0.499999X0*%
%ADD13C,1.500000*%
%ADD14RoundRect,0.250001X-0.499999X-0.499999X0.499999X-0.499999X0.499999X0.499999X-0.499999X0.499999X0*%
%ADD15R,2.600000X2.600000*%
%ADD16C,2.600000*%
G04 APERTURE END LIST*
D10*
%TO.C,M2*%
X107000000Y-55000000D03*
%TD*%
%TO.C,M1*%
X55000000Y-55000000D03*
%TD*%
%TO.C,M5*%
X55000000Y-162000000D03*
%TD*%
%TO.C,M4*%
X165000000Y-162000000D03*
%TD*%
%TO.C,M3*%
X165000000Y-115000000D03*
%TD*%
D11*
%TO.C,J6*%
X81539000Y-59400000D03*
X81539000Y-92400000D03*
D12*
X85479000Y-62400000D03*
D13*
X85479000Y-65400000D03*
X85479000Y-68400000D03*
X85479000Y-71400000D03*
X85479000Y-74400000D03*
X85479000Y-77400000D03*
X85479000Y-80400000D03*
X85479000Y-83400000D03*
X85479000Y-86400000D03*
X85479000Y-89400000D03*
X82479000Y-62400000D03*
X82479000Y-65400000D03*
X82479000Y-68400000D03*
X82479000Y-71400000D03*
X82479000Y-74400000D03*
X82479000Y-77400000D03*
X82479000Y-80400000D03*
X82479000Y-83400000D03*
X82479000Y-86400000D03*
X82479000Y-89400000D03*
%TD*%
D11*
%TO.C,J3*%
X74331000Y-97788000D03*
X74331000Y-136788000D03*
D12*
X78271000Y-100788000D03*
D13*
X78271000Y-103788000D03*
X78271000Y-106788000D03*
X78271000Y-109788000D03*
X78271000Y-112788000D03*
X78271000Y-115788000D03*
X78271000Y-118788000D03*
X78271000Y-121788000D03*
X78271000Y-124788000D03*
X78271000Y-127788000D03*
X78271000Y-130788000D03*
X78271000Y-133788000D03*
X75271000Y-100788000D03*
X75271000Y-103788000D03*
X75271000Y-106788000D03*
X75271000Y-109788000D03*
X75271000Y-112788000D03*
X75271000Y-115788000D03*
X75271000Y-118788000D03*
X75271000Y-121788000D03*
X75271000Y-124788000D03*
X75271000Y-127788000D03*
X75271000Y-130788000D03*
X75271000Y-133788000D03*
%TD*%
D11*
%TO.C,J2*%
X150671000Y-139405000D03*
X117671000Y-139405000D03*
D14*
X120671000Y-135465000D03*
D13*
X123671000Y-135465000D03*
X126671000Y-135465000D03*
X129671000Y-135465000D03*
X132671000Y-135465000D03*
X135671000Y-135465000D03*
X138671000Y-135465000D03*
X141671000Y-135465000D03*
X144671000Y-135465000D03*
X147671000Y-135465000D03*
X120671000Y-138465000D03*
X123671000Y-138465000D03*
X126671000Y-138465000D03*
X129671000Y-138465000D03*
X132671000Y-138465000D03*
X135671000Y-138465000D03*
X138671000Y-138465000D03*
X141671000Y-138465000D03*
X144671000Y-138465000D03*
X147671000Y-138465000D03*
%TD*%
D11*
%TO.C,J7*%
X137254715Y-122622034D03*
X146254715Y-122622034D03*
D14*
X140254715Y-118682034D03*
D13*
X143254715Y-118682034D03*
X140254715Y-121682034D03*
X143254715Y-121682034D03*
%TD*%
D11*
%TO.C,J1*%
X82415000Y-139405000D03*
X115415000Y-139405000D03*
D14*
X85415000Y-135465000D03*
D13*
X88415000Y-135465000D03*
X91415000Y-135465000D03*
X94415000Y-135465000D03*
X97415000Y-135465000D03*
X100415000Y-135465000D03*
X103415000Y-135465000D03*
X106415000Y-135465000D03*
X109415000Y-135465000D03*
X112415000Y-135465000D03*
X85415000Y-138465000D03*
X88415000Y-138465000D03*
X91415000Y-138465000D03*
X94415000Y-138465000D03*
X97415000Y-138465000D03*
X100415000Y-138465000D03*
X103415000Y-138465000D03*
X106415000Y-138465000D03*
X109415000Y-138465000D03*
X112415000Y-138465000D03*
%TD*%
D15*
%TO.C,J5*%
X98199000Y-101340000D03*
D16*
X98199000Y-106420000D03*
X98199000Y-111500000D03*
X98199000Y-116580000D03*
%TD*%
D15*
%TO.C,J4*%
X111219000Y-116592000D03*
D16*
X111219000Y-111512000D03*
X111219000Y-106432000D03*
X111219000Y-101352000D03*
%TD*%
M02*
