%TF.GenerationSoftware,KiCad,Pcbnew,(6.0.7)*%
%TF.CreationDate,2023-01-08T12:05:45-06:00*%
%TF.ProjectId,Master Switch Enclosure Board,4d617374-6572-4205-9377-697463682045,rev?*%
%TF.SameCoordinates,Original*%
%TF.FileFunction,Copper,L1,Top*%
%TF.FilePolarity,Positive*%
%FSLAX46Y46*%
G04 Gerber Fmt 4.6, Leading zero omitted, Abs format (unit mm)*
G04 Created by KiCad (PCBNEW (6.0.7)) date 2023-01-08 12:05:45*
%MOMM*%
%LPD*%
G01*
G04 APERTURE LIST*
G04 Aperture macros list*
%AMRoundRect*
0 Rectangle with rounded corners*
0 $1 Rounding radius*
0 $2 $3 $4 $5 $6 $7 $8 $9 X,Y pos of 4 corners*
0 Add a 4 corners polygon primitive as box body*
4,1,4,$2,$3,$4,$5,$6,$7,$8,$9,$2,$3,0*
0 Add four circle primitives for the rounded corners*
1,1,$1+$1,$2,$3*
1,1,$1+$1,$4,$5*
1,1,$1+$1,$6,$7*
1,1,$1+$1,$8,$9*
0 Add four rect primitives between the rounded corners*
20,1,$1+$1,$2,$3,$4,$5,0*
20,1,$1+$1,$4,$5,$6,$7,0*
20,1,$1+$1,$6,$7,$8,$9,0*
20,1,$1+$1,$8,$9,$2,$3,0*%
%AMFreePoly0*
4,1,22,0.500000,-0.750000,0.000000,-0.750000,0.000000,-0.745033,-0.079941,-0.743568,-0.215256,-0.701293,-0.333266,-0.622738,-0.424486,-0.514219,-0.481581,-0.384460,-0.499164,-0.250000,-0.500000,-0.250000,-0.500000,0.250000,-0.499164,0.250000,-0.499963,0.256109,-0.478152,0.396186,-0.417904,0.524511,-0.324060,0.630769,-0.204165,0.706417,-0.067858,0.745374,0.000000,0.744959,0.000000,0.750000,
0.500000,0.750000,0.500000,-0.750000,0.500000,-0.750000,$1*%
%AMFreePoly1*
4,1,20,0.000000,0.744959,0.073905,0.744508,0.209726,0.703889,0.328688,0.626782,0.421226,0.519385,0.479903,0.390333,0.500000,0.250000,0.500000,-0.250000,0.499851,-0.262216,0.476331,-0.402017,0.414519,-0.529596,0.319384,-0.634700,0.198574,-0.708877,0.061801,-0.746166,0.000000,-0.745033,0.000000,-0.750000,-0.500000,-0.750000,-0.500000,0.750000,0.000000,0.750000,0.000000,0.744959,
0.000000,0.744959,$1*%
G04 Aperture macros list end*
%TA.AperFunction,ComponentPad*%
%ADD10C,6.400000*%
%TD*%
%TA.AperFunction,SMDPad,CuDef*%
%ADD11RoundRect,0.200000X-0.200000X-0.275000X0.200000X-0.275000X0.200000X0.275000X-0.200000X0.275000X0*%
%TD*%
%TA.AperFunction,SMDPad,CuDef*%
%ADD12RoundRect,0.200000X0.275000X-0.200000X0.275000X0.200000X-0.275000X0.200000X-0.275000X-0.200000X0*%
%TD*%
%TA.AperFunction,ComponentPad*%
%ADD13RoundRect,0.250001X-0.499999X0.499999X-0.499999X-0.499999X0.499999X-0.499999X0.499999X0.499999X0*%
%TD*%
%TA.AperFunction,ComponentPad*%
%ADD14C,1.500000*%
%TD*%
%TA.AperFunction,ComponentPad*%
%ADD15RoundRect,0.250001X-0.499999X-0.499999X0.499999X-0.499999X0.499999X0.499999X-0.499999X0.499999X0*%
%TD*%
%TA.AperFunction,SMDPad,CuDef*%
%ADD16R,8.153000X10.369000*%
%TD*%
%TA.AperFunction,SMDPad,CuDef*%
%ADD17R,3.581000X1.600000*%
%TD*%
%TA.AperFunction,SMDPad,CuDef*%
%ADD18RoundRect,0.225000X-0.225000X-0.250000X0.225000X-0.250000X0.225000X0.250000X-0.225000X0.250000X0*%
%TD*%
%TA.AperFunction,SMDPad,CuDef*%
%ADD19RoundRect,0.250000X0.250000X0.475000X-0.250000X0.475000X-0.250000X-0.475000X0.250000X-0.475000X0*%
%TD*%
%TA.AperFunction,SMDPad,CuDef*%
%ADD20RoundRect,0.250000X1.100000X-0.325000X1.100000X0.325000X-1.100000X0.325000X-1.100000X-0.325000X0*%
%TD*%
%TA.AperFunction,SMDPad,CuDef*%
%ADD21RoundRect,0.200000X-0.275000X0.200000X-0.275000X-0.200000X0.275000X-0.200000X0.275000X0.200000X0*%
%TD*%
%TA.AperFunction,SMDPad,CuDef*%
%ADD22RoundRect,0.250000X-0.250000X-0.475000X0.250000X-0.475000X0.250000X0.475000X-0.250000X0.475000X0*%
%TD*%
%TA.AperFunction,SMDPad,CuDef*%
%ADD23RoundRect,0.225000X0.250000X-0.225000X0.250000X0.225000X-0.250000X0.225000X-0.250000X-0.225000X0*%
%TD*%
%TA.AperFunction,SMDPad,CuDef*%
%ADD24RoundRect,0.225000X-0.250000X0.225000X-0.250000X-0.225000X0.250000X-0.225000X0.250000X0.225000X0*%
%TD*%
%TA.AperFunction,SMDPad,CuDef*%
%ADD25RoundRect,0.500000X2.250000X-1.450000X2.250000X1.450000X-2.250000X1.450000X-2.250000X-1.450000X0*%
%TD*%
%TA.AperFunction,SMDPad,CuDef*%
%ADD26FreePoly0,180.000000*%
%TD*%
%TA.AperFunction,SMDPad,CuDef*%
%ADD27FreePoly1,180.000000*%
%TD*%
%TA.AperFunction,ComponentPad*%
%ADD28R,2.600000X2.600000*%
%TD*%
%TA.AperFunction,ComponentPad*%
%ADD29C,2.600000*%
%TD*%
%TA.AperFunction,SMDPad,CuDef*%
%ADD30R,3.850000X2.500000*%
%TD*%
%TA.AperFunction,SMDPad,CuDef*%
%ADD31RoundRect,0.250000X-1.100000X0.325000X-1.100000X-0.325000X1.100000X-0.325000X1.100000X0.325000X0*%
%TD*%
%TA.AperFunction,SMDPad,CuDef*%
%ADD32RoundRect,0.200000X0.200000X0.275000X-0.200000X0.275000X-0.200000X-0.275000X0.200000X-0.275000X0*%
%TD*%
%TA.AperFunction,SMDPad,CuDef*%
%ADD33R,0.800000X0.700000*%
%TD*%
%TA.AperFunction,SMDPad,CuDef*%
%ADD34R,0.680000X0.700000*%
%TD*%
%TA.AperFunction,SMDPad,CuDef*%
%ADD35R,4.320000X4.510000*%
%TD*%
%TA.AperFunction,SMDPad,CuDef*%
%ADD36R,0.990600X2.997200*%
%TD*%
%TA.AperFunction,SMDPad,CuDef*%
%ADD37R,10.337800X8.712200*%
%TD*%
%TA.AperFunction,SMDPad,CuDef*%
%ADD38R,0.300000X0.650000*%
%TD*%
%TA.AperFunction,SMDPad,CuDef*%
%ADD39R,2.750000X1.100000*%
%TD*%
%TA.AperFunction,ViaPad*%
%ADD40C,0.800000*%
%TD*%
%TA.AperFunction,ViaPad*%
%ADD41C,3.000000*%
%TD*%
%TA.AperFunction,ViaPad*%
%ADD42C,2.000000*%
%TD*%
%TA.AperFunction,Conductor*%
%ADD43C,1.200000*%
%TD*%
%TA.AperFunction,Conductor*%
%ADD44C,0.250000*%
%TD*%
%TA.AperFunction,Conductor*%
%ADD45C,1.500000*%
%TD*%
%TA.AperFunction,Conductor*%
%ADD46C,1.100000*%
%TD*%
%TA.AperFunction,Conductor*%
%ADD47C,4.000000*%
%TD*%
G04 APERTURE END LIST*
D10*
%TO.P,M2,1*%
%TO.N,GND*%
X107000000Y-55000000D03*
%TD*%
%TO.P,M1,1*%
%TO.N,GND*%
X55000000Y-55000000D03*
%TD*%
%TO.P,M5,1*%
%TO.N,GND*%
X55000000Y-162000000D03*
%TD*%
%TO.P,M4,1*%
%TO.N,GND*%
X165000000Y-162000000D03*
%TD*%
%TO.P,M3,1*%
%TO.N,GND*%
X165000000Y-115000000D03*
%TD*%
D11*
%TO.P,R11,1*%
%TO.N,RST_out*%
X91014000Y-89664000D03*
%TO.P,R11,2*%
%TO.N,GND*%
X92664000Y-89664000D03*
%TD*%
D12*
%TO.P,R6,1*%
%TO.N,Net-(Q1-Pad1)*%
X123020000Y-81352900D03*
%TO.P,R6,2*%
%TO.N,Net-(R6-Pad2)*%
X123020000Y-79702900D03*
%TD*%
D13*
%TO.P,J6,1,Pin_1*%
%TO.N,EM_12V*%
X85479000Y-62400000D03*
D14*
%TO.P,J6,2,Pin_2*%
%TO.N,GND*%
X85479000Y-65400000D03*
%TO.P,J6,3,Pin_3*%
%TO.N,CANH_EM*%
X85479000Y-68400000D03*
%TO.P,J6,4,Pin_4*%
%TO.N,CANL_EM*%
X85479000Y-71400000D03*
%TO.P,J6,5,Pin_5*%
%TO.N,BSPDTest_in*%
X85479000Y-74400000D03*
%TO.P,J6,6,Pin_6*%
%TO.N,BSPDTest_out*%
X85479000Y-77400000D03*
%TO.P,J6,7,Pin_7*%
%TO.N,VCUWake_out*%
X85479000Y-80400000D03*
%TO.P,J6,8,Pin_8*%
%TO.N,SEPIC_out*%
X85479000Y-83400000D03*
%TO.P,J6,9,Pin_9*%
X85479000Y-86400000D03*
%TO.P,J6,10,Pin_10*%
%TO.N,RST_out*%
X85479000Y-89400000D03*
%TO.P,J6,11,Pin_11*%
%TO.N,CHRG_in*%
X82479000Y-62400000D03*
%TO.P,J6,12,Pin_12*%
%TO.N,SHDN2_out*%
X82479000Y-65400000D03*
%TO.P,J6,13,Pin_13*%
%TO.N,SHDN2_in*%
X82479000Y-68400000D03*
%TO.P,J6,14,Pin_14*%
%TO.N,CANH_VCU1*%
X82479000Y-71400000D03*
%TO.P,J6,15,Pin_15*%
%TO.N,CANL_VCU1*%
X82479000Y-74400000D03*
%TO.P,J6,16,Pin_16*%
%TO.N,GND*%
X82479000Y-77400000D03*
%TO.P,J6,17,Pin_17*%
X82479000Y-80400000D03*
%TO.P,J6,18,Pin_18*%
X82479000Y-83400000D03*
%TO.P,J6,19,Pin_19*%
X82479000Y-86400000D03*
%TO.P,J6,20,Pin_20*%
X82479000Y-89400000D03*
%TD*%
D13*
%TO.P,J3,1,Pin_1*%
%TO.N,GND*%
X78271000Y-100788000D03*
D14*
%TO.P,J3,2,Pin_2*%
%TO.N,LV_mastersw_out*%
X78271000Y-103788000D03*
%TO.P,J3,3,Pin_3*%
X78271000Y-106788000D03*
%TO.P,J3,4,Pin_4*%
X78271000Y-109788000D03*
%TO.P,J3,5,Pin_5*%
X78271000Y-112788000D03*
%TO.P,J3,6,Pin_6*%
X78271000Y-115788000D03*
%TO.P,J3,7,Pin_7*%
%TO.N,TSALSafe_pt*%
X78271000Y-118788000D03*
%TO.P,J3,8,Pin_8*%
%TO.N,TSALEnergized_pt*%
X78271000Y-121788000D03*
%TO.P,J3,9,Pin_9*%
%TO.N,CANH_VCU1*%
X78271000Y-124788000D03*
%TO.P,J3,10,Pin_10*%
%TO.N,CANL_VCU1*%
X78271000Y-127788000D03*
%TO.P,J3,11,Pin_11*%
%TO.N,CANH_VCU2*%
X78271000Y-130788000D03*
%TO.P,J3,12,Pin_12*%
%TO.N,CANL_VCU2*%
X78271000Y-133788000D03*
%TO.P,J3,13,Pin_13*%
%TO.N,CANH_VCU3*%
X75271000Y-100788000D03*
%TO.P,J3,14,Pin_14*%
%TO.N,CANL_VCU3*%
X75271000Y-103788000D03*
%TO.P,J3,15,Pin_15*%
%TO.N,CANH_VCU4*%
X75271000Y-106788000D03*
%TO.P,J3,16,Pin_16*%
%TO.N,CANL_VCU4*%
X75271000Y-109788000D03*
%TO.P,J3,17,Pin_17*%
%TO.N,CANH_ret_VCU2*%
X75271000Y-112788000D03*
%TO.P,J3,18,Pin_18*%
%TO.N,CANL_ret_VCU2*%
X75271000Y-115788000D03*
%TO.P,J3,19,Pin_19*%
%TO.N,CANH_ret_VCU3*%
X75271000Y-118788000D03*
%TO.P,J3,20,Pin_20*%
%TO.N,CANL_ret_VCU3*%
X75271000Y-121788000D03*
%TO.P,J3,21,Pin_21*%
%TO.N,CANH_Tel*%
X75271000Y-124788000D03*
%TO.P,J3,22,Pin_22*%
%TO.N,CANL_Tel*%
X75271000Y-127788000D03*
%TO.P,J3,23,Pin_23*%
%TO.N,CANH_ret_Tel*%
X75271000Y-130788000D03*
%TO.P,J3,24,Pin_24*%
%TO.N,CANL_ret_Tel*%
X75271000Y-133788000D03*
%TD*%
D15*
%TO.P,J2,1,Pin_1*%
%TO.N,GND*%
X120671000Y-135465000D03*
D14*
%TO.P,J2,2,Pin_2*%
%TO.N,CANL_ret_VCU2*%
X123671000Y-135465000D03*
%TO.P,J2,3,Pin_3*%
%TO.N,CANH_ret_VCU2*%
X126671000Y-135465000D03*
%TO.P,J2,4,Pin_4*%
%TO.N,CANL_VCU3*%
X129671000Y-135465000D03*
%TO.P,J2,5,Pin_5*%
%TO.N,CANH_VCU3*%
X132671000Y-135465000D03*
%TO.P,J2,6,Pin_6*%
%TO.N,BSPDTest_out*%
X135671000Y-135465000D03*
%TO.P,J2,7,Pin_7*%
%TO.N,BSPDTest_in*%
X138671000Y-135465000D03*
%TO.P,J2,8,Pin_8*%
%TO.N,CANL_EM*%
X141671000Y-135465000D03*
%TO.P,J2,9,Pin_9*%
%TO.N,CANH_EM*%
X144671000Y-135465000D03*
%TO.P,J2,10,Pin_10*%
%TO.N,CHRG_in*%
X147671000Y-135465000D03*
%TO.P,J2,11,Pin_11*%
%TO.N,CANL_ret_VCU3*%
X120671000Y-138465000D03*
%TO.P,J2,12,Pin_12*%
%TO.N,CANH_ret_VCU3*%
X123671000Y-138465000D03*
%TO.P,J2,13,Pin_13*%
%TO.N,CANL_VCU4*%
X126671000Y-138465000D03*
%TO.P,J2,14,Pin_14*%
%TO.N,CANH_VCU4*%
X129671000Y-138465000D03*
%TO.P,J2,15,Pin_15*%
%TO.N,RST_out*%
X132671000Y-138465000D03*
%TO.P,J2,16,Pin_16*%
%TO.N,VCUWake_out*%
X135671000Y-138465000D03*
%TO.P,J2,17,Pin_17*%
%TO.N,CANL_VCU1*%
X138671000Y-138465000D03*
%TO.P,J2,18,Pin_18*%
%TO.N,CANH_VCU1*%
X141671000Y-138465000D03*
%TO.P,J2,19,Pin_19*%
%TO.N,SHDN2_in*%
X144671000Y-138465000D03*
%TO.P,J2,20,Pin_20*%
%TO.N,SHDN2_out*%
X147671000Y-138465000D03*
%TD*%
D16*
%TO.P,D11,1,K*%
%TO.N,LVBAT_sw*%
X110371000Y-125928000D03*
D17*
%TO.P,D11,2,A*%
%TO.N,BYP_out*%
X99933000Y-123388000D03*
X99933000Y-128468000D03*
%TD*%
D18*
%TO.P,C5,1*%
%TO.N,/SEPIC/COMP*%
X131346000Y-89855900D03*
%TO.P,C5,2*%
%TO.N,GND*%
X132896000Y-89855900D03*
%TD*%
D11*
%TO.P,R10,1*%
%TO.N,CHRG_in*%
X90403000Y-59788000D03*
%TO.P,R10,2*%
%TO.N,GND*%
X92053000Y-59788000D03*
%TD*%
D19*
%TO.P,C9,1*%
%TO.N,GND*%
X126709000Y-91164000D03*
%TO.P,C9,2*%
%TO.N,Net-(C9-Pad2)*%
X124809000Y-91164000D03*
%TD*%
D20*
%TO.P,C4,1*%
%TO.N,LV_mastersw_out*%
X126609000Y-96197900D03*
%TO.P,C4,2*%
%TO.N,GND*%
X126609000Y-93247900D03*
%TD*%
D15*
%TO.P,J7,1,Pin_1*%
%TO.N,HV+*%
X140254715Y-118682034D03*
D14*
%TO.P,J7,2,Pin_2*%
%TO.N,HV-*%
X143254715Y-118682034D03*
%TO.P,J7,3,Pin_3*%
%TO.N,Net-(J7-Pad3)*%
X140254715Y-121682034D03*
%TO.P,J7,4,Pin_4*%
%TO.N,Net-(J7-Pad4)*%
X143254715Y-121682034D03*
%TD*%
D21*
%TO.P,R9,1*%
%TO.N,/SEPIC/FB*%
X118553000Y-71245900D03*
%TO.P,R9,2*%
%TO.N,GND*%
X118553000Y-72895900D03*
%TD*%
%TO.P,R12,1*%
%TO.N,BYP_out*%
X94669000Y-129119000D03*
%TO.P,R12,2*%
%TO.N,GND*%
X94669000Y-130769000D03*
%TD*%
D12*
%TO.P,R5,1*%
%TO.N,Net-(Q1-Pad1)*%
X125337000Y-81352900D03*
%TO.P,R5,2*%
%TO.N,Net-(C10-Pad2)*%
X125337000Y-79702900D03*
%TD*%
D21*
%TO.P,R8,1*%
%TO.N,SEPIC_out*%
X118553000Y-67853900D03*
%TO.P,R8,2*%
%TO.N,/SEPIC/FB*%
X118553000Y-69503900D03*
%TD*%
D20*
%TO.P,C1,1*%
%TO.N,LV_mastersw_out*%
X134241000Y-96197900D03*
%TO.P,C1,2*%
%TO.N,GND*%
X134241000Y-93247900D03*
%TD*%
D15*
%TO.P,J1,1,Pin_1*%
%TO.N,LV_mastersw_out*%
X85415000Y-135465000D03*
D14*
%TO.P,J1,2,Pin_2*%
X88415000Y-135465000D03*
%TO.P,J1,3,Pin_3*%
X91415000Y-135465000D03*
%TO.P,J1,4,Pin_4*%
X94415000Y-135465000D03*
%TO.P,J1,5,Pin_5*%
X97415000Y-135465000D03*
%TO.P,J1,6,Pin_6*%
%TO.N,LVBAT_in*%
X100415000Y-135465000D03*
%TO.P,J1,7,Pin_7*%
X103415000Y-135465000D03*
%TO.P,J1,8,Pin_8*%
X106415000Y-135465000D03*
%TO.P,J1,9,Pin_9*%
X109415000Y-135465000D03*
%TO.P,J1,10,Pin_10*%
X112415000Y-135465000D03*
%TO.P,J1,11,Pin_11*%
%TO.N,LV_mastersw_out*%
X85415000Y-138465000D03*
%TO.P,J1,12,Pin_12*%
%TO.N,CANL_VCU2*%
X88415000Y-138465000D03*
%TO.P,J1,13,Pin_13*%
%TO.N,CANH_VCU2*%
X91415000Y-138465000D03*
%TO.P,J1,14,Pin_14*%
%TO.N,CANL_ret_Tel*%
X94415000Y-138465000D03*
%TO.P,J1,15,Pin_15*%
%TO.N,CANH_ret_Tel*%
X97415000Y-138465000D03*
%TO.P,J1,16,Pin_16*%
%TO.N,BYP_out*%
X100415000Y-138465000D03*
%TO.P,J1,17,Pin_17*%
%TO.N,CANL_Tel*%
X103415000Y-138465000D03*
%TO.P,J1,18,Pin_18*%
%TO.N,CANH_Tel*%
X106415000Y-138465000D03*
%TO.P,J1,19,Pin_19*%
%TO.N,TSALEnergized_pt*%
X109415000Y-138465000D03*
%TO.P,J1,20,Pin_20*%
%TO.N,TSALSafe_pt*%
X112415000Y-138465000D03*
%TD*%
D22*
%TO.P,C11,1*%
%TO.N,Net-(C11-Pad1)*%
X108273000Y-81836000D03*
%TO.P,C11,2*%
%TO.N,Net-(C11-Pad2)*%
X110173000Y-81836000D03*
%TD*%
D23*
%TO.P,C3,1*%
%TO.N,/SEPIC/UVLO*%
X119825000Y-92823900D03*
%TO.P,C3,2*%
%TO.N,GND*%
X119825000Y-91273900D03*
%TD*%
D24*
%TO.P,C10,1*%
%TO.N,GND*%
X125342877Y-75724688D03*
%TO.P,C10,2*%
%TO.N,Net-(C10-Pad2)*%
X125342877Y-77274688D03*
%TD*%
D25*
%TO.P,R13,1*%
%TO.N,Net-(J7-Pad4)*%
X151260126Y-123770369D03*
%TO.P,R13,2*%
%TO.N,HV-*%
X151260126Y-113770369D03*
%TD*%
D12*
%TO.P,R1,1*%
%TO.N,/SEPIC/UVLO*%
X122793000Y-92800900D03*
%TO.P,R1,2*%
%TO.N,GND*%
X122793000Y-91150900D03*
%TD*%
D26*
%TO.P,JP1,1,A*%
%TO.N,SEPIC_out*%
X91846000Y-63180000D03*
D27*
%TO.P,JP1,2,B*%
%TO.N,EM_12V*%
X90546000Y-63180000D03*
%TD*%
D28*
%TO.P,J5,1,Pin_1*%
%TO.N,GND*%
X98199000Y-101340000D03*
D29*
%TO.P,J5,2,Pin_2*%
%TO.N,LV_mastersw_out*%
X98199000Y-106420000D03*
%TO.P,J5,3,Pin_3*%
X98199000Y-111500000D03*
%TO.P,J5,4,Pin_4*%
%TO.N,BYP_out*%
X98199000Y-116580000D03*
%TD*%
D30*
%TO.P,L1,1,1*%
%TO.N,LV_mastersw_out*%
X115445000Y-91816000D03*
%TO.P,L1,2,2*%
%TO.N,Net-(C11-Pad2)*%
X115445000Y-88816000D03*
%TO.P,L1,3,3*%
%TO.N,GND*%
X105545000Y-88816000D03*
%TO.P,L1,4,4*%
%TO.N,Net-(C11-Pad1)*%
X105545000Y-91816000D03*
%TD*%
D12*
%TO.P,R7,1*%
%TO.N,Net-(R6-Pad2)*%
X123020000Y-77342900D03*
%TO.P,R7,2*%
%TO.N,GND*%
X123020000Y-75692900D03*
%TD*%
D25*
%TO.P,R14,1*%
%TO.N,Net-(J7-Pad3)*%
X132311215Y-123663534D03*
%TO.P,R14,2*%
%TO.N,HV+*%
X132311215Y-113663534D03*
%TD*%
D21*
%TO.P,R4,1*%
%TO.N,Net-(C8-Pad2)*%
X135089000Y-87758900D03*
%TO.P,R4,2*%
%TO.N,GND*%
X135089000Y-89408900D03*
%TD*%
D31*
%TO.P,C12,1*%
%TO.N,SEPIC_out*%
X115585000Y-68028900D03*
%TO.P,C12,2*%
%TO.N,GND*%
X115585000Y-70978900D03*
%TD*%
D12*
%TO.P,R2,1*%
%TO.N,LV_mastersw_out*%
X122793000Y-96192900D03*
%TO.P,R2,2*%
%TO.N,/SEPIC/UVLO*%
X122793000Y-94542900D03*
%TD*%
D32*
%TO.P,R3,1*%
%TO.N,GND*%
X129577000Y-82684000D03*
%TO.P,R3,2*%
%TO.N,/SEPIC/RT*%
X127927000Y-82684000D03*
%TD*%
D20*
%TO.P,C2,1*%
%TO.N,LV_mastersw_out*%
X130425000Y-96197900D03*
%TO.P,C2,2*%
%TO.N,GND*%
X130425000Y-93247900D03*
%TD*%
D33*
%TO.P,Q1,1,S_1*%
%TO.N,Net-(Q1-Pad1)*%
X119872000Y-80312900D03*
%TO.P,Q1,2,S_2*%
X119872000Y-79042900D03*
%TO.P,Q1,3,S_3*%
X119872000Y-77772900D03*
%TO.P,Q1,4,G*%
%TO.N,Net-(IC1-Pad3)*%
X119872000Y-76502900D03*
D34*
%TO.P,Q1,5,D_1*%
%TO.N,Net-(C11-Pad2)*%
X114357000Y-76502900D03*
%TO.P,Q1,6,D_2*%
X114357000Y-77772900D03*
%TO.P,Q1,7,D_3*%
X114357000Y-79042900D03*
%TO.P,Q1,8,D_4*%
X114357000Y-80312900D03*
D35*
%TO.P,Q1,9*%
X116857000Y-78407900D03*
%TD*%
D18*
%TO.P,C8,1*%
%TO.N,/SEPIC/COMP*%
X131346000Y-87735900D03*
%TO.P,C8,2*%
%TO.N,Net-(C8-Pad2)*%
X132896000Y-87735900D03*
%TD*%
D36*
%TO.P,D1,1,1*%
%TO.N,Net-(C11-Pad1)*%
X104989000Y-78266900D03*
%TO.P,D1,2,2*%
%TO.N,unconnected-(D1-Pad2)*%
X110069000Y-78266900D03*
D37*
%TO.P,D1,3,3*%
%TO.N,SEPIC_out*%
X107529000Y-67256000D03*
%TD*%
D38*
%TO.P,IC1,1,BIAS*%
%TO.N,LV_mastersw_out*%
X124935000Y-87513900D03*
%TO.P,IC1,2,VCC*%
%TO.N,Net-(C9-Pad2)*%
X125435000Y-87513900D03*
%TO.P,IC1,3,GATE*%
%TO.N,Net-(IC1-Pad3)*%
X125935000Y-87513900D03*
%TO.P,IC1,4,PGND*%
%TO.N,GND*%
X126435000Y-87513900D03*
%TO.P,IC1,5,CS*%
%TO.N,Net-(C10-Pad2)*%
X126935000Y-87513900D03*
%TO.P,IC1,6,COMP*%
%TO.N,/SEPIC/COMP*%
X127435000Y-87513900D03*
%TO.P,IC1,7,AGND*%
%TO.N,GND*%
X127435000Y-85413900D03*
%TO.P,IC1,8,FB*%
%TO.N,/SEPIC/FB*%
X126935000Y-85413900D03*
%TO.P,IC1,9,SS*%
%TO.N,/SEPIC/SS*%
X126435000Y-85413900D03*
%TO.P,IC1,10,RT*%
%TO.N,/SEPIC/RT*%
X125935000Y-85413900D03*
%TO.P,IC1,11,PGOOD*%
%TO.N,unconnected-(IC1-Pad11)*%
X125435000Y-85413900D03*
%TO.P,IC1,12,UVLO/SYNC*%
%TO.N,/SEPIC/UVLO*%
X124935000Y-85413900D03*
D39*
%TO.P,IC1,13,EP*%
%TO.N,GND*%
X126185000Y-86463900D03*
%TD*%
D23*
%TO.P,C6,1*%
%TO.N,LV_mastersw_out*%
X119825000Y-96215900D03*
%TO.P,C6,2*%
%TO.N,GND*%
X119825000Y-94665900D03*
%TD*%
%TO.P,C7,1*%
%TO.N,/SEPIC/SS*%
X131296000Y-84307000D03*
%TO.P,C7,2*%
%TO.N,GND*%
X131296000Y-82757000D03*
%TD*%
D28*
%TO.P,J4,1,Pin_1*%
%TO.N,LVBAT_sw*%
X111219000Y-116592000D03*
D29*
%TO.P,J4,2,Pin_2*%
X111219000Y-111512000D03*
%TO.P,J4,3,Pin_3*%
%TO.N,LVBAT_in*%
X111219000Y-106432000D03*
%TO.P,J4,4,Pin_4*%
X111219000Y-101352000D03*
%TD*%
D40*
%TO.N,GND*%
X93704000Y-57240000D03*
D41*
X68688000Y-89040000D03*
X68688000Y-93280000D03*
X64872000Y-92432000D03*
X64872000Y-96672000D03*
X130168000Y-75896000D03*
X134408000Y-80136000D03*
D40*
%TO.N,Net-(IC1-Pad3)*%
X120671000Y-75052000D03*
X126229344Y-89388542D03*
%TO.N,GND*%
X103149000Y-131216000D03*
X97213000Y-131640000D03*
%TO.N,Net-(C10-Pad2)*%
X128303000Y-78868000D03*
X127879000Y-88620000D03*
%TO.N,/SEPIC/FB*%
X121095000Y-70388000D03*
X127455000Y-84380000D03*
%TO.N,RST_out*%
X76013000Y-90936000D03*
D42*
%TO.N,BYP_out*%
X98199000Y-120844000D03*
X94383000Y-125932000D03*
X98199000Y-125932000D03*
X94383000Y-116604000D03*
X102015000Y-116604000D03*
X94383000Y-120844000D03*
X102015000Y-120844000D03*
X102015000Y-125932000D03*
D40*
%TO.N,CANL_VCU1*%
X66399000Y-155010500D03*
%TO.N,CANH_VCU1*%
X64279000Y-154162500D03*
D42*
%TO.N,LV_mastersw_out*%
X90567000Y-122540000D03*
X87599000Y-122540000D03*
X89295000Y-125508000D03*
X94259000Y-106416000D03*
D40*
X124063000Y-88620000D03*
D42*
X83359000Y-106820000D03*
X86327000Y-131444000D03*
X115159000Y-95828000D03*
X89295000Y-114060000D03*
X85055000Y-109168000D03*
X84917000Y-104276000D03*
X84631000Y-122540000D03*
X90567000Y-128476000D03*
X102015000Y-111516000D03*
X85903000Y-125508000D03*
X89719000Y-131444000D03*
X94383000Y-111516000D03*
X88447000Y-109168000D03*
X101891000Y-106416000D03*
X82087000Y-114060000D03*
X86751000Y-106820000D03*
X85903000Y-119572000D03*
X84631000Y-128476000D03*
X87599000Y-128476000D03*
X81663000Y-109168000D03*
X85479000Y-114060000D03*
X81525000Y-104276000D03*
D40*
X124487000Y-97524000D03*
D42*
X91733317Y-109216467D03*
X89295000Y-119572000D03*
D40*
%TO.N,BSPDTest_in*%
X76861000Y-72704000D03*
%TO.N,BSPDTest_out*%
X76861000Y-73976000D03*
%TD*%
D43*
%TO.N,Net-(Q1-Pad1)*%
X119917000Y-80357900D02*
X119917000Y-78000000D01*
D44*
%TO.N,LV_mastersw_out*%
X124885000Y-87798000D02*
X124885000Y-87513900D01*
X124063000Y-88620000D02*
X124885000Y-87798000D01*
%TO.N,/SEPIC/UVLO*%
X121943000Y-86076000D02*
X121943000Y-91950900D01*
X122605100Y-85413900D02*
X121943000Y-86076000D01*
X121943000Y-91950900D02*
X122793000Y-92800900D01*
X124935000Y-85413900D02*
X122605100Y-85413900D01*
%TO.N,/SEPIC/SS*%
X127029000Y-83534000D02*
X130523000Y-83534000D01*
X130523000Y-83534000D02*
X131296000Y-84307000D01*
X126435000Y-84128000D02*
X127029000Y-83534000D01*
X126435000Y-85413900D02*
X126435000Y-84128000D01*
%TO.N,TSALSafe_pt*%
X75947945Y-122927037D02*
X76566866Y-122308116D01*
X73384963Y-122927037D02*
X75947945Y-122927037D01*
%TO.N,TSALEnergized_pt*%
X69791000Y-140594500D02*
X76151000Y-146954500D01*
X76151000Y-146954500D02*
X100925500Y-146954500D01*
X69791000Y-127793000D02*
X69791000Y-140594500D01*
X100925500Y-146954500D02*
X109415000Y-138465000D01*
X73934692Y-123649308D02*
X69791000Y-127793000D01*
X76409692Y-123649308D02*
X73934692Y-123649308D01*
X78271000Y-121788000D02*
X76409692Y-123649308D01*
%TO.N,BSPDTest_out*%
X59615000Y-145682500D02*
X59615000Y-90138500D01*
X75777500Y-73976000D02*
X76861000Y-73976000D01*
X136818339Y-142995661D02*
X122683500Y-157130500D01*
X136818339Y-136612339D02*
X136818339Y-142995661D01*
X122683500Y-157130500D02*
X71063000Y-157130500D01*
X59615000Y-90138500D02*
X75777500Y-73976000D01*
X135671000Y-135465000D02*
X136818339Y-136612339D01*
X71063000Y-157130500D02*
X59615000Y-145682500D01*
%TO.N,BSPDTest_in*%
X137376000Y-136760000D02*
X137376000Y-143817500D01*
X138671000Y-135465000D02*
X137376000Y-136760000D01*
%TO.N,CANL_EM*%
X142796000Y-136590000D02*
X141671000Y-135465000D01*
X142796000Y-139164000D02*
X142796000Y-136590000D01*
X140125000Y-141835000D02*
X142796000Y-139164000D01*
X140125000Y-147240000D02*
X140125000Y-141835000D01*
X69367000Y-160522500D02*
X126842500Y-160522500D01*
X56223000Y-147378500D02*
X69367000Y-160522500D01*
X56223000Y-88442500D02*
X56223000Y-147378500D01*
X74390895Y-70274605D02*
X56223000Y-88442500D01*
X84353605Y-70274605D02*
X74390895Y-70274605D01*
X126842500Y-160522500D02*
X140125000Y-147240000D01*
X85479000Y-71400000D02*
X84353605Y-70274605D01*
%TO.N,CANH_EM*%
X143296000Y-136840000D02*
X144671000Y-135465000D01*
X143296000Y-139619500D02*
X143296000Y-136840000D01*
X140625000Y-142290500D02*
X143296000Y-139619500D01*
X127031000Y-161370500D02*
X140625000Y-147776500D01*
X140625000Y-147776500D02*
X140625000Y-142290500D01*
X68943000Y-161370500D02*
X127031000Y-161370500D01*
X55375000Y-88018500D02*
X55375000Y-147802500D01*
X84104395Y-69774605D02*
X73618895Y-69774605D01*
X85479000Y-68400000D02*
X84104395Y-69774605D01*
X73618895Y-69774605D02*
X55375000Y-88018500D01*
X55375000Y-147802500D02*
X68943000Y-161370500D01*
%TO.N,CANL_VCU1*%
X57919000Y-146530500D02*
X66399000Y-155010500D01*
X57919000Y-89209000D02*
X57919000Y-146530500D01*
X80008000Y-71929000D02*
X75199000Y-71929000D01*
X82479000Y-74400000D02*
X80008000Y-71929000D01*
X75199000Y-71929000D02*
X57919000Y-89209000D01*
%TO.N,TSALSafe_pt*%
X103077500Y-147802500D02*
X112415000Y-138465000D01*
X73384963Y-122927037D02*
X68943000Y-127369000D01*
X68943000Y-127369000D02*
X68943000Y-141018500D01*
X68943000Y-141018500D02*
X75727000Y-147802500D01*
X75727000Y-147802500D02*
X103077500Y-147802500D01*
X76566866Y-120492134D02*
X76566866Y-122308116D01*
X78271000Y-118788000D02*
X76566866Y-120492134D01*
%TO.N,CANL_ret_VCU3*%
X68095000Y-141442500D02*
X75303000Y-148650500D01*
X75303000Y-148650500D02*
X110485500Y-148650500D01*
X110485500Y-148650500D02*
X120671000Y-138465000D01*
X68095000Y-126945000D02*
X68095000Y-141442500D01*
X73252000Y-121788000D02*
X68095000Y-126945000D01*
X75271000Y-121788000D02*
X73252000Y-121788000D01*
%TO.N,CANH_VCU1*%
X69791000Y-159674500D02*
X64279000Y-154162500D01*
X124487000Y-159674500D02*
X69791000Y-159674500D01*
X139496000Y-140640000D02*
X139496000Y-144665500D01*
X139496000Y-144665500D02*
X124487000Y-159674500D01*
X141671000Y-138465000D02*
X139496000Y-140640000D01*
%TO.N,BSPDTest_in*%
X70639000Y-157978500D02*
X58767000Y-146106500D01*
X58767000Y-89714500D02*
X75777500Y-72704000D01*
X123215000Y-157978500D02*
X70639000Y-157978500D01*
X75777500Y-72704000D02*
X76861000Y-72704000D01*
X137376000Y-143817500D02*
X123215000Y-157978500D01*
X58767000Y-146106500D02*
X58767000Y-89714500D01*
%TO.N,CANL_ret_VCU2*%
X125004000Y-142540000D02*
X125004000Y-136798000D01*
X125004000Y-136798000D02*
X123671000Y-135465000D01*
%TO.N,CANH_ret_VCU2*%
X65551000Y-122508000D02*
X75271000Y-112788000D01*
X65551000Y-142714500D02*
X65551000Y-122508000D01*
X125504000Y-143393500D02*
X117703000Y-151194500D01*
X74031000Y-151194500D02*
X65551000Y-142714500D01*
X125504000Y-136632000D02*
X125504000Y-143393500D01*
X117703000Y-151194500D02*
X74031000Y-151194500D01*
X126671000Y-135465000D02*
X125504000Y-136632000D01*
%TO.N,CANH_VCU3*%
X62159000Y-144410500D02*
X62159000Y-113900000D01*
X131325047Y-143508453D02*
X120247000Y-154586500D01*
X131325047Y-136810953D02*
X131325047Y-143508453D01*
X120247000Y-154586500D02*
X72335000Y-154586500D01*
X72335000Y-154586500D02*
X62159000Y-144410500D01*
X132671000Y-135465000D02*
X131325047Y-136810953D01*
X62159000Y-113900000D02*
X75271000Y-100788000D01*
%TO.N,CANL_VCU3*%
X130825047Y-136619047D02*
X130825047Y-143021194D01*
%TO.N,CANL_ret_VCU2*%
X74455000Y-150346500D02*
X117197500Y-150346500D01*
X66399000Y-142290500D02*
X74455000Y-150346500D01*
X117197500Y-150346500D02*
X125004000Y-142540000D01*
X66399000Y-124660000D02*
X66399000Y-142290500D01*
X75271000Y-115788000D02*
X66399000Y-124660000D01*
%TO.N,GND*%
X92053000Y-58891000D02*
X93704000Y-57240000D01*
X92053000Y-59788000D02*
X92053000Y-58891000D01*
D45*
%TO.N,SHDN2_out*%
X64001500Y-65400000D02*
X82479000Y-65400000D01*
X52000000Y-77401500D02*
X64001500Y-65400000D01*
X52000000Y-149200471D02*
X52000000Y-77401500D01*
X67545028Y-164745500D02*
X52000000Y-149200471D01*
X128522927Y-164745500D02*
X67545028Y-164745500D01*
X147671000Y-145597428D02*
X128522927Y-164745500D01*
X147671000Y-138465000D02*
X147671000Y-145597428D01*
%TO.N,SHDN2_in*%
X144671000Y-145769000D02*
X144671000Y-138465000D01*
X127694500Y-162745500D02*
X144671000Y-145769000D01*
X68373456Y-162745500D02*
X127694500Y-162745500D01*
X54000000Y-148372044D02*
X68373456Y-162745500D01*
X54000000Y-79641500D02*
X54000000Y-148372044D01*
X65241500Y-68400000D02*
X54000000Y-79641500D01*
X82479000Y-68400000D02*
X65241500Y-68400000D01*
%TO.N,GND*%
X134800500Y-101304500D02*
X134777000Y-101328000D01*
D44*
%TO.N,Net-(C9-Pad2)*%
X125435000Y-87513900D02*
X125435000Y-90538000D01*
X125435000Y-90538000D02*
X124809000Y-91164000D01*
%TO.N,Net-(IC1-Pad3)*%
X125935000Y-87513900D02*
X125935000Y-89167072D01*
X119872000Y-76502900D02*
X119872000Y-75851000D01*
X125935000Y-89167072D02*
X126229344Y-89388542D01*
X119872000Y-75851000D02*
X120671000Y-75052000D01*
%TO.N,GND*%
X127010000Y-86463900D02*
X126185000Y-86463900D01*
X127435000Y-86038900D02*
X127010000Y-86463900D01*
X97213000Y-131640000D02*
X95540000Y-131640000D01*
X103149000Y-131216000D02*
X105269000Y-133336000D01*
X105269000Y-133336000D02*
X118542000Y-133336000D01*
D45*
X120671000Y-103324000D02*
X120671000Y-135465000D01*
D44*
X95540000Y-131640000D02*
X94669000Y-130769000D01*
D45*
X137931000Y-98174000D02*
X134800500Y-101304500D01*
D44*
X118542000Y-133336000D02*
X120671000Y-135465000D01*
D45*
X137931000Y-98174000D02*
X137931000Y-84080000D01*
D44*
X127435000Y-85413900D02*
X127435000Y-86038900D01*
X126435000Y-87513900D02*
X126435000Y-86713900D01*
X126435000Y-86713900D02*
X126185000Y-86463900D01*
D45*
X134777000Y-101328000D02*
X122667000Y-101328000D01*
X122667000Y-101328000D02*
X120671000Y-103324000D01*
D44*
%TO.N,Net-(C10-Pad2)*%
X125342877Y-79697023D02*
X125337000Y-79702900D01*
X126935000Y-88138900D02*
X127416100Y-88620000D01*
X128303000Y-78868000D02*
X126171900Y-78868000D01*
X125342877Y-77274688D02*
X125342877Y-79697023D01*
X126935000Y-87513900D02*
X126935000Y-88138900D01*
X126171900Y-78868000D02*
X125337000Y-79702900D01*
X127416100Y-88620000D02*
X127879000Y-88620000D01*
%TO.N,/SEPIC/COMP*%
X131346000Y-89855900D02*
X131346000Y-87735900D01*
X131346000Y-87735900D02*
X131124000Y-87513900D01*
X131124000Y-87513900D02*
X127435000Y-87513900D01*
%TO.N,/SEPIC/FB*%
X127393900Y-84380000D02*
X127455000Y-84380000D01*
X126935000Y-84838900D02*
X127393900Y-84380000D01*
X126935000Y-85413900D02*
X126935000Y-84838900D01*
X118553000Y-71245900D02*
X118553000Y-69503900D01*
X121095000Y-70388000D02*
X119410900Y-70388000D01*
X119410900Y-70388000D02*
X118553000Y-71245900D01*
%TO.N,/SEPIC/RT*%
X125935000Y-83780000D02*
X127031000Y-82684000D01*
X127031000Y-82684000D02*
X127927000Y-82684000D01*
X125935000Y-85413900D02*
X125935000Y-83780000D01*
%TO.N,/SEPIC/UVLO*%
X119825000Y-92823900D02*
X122770000Y-92823900D01*
X122770000Y-92823900D02*
X122793000Y-92800900D01*
X122793000Y-94542900D02*
X122793000Y-92800900D01*
%TO.N,SEPIC_out*%
X115760000Y-67853900D02*
X115585000Y-68028900D01*
X118553000Y-67853900D02*
X115760000Y-67853900D01*
D45*
X115585000Y-68028900D02*
X108301900Y-68028900D01*
X108301900Y-68028900D02*
X107529000Y-67256000D01*
D43*
%TO.N,Net-(Q1-Pad1)*%
X120912000Y-81352900D02*
X119917000Y-80357900D01*
X123020000Y-81352900D02*
X120912000Y-81352900D01*
X125337000Y-81352900D02*
X123020000Y-81352900D01*
D44*
%TO.N,RST_out*%
X61311000Y-144834500D02*
X61311000Y-105638000D01*
X71911000Y-155434500D02*
X61311000Y-144834500D01*
X91014000Y-89664000D02*
X90750000Y-89400000D01*
X120906500Y-155434500D02*
X71911000Y-155434500D01*
X132671000Y-143670000D02*
X120906500Y-155434500D01*
X132671000Y-138465000D02*
X132671000Y-143670000D01*
X61311000Y-105638000D02*
X76013000Y-90936000D01*
X90750000Y-89400000D02*
X85479000Y-89400000D01*
%TO.N,BYP_out*%
X101453000Y-130368000D02*
X101877000Y-130792000D01*
X101877000Y-137003000D02*
X101877000Y-130792000D01*
X100415000Y-138465000D02*
X101877000Y-137003000D01*
%TO.N,CHRG_in*%
X85091000Y-59788000D02*
X82479000Y-62400000D01*
X85091000Y-59788000D02*
X90403000Y-59788000D01*
%TO.N,Net-(C8-Pad2)*%
X132919000Y-87758900D02*
X132896000Y-87735900D01*
X135089000Y-87758900D02*
X132919000Y-87758900D01*
D46*
%TO.N,Net-(R6-Pad2)*%
X123020000Y-79702900D02*
X123020000Y-77342900D01*
D44*
%TO.N,CANL_VCU1*%
X123874500Y-158826500D02*
X70215000Y-158826500D01*
X138671000Y-138465000D02*
X138671000Y-144030000D01*
X70215000Y-158826500D02*
X66399000Y-155010500D01*
X138671000Y-144030000D02*
X123874500Y-158826500D01*
%TO.N,CANH_VCU1*%
X57071000Y-88866500D02*
X57071000Y-146954500D01*
X57071000Y-146954500D02*
X64279000Y-154162500D01*
X82479000Y-71400000D02*
X74537500Y-71400000D01*
X74537500Y-71400000D02*
X57071000Y-88866500D01*
D45*
%TO.N,EM_12V*%
X85479000Y-62400000D02*
X89363000Y-62400000D01*
X89363000Y-62400000D02*
X90143000Y-63180000D01*
D47*
%TO.N,LV_mastersw_out*%
X115159000Y-95828000D02*
X115445000Y-95542000D01*
X115445000Y-95542000D02*
X115445000Y-92566000D01*
D45*
X130425000Y-96197900D02*
X135829092Y-96197900D01*
X119825000Y-96215900D02*
X115546900Y-96215900D01*
X124487000Y-96676000D02*
X124003900Y-96192900D01*
X122770000Y-96215900D02*
X122793000Y-96192900D01*
X130420000Y-96192900D02*
X130425000Y-96197900D01*
X124003900Y-96192900D02*
X130420000Y-96192900D01*
X115445000Y-91816000D02*
X115445000Y-93060900D01*
X115546900Y-96215900D02*
X115159000Y-95828000D01*
X119825000Y-96215900D02*
X122770000Y-96215900D01*
X124487000Y-97524000D02*
X124487000Y-96676000D01*
X122793000Y-96192900D02*
X124003900Y-96192900D01*
%TO.N,HV+*%
X132311215Y-113663534D02*
X135236215Y-113663534D01*
X135236215Y-113663534D02*
X140254715Y-118682034D01*
%TO.N,HV-*%
X148166380Y-113770369D02*
X143254715Y-118682034D01*
X151260126Y-113770369D02*
X148166380Y-113770369D01*
D44*
%TO.N,CANH_VCU2*%
X76861000Y-138336500D02*
X76861000Y-132198000D01*
X88488000Y-141392000D02*
X79916500Y-141392000D01*
X91415000Y-138465000D02*
X88488000Y-141392000D01*
X79916500Y-141392000D02*
X76861000Y-138336500D01*
X76861000Y-132198000D02*
X78271000Y-130788000D01*
%TO.N,CANL_VCU2*%
X78271000Y-137735876D02*
X81079124Y-140544000D01*
X86336000Y-140544000D02*
X88415000Y-138465000D01*
X78271000Y-133788000D02*
X78271000Y-137735876D01*
X81079124Y-140544000D02*
X86336000Y-140544000D01*
%TO.N,CANL_VCU3*%
X120107741Y-153738500D02*
X130825047Y-143021194D01*
X63007000Y-143986500D02*
X72759000Y-153738500D01*
X63007000Y-116052000D02*
X63007000Y-143986500D01*
X130825047Y-136619047D02*
X129671000Y-135465000D01*
X72759000Y-153738500D02*
X120107741Y-153738500D01*
X75271000Y-103788000D02*
X63007000Y-116052000D01*
%TO.N,CANH_VCU4*%
X63855000Y-143562500D02*
X63855000Y-118204000D01*
X127455000Y-140681000D02*
X127455000Y-143562500D01*
X63855000Y-118204000D02*
X75271000Y-106788000D01*
X73183000Y-152890500D02*
X63855000Y-143562500D01*
X129671000Y-138465000D02*
X127455000Y-140681000D01*
X127455000Y-143562500D02*
X118127000Y-152890500D01*
X118127000Y-152890500D02*
X73183000Y-152890500D01*
%TO.N,CANL_VCU4*%
X117918500Y-152042500D02*
X126671000Y-143290000D01*
X126671000Y-143290000D02*
X126671000Y-138465000D01*
X75271000Y-109788000D02*
X64703000Y-120356000D01*
X64703000Y-120356000D02*
X64703000Y-143138500D01*
X73607000Y-152042500D02*
X117918500Y-152042500D01*
X64703000Y-143138500D02*
X73607000Y-152042500D01*
%TO.N,CANH_ret_VCU3*%
X67247000Y-126812000D02*
X67247000Y-141866500D01*
X112637500Y-149498500D02*
X123671000Y-138465000D01*
X67247000Y-141866500D02*
X74879000Y-149498500D01*
X74879000Y-149498500D02*
X112637500Y-149498500D01*
X75271000Y-118788000D02*
X67247000Y-126812000D01*
%TO.N,VCUWake_out*%
X60463000Y-145258500D02*
X71487000Y-156282500D01*
X60463000Y-90562500D02*
X60463000Y-145258500D01*
X75353500Y-75672000D02*
X60463000Y-90562500D01*
X121519000Y-156282500D02*
X135671000Y-142130500D01*
X85765000Y-75672000D02*
X75353500Y-75672000D01*
X86613000Y-76520000D02*
X85765000Y-75672000D01*
X86613000Y-79266000D02*
X86613000Y-76520000D01*
X85479000Y-80400000D02*
X86613000Y-79266000D01*
X135671000Y-142130500D02*
X135671000Y-138465000D01*
X71487000Y-156282500D02*
X121519000Y-156282500D01*
D45*
%TO.N,Net-(J7-Pad3)*%
X140254715Y-123864677D02*
X139501358Y-124618034D01*
X133265715Y-124618034D02*
X132311215Y-123663534D01*
X139501358Y-124618034D02*
X133265715Y-124618034D01*
X140254715Y-121682034D02*
X140254715Y-123864677D01*
%TO.N,Net-(J7-Pad4)*%
X143254715Y-123770034D02*
X144102715Y-124618034D01*
X150412461Y-124618034D02*
X151260126Y-123770369D01*
X143254715Y-121682034D02*
X143254715Y-123770034D01*
X144102715Y-124618034D02*
X150412461Y-124618034D01*
D44*
%TO.N,CANH_Tel*%
X98773500Y-146106500D02*
X106415000Y-138465000D01*
X76575000Y-146106500D02*
X98773500Y-146106500D01*
X75271000Y-124788000D02*
X70639000Y-129420000D01*
X70639000Y-140170500D02*
X76575000Y-146106500D01*
X70639000Y-129420000D02*
X70639000Y-140170500D01*
%TO.N,CANL_Tel*%
X75271000Y-127788000D02*
X71487000Y-131572000D01*
X71487000Y-131572000D02*
X71487000Y-139746500D01*
X96621500Y-145258500D02*
X103415000Y-138465000D01*
X76999000Y-145258500D02*
X96621500Y-145258500D01*
X71487000Y-139746500D02*
X76999000Y-145258500D01*
%TO.N,CANH_ret_Tel*%
X72335000Y-139322500D02*
X72335000Y-133724000D01*
X77423000Y-144410500D02*
X72335000Y-139322500D01*
X72335000Y-133724000D02*
X75271000Y-130788000D01*
X91469500Y-144410500D02*
X77423000Y-144410500D01*
X97415000Y-138465000D02*
X91469500Y-144410500D01*
%TO.N,CANL_ret_Tel*%
X73045000Y-138760500D02*
X77847000Y-143562500D01*
X75271000Y-133788000D02*
X73045000Y-136014000D01*
X77847000Y-143562500D02*
X89317500Y-143562500D01*
X73045000Y-136014000D02*
X73045000Y-138760500D01*
X89317500Y-143562500D02*
X94415000Y-138465000D01*
%TD*%
%TA.AperFunction,Conductor*%
%TO.N,LV_mastersw_out*%
G36*
X85294685Y-102615275D02*
G01*
X85308681Y-102616079D01*
X85508492Y-102638760D01*
X85535787Y-102644989D01*
X85718982Y-102708903D01*
X85744229Y-102721005D01*
X85908796Y-102823801D01*
X85930744Y-102841177D01*
X86073577Y-102982761D01*
X86082951Y-102993149D01*
X86424553Y-103416910D01*
X87475000Y-104720000D01*
X102704813Y-104720000D01*
X102717163Y-104720607D01*
X102893740Y-104737999D01*
X102917957Y-104742815D01*
X103081809Y-104792518D01*
X103104629Y-104801971D01*
X103255631Y-104882683D01*
X103276158Y-104896399D01*
X103408521Y-105005026D01*
X103425974Y-105022479D01*
X103534601Y-105154842D01*
X103548319Y-105175372D01*
X103629029Y-105326371D01*
X103638482Y-105349190D01*
X103688185Y-105513043D01*
X103693002Y-105537263D01*
X103710393Y-105713837D01*
X103711000Y-105726187D01*
X103711000Y-112445021D01*
X103710393Y-112457371D01*
X103693002Y-112633945D01*
X103688185Y-112658165D01*
X103638482Y-112822017D01*
X103629029Y-112844837D01*
X103548319Y-112995836D01*
X103534601Y-113016366D01*
X103425974Y-113148729D01*
X103408521Y-113166182D01*
X103276158Y-113274809D01*
X103255631Y-113288525D01*
X103163417Y-113337815D01*
X103104629Y-113369237D01*
X103081810Y-113378690D01*
X102917957Y-113428393D01*
X102893740Y-113433209D01*
X102717163Y-113450601D01*
X102704813Y-113451208D01*
X93099081Y-113451209D01*
X92095989Y-113451209D01*
X92095989Y-131640001D01*
X92941425Y-132375157D01*
X93536670Y-132892759D01*
X93536680Y-132892767D01*
X93821000Y-133140000D01*
X94197794Y-133140000D01*
X97456041Y-133140001D01*
X97468391Y-133140608D01*
X97644969Y-133158000D01*
X97669186Y-133162816D01*
X97833038Y-133212519D01*
X97855858Y-133221972D01*
X98006859Y-133302684D01*
X98027386Y-133316400D01*
X98159749Y-133425027D01*
X98177202Y-133442480D01*
X98285829Y-133574843D01*
X98299547Y-133595373D01*
X98380257Y-133746371D01*
X98389710Y-133769190D01*
X98439413Y-133933043D01*
X98444230Y-133957263D01*
X98461621Y-134133838D01*
X98462228Y-134146188D01*
X98462228Y-135949814D01*
X98461621Y-135962164D01*
X98444230Y-136138738D01*
X98439413Y-136162958D01*
X98389710Y-136326810D01*
X98380257Y-136349630D01*
X98299547Y-136500629D01*
X98285829Y-136521159D01*
X98177202Y-136653522D01*
X98159749Y-136670975D01*
X98027386Y-136779602D01*
X98006853Y-136793321D01*
X97855855Y-136874030D01*
X97833036Y-136883482D01*
X97669194Y-136933183D01*
X97644969Y-136938002D01*
X97468392Y-136955394D01*
X97456041Y-136956001D01*
X87754092Y-136956000D01*
X86751000Y-136956000D01*
X86751000Y-138917813D01*
X86750393Y-138930163D01*
X86733002Y-139106737D01*
X86728185Y-139130957D01*
X86682939Y-139280117D01*
X86651459Y-139332636D01*
X86159636Y-139824459D01*
X86107118Y-139855938D01*
X85957957Y-139901185D01*
X85933740Y-139906001D01*
X85894228Y-139909893D01*
X85881879Y-139910500D01*
X83804121Y-139910500D01*
X83791772Y-139909893D01*
X83752260Y-139906001D01*
X83728043Y-139901185D01*
X83564190Y-139851482D01*
X83541372Y-139842030D01*
X83456428Y-139796627D01*
X83405782Y-139746877D01*
X83390072Y-139677640D01*
X83395460Y-139648251D01*
X83407682Y-139608768D01*
X83408326Y-139602642D01*
X83427711Y-139418204D01*
X83427711Y-139418202D01*
X83428355Y-139412075D01*
X83410430Y-139215112D01*
X83399379Y-139177561D01*
X83356330Y-139031294D01*
X83354590Y-139025381D01*
X83262960Y-138850110D01*
X83139032Y-138695975D01*
X83125586Y-138684692D01*
X82992250Y-138572810D01*
X82992251Y-138572810D01*
X82987526Y-138568846D01*
X82987735Y-138568597D01*
X82944907Y-138516152D01*
X82935000Y-138467178D01*
X82935000Y-121464000D01*
X79119000Y-117452000D01*
X77581187Y-117452000D01*
X77568837Y-117451393D01*
X77392260Y-117434001D01*
X77368043Y-117429185D01*
X77204190Y-117379482D01*
X77181371Y-117370029D01*
X77122583Y-117338607D01*
X77030369Y-117289317D01*
X77009842Y-117275601D01*
X76877479Y-117166974D01*
X76860026Y-117149521D01*
X76751399Y-117017158D01*
X76737681Y-116996628D01*
X76656971Y-116845629D01*
X76647518Y-116822809D01*
X76597815Y-116658957D01*
X76592998Y-116634737D01*
X76575607Y-116458163D01*
X76575000Y-116445813D01*
X76575000Y-103618187D01*
X76575607Y-103605837D01*
X76592998Y-103429263D01*
X76597815Y-103405043D01*
X76647518Y-103241190D01*
X76656971Y-103218371D01*
X76737681Y-103067372D01*
X76751399Y-103046842D01*
X76860026Y-102914479D01*
X76877479Y-102897026D01*
X77009842Y-102788399D01*
X77030369Y-102774683D01*
X77122583Y-102725393D01*
X77181371Y-102693971D01*
X77204191Y-102684518D01*
X77368043Y-102634815D01*
X77392260Y-102629999D01*
X77568837Y-102612607D01*
X77581187Y-102612000D01*
X83359000Y-102612000D01*
X85294685Y-102615275D01*
G37*
%TD.AperFunction*%
%TD*%
%TA.AperFunction,Conductor*%
%TO.N,LVBAT_sw*%
G36*
X115754197Y-108966808D02*
G01*
X115901567Y-108980926D01*
X115930573Y-108983704D01*
X115954774Y-108988448D01*
X116118532Y-109037596D01*
X116141349Y-109046965D01*
X116292392Y-109127073D01*
X116312946Y-109140707D01*
X116445486Y-109248704D01*
X116462990Y-109266081D01*
X116571954Y-109397832D01*
X116585739Y-109418287D01*
X116666950Y-109568747D01*
X116676484Y-109591494D01*
X116726824Y-109754880D01*
X116731744Y-109779045D01*
X116741314Y-109871807D01*
X116749927Y-109955297D01*
X116750591Y-109967626D01*
X116850180Y-130857030D01*
X116849628Y-130869420D01*
X116832977Y-131046603D01*
X116828246Y-131070920D01*
X116779030Y-131235454D01*
X116769634Y-131258370D01*
X116767906Y-131261629D01*
X116689175Y-131410093D01*
X116675472Y-131430733D01*
X116566883Y-131563774D01*
X116549407Y-131581334D01*
X116547410Y-131582980D01*
X116416878Y-131690562D01*
X116396307Y-131704359D01*
X116394519Y-131705319D01*
X116244978Y-131785537D01*
X116222104Y-131795045D01*
X116057803Y-131845045D01*
X116033510Y-131849893D01*
X115856396Y-131867390D01*
X115844009Y-131868000D01*
X105989187Y-131868000D01*
X105976837Y-131867393D01*
X105976807Y-131867390D01*
X105800260Y-131850001D01*
X105776043Y-131845185D01*
X105612190Y-131795482D01*
X105589371Y-131786029D01*
X105530583Y-131754607D01*
X105438369Y-131705317D01*
X105417842Y-131691601D01*
X105285479Y-131582974D01*
X105268026Y-131565521D01*
X105159399Y-131433158D01*
X105145681Y-131412628D01*
X105064971Y-131261629D01*
X105055518Y-131238809D01*
X105054500Y-131235454D01*
X105005815Y-131074957D01*
X105000998Y-131050737D01*
X104983607Y-130874163D01*
X104983000Y-130861813D01*
X104983000Y-109978187D01*
X104983607Y-109965837D01*
X105000998Y-109789263D01*
X105005815Y-109765043D01*
X105055518Y-109601190D01*
X105064971Y-109578371D01*
X105145681Y-109427372D01*
X105159399Y-109406842D01*
X105268026Y-109274479D01*
X105285479Y-109257026D01*
X105417842Y-109148399D01*
X105438369Y-109134683D01*
X105589371Y-109053971D01*
X105612191Y-109044518D01*
X105776043Y-108994815D01*
X105800260Y-108989999D01*
X105976837Y-108972607D01*
X105989187Y-108972000D01*
X113463000Y-108972000D01*
X113463790Y-108971998D01*
X113464265Y-108971997D01*
X115741863Y-108966234D01*
X115754197Y-108966808D01*
G37*
%TD.AperFunction*%
%TD*%
%TA.AperFunction,Conductor*%
%TO.N,Net-(C11-Pad2)*%
G36*
X118913821Y-75920002D02*
G01*
X118960314Y-75973658D01*
X118970224Y-76042581D01*
X118970255Y-76042584D01*
X118963500Y-76104766D01*
X118963500Y-76901034D01*
X118970255Y-76963216D01*
X118971962Y-76967770D01*
X118975000Y-76993681D01*
X118975000Y-77282119D01*
X118971962Y-77308030D01*
X118970255Y-77312584D01*
X118963500Y-77374766D01*
X118963500Y-77396013D01*
X118943351Y-77464362D01*
X118928380Y-77487548D01*
X118849314Y-77683737D01*
X118808772Y-77891337D01*
X118808500Y-77896899D01*
X118808500Y-80253643D01*
X118807589Y-80264432D01*
X118807893Y-80264454D01*
X118807454Y-80270428D01*
X118806448Y-80276346D01*
X118806579Y-80282347D01*
X118808470Y-80368999D01*
X118808500Y-80371748D01*
X118808500Y-80410746D01*
X118808784Y-80413725D01*
X118808785Y-80413743D01*
X118809203Y-80418122D01*
X118809743Y-80427336D01*
X118811063Y-80487817D01*
X118812324Y-80493675D01*
X118812325Y-80493682D01*
X118818115Y-80520574D01*
X118820367Y-80535126D01*
X118823548Y-80568466D01*
X118825238Y-80574226D01*
X118825238Y-80574227D01*
X118840576Y-80626513D01*
X118842848Y-80635461D01*
X118854318Y-80688736D01*
X118854321Y-80688747D01*
X118855582Y-80694602D01*
X118857929Y-80700118D01*
X118857930Y-80700121D01*
X118868700Y-80725432D01*
X118873659Y-80739281D01*
X118883092Y-80771434D01*
X118910797Y-80825226D01*
X118914710Y-80833560D01*
X118938400Y-80889236D01*
X118941752Y-80894214D01*
X118941752Y-80894215D01*
X118953519Y-80911693D01*
X118975000Y-80982061D01*
X118975000Y-88161101D01*
X118957044Y-88225927D01*
X117831117Y-90102471D01*
X117778918Y-90150594D01*
X117708988Y-90162855D01*
X117647510Y-90138472D01*
X117616705Y-90115385D01*
X117480316Y-90064255D01*
X117418134Y-90057500D01*
X113471866Y-90057500D01*
X113409684Y-90064255D01*
X113273295Y-90115385D01*
X113156739Y-90202739D01*
X113155114Y-90200571D01*
X113105121Y-90227870D01*
X113034306Y-90222805D01*
X112977470Y-90180258D01*
X112964472Y-90158698D01*
X109435172Y-82709611D01*
X109423038Y-82655662D01*
X109423038Y-80690000D01*
X109443040Y-80621879D01*
X109496696Y-80575386D01*
X109549038Y-80564000D01*
X111343000Y-80564000D01*
X111358750Y-80535126D01*
X113851183Y-75965665D01*
X113901363Y-75915440D01*
X113961798Y-75900000D01*
X118845700Y-75900000D01*
X118913821Y-75920002D01*
G37*
%TD.AperFunction*%
%TD*%
%TA.AperFunction,Conductor*%
%TO.N,GND*%
G36*
X116295270Y-70388668D02*
G01*
X116459301Y-70405629D01*
X116480471Y-70407818D01*
X116505843Y-70413122D01*
X116676981Y-70467776D01*
X116700729Y-70478159D01*
X116857063Y-70566673D01*
X116878181Y-70581692D01*
X116975704Y-70667445D01*
X117013098Y-70700326D01*
X117030698Y-70719351D01*
X117142419Y-70868325D01*
X117149637Y-70879062D01*
X117218649Y-70994081D01*
X117577801Y-71592669D01*
X117589987Y-71619807D01*
X117627528Y-71739599D01*
X117716361Y-71886281D01*
X117799410Y-71969330D01*
X117818358Y-71993598D01*
X117835697Y-72022496D01*
X117835700Y-72022500D01*
X118127000Y-72508000D01*
X129584559Y-72508000D01*
X129596750Y-72508591D01*
X129652518Y-72514013D01*
X129771102Y-72525542D01*
X129795029Y-72530239D01*
X129956962Y-72578694D01*
X129979537Y-72587912D01*
X130129110Y-72666654D01*
X130149487Y-72680048D01*
X130285870Y-72789979D01*
X130294976Y-72798077D01*
X133058739Y-75506743D01*
X135322154Y-77725038D01*
X138286383Y-80630175D01*
X138598475Y-80936046D01*
X138606969Y-80945242D01*
X138722194Y-81083148D01*
X138736245Y-81103837D01*
X138818946Y-81256244D01*
X138828635Y-81279304D01*
X138879598Y-81445054D01*
X138884539Y-81469572D01*
X138902378Y-81648388D01*
X138903000Y-81660896D01*
X138903000Y-93561270D01*
X138902402Y-93573529D01*
X138886572Y-93735451D01*
X138885263Y-93748835D01*
X138880514Y-93772889D01*
X138831524Y-93935650D01*
X138822207Y-93958326D01*
X138742622Y-94108513D01*
X138729087Y-94128958D01*
X138621919Y-94260888D01*
X138604681Y-94278326D01*
X138473993Y-94386998D01*
X138453704Y-94400767D01*
X138304435Y-94482074D01*
X138281866Y-94491650D01*
X138119684Y-94542503D01*
X138095685Y-94547528D01*
X137920590Y-94566678D01*
X137908337Y-94567417D01*
X127053946Y-94692012D01*
X124363000Y-94722900D01*
X124119274Y-94917435D01*
X124066422Y-94933178D01*
X123991112Y-94934361D01*
X123989636Y-94934384D01*
X123987657Y-94934400D01*
X123902093Y-94934400D01*
X123833972Y-94914398D01*
X123787479Y-94860742D01*
X123776226Y-94802621D01*
X123776236Y-94802413D01*
X123776500Y-94799535D01*
X123776499Y-94286266D01*
X123776234Y-94283374D01*
X123770364Y-94219492D01*
X123769753Y-94212838D01*
X123767752Y-94206454D01*
X123720744Y-94056450D01*
X123720743Y-94056448D01*
X123718472Y-94049201D01*
X123629639Y-93902519D01*
X123508381Y-93781261D01*
X123501880Y-93777324D01*
X123495904Y-93772638D01*
X123497485Y-93770622D01*
X123457856Y-93727276D01*
X123445884Y-93657296D01*
X123473647Y-93591952D01*
X123496607Y-93572058D01*
X123495904Y-93571162D01*
X123501880Y-93566476D01*
X123508381Y-93562539D01*
X123629639Y-93441281D01*
X123718472Y-93294599D01*
X123769753Y-93130962D01*
X123776500Y-93057535D01*
X123776499Y-92544266D01*
X123769753Y-92470838D01*
X123767754Y-92464459D01*
X123720744Y-92314450D01*
X123720743Y-92314448D01*
X123718472Y-92307201D01*
X123629639Y-92160519D01*
X123508381Y-92039261D01*
X123361699Y-91950428D01*
X123354452Y-91948157D01*
X123354450Y-91948156D01*
X123276739Y-91923803D01*
X123198062Y-91899147D01*
X123124635Y-91892400D01*
X123106527Y-91892400D01*
X122832595Y-91892401D01*
X122764476Y-91872399D01*
X122743500Y-91855496D01*
X122613404Y-91725399D01*
X122579379Y-91663087D01*
X122576500Y-91636304D01*
X122576500Y-88620000D01*
X123149496Y-88620000D01*
X123150186Y-88626565D01*
X123164894Y-88766500D01*
X123169458Y-88809928D01*
X123228473Y-88991556D01*
X123231776Y-88997278D01*
X123231777Y-88997279D01*
X123258339Y-89043285D01*
X123323960Y-89156944D01*
X123328378Y-89161851D01*
X123328379Y-89161852D01*
X123415796Y-89258938D01*
X123451747Y-89298866D01*
X123550843Y-89370864D01*
X123583541Y-89394620D01*
X123606248Y-89411118D01*
X123612276Y-89413802D01*
X123612278Y-89413803D01*
X123774681Y-89486109D01*
X123780712Y-89488794D01*
X123874113Y-89508647D01*
X123961056Y-89527128D01*
X123961061Y-89527128D01*
X123967513Y-89528500D01*
X124158487Y-89528500D01*
X124164939Y-89527128D01*
X124164944Y-89527128D01*
X124251887Y-89508647D01*
X124345288Y-89488794D01*
X124351319Y-89486109D01*
X124513722Y-89413803D01*
X124513724Y-89413802D01*
X124519752Y-89411118D01*
X124535055Y-89400000D01*
X124601439Y-89351769D01*
X124668307Y-89327910D01*
X124737458Y-89343991D01*
X124786939Y-89394905D01*
X124801500Y-89453705D01*
X124801500Y-89804500D01*
X124781498Y-89872621D01*
X124727842Y-89919114D01*
X124675500Y-89930500D01*
X124508600Y-89930500D01*
X124505354Y-89930837D01*
X124505350Y-89930837D01*
X124409692Y-89940762D01*
X124409688Y-89940763D01*
X124402834Y-89941474D01*
X124396298Y-89943655D01*
X124396296Y-89943655D01*
X124297351Y-89976666D01*
X124235054Y-89997450D01*
X124084652Y-90090522D01*
X123959695Y-90215697D01*
X123955855Y-90221927D01*
X123955854Y-90221928D01*
X123873876Y-90354921D01*
X123866885Y-90366262D01*
X123811203Y-90534139D01*
X123810503Y-90540975D01*
X123810502Y-90540978D01*
X123807551Y-90569786D01*
X123800500Y-90638600D01*
X123800500Y-91689400D01*
X123800837Y-91692646D01*
X123800837Y-91692650D01*
X123804414Y-91727118D01*
X123811474Y-91795166D01*
X123813655Y-91801702D01*
X123813655Y-91801704D01*
X123841109Y-91883993D01*
X123867450Y-91962946D01*
X123960522Y-92113348D01*
X124085697Y-92238305D01*
X124091927Y-92242145D01*
X124091928Y-92242146D01*
X124229090Y-92326694D01*
X124236262Y-92331115D01*
X124316005Y-92357564D01*
X124397611Y-92384632D01*
X124397613Y-92384632D01*
X124404139Y-92386797D01*
X124410975Y-92387497D01*
X124410978Y-92387498D01*
X124454031Y-92391909D01*
X124508600Y-92397500D01*
X125109400Y-92397500D01*
X125112646Y-92397163D01*
X125112650Y-92397163D01*
X125208308Y-92387238D01*
X125208312Y-92387237D01*
X125215166Y-92386526D01*
X125221702Y-92384345D01*
X125221704Y-92384345D01*
X125353806Y-92340272D01*
X125382946Y-92330550D01*
X125533348Y-92237478D01*
X125658305Y-92112303D01*
X125696208Y-92050814D01*
X125747275Y-91967968D01*
X125747276Y-91967966D01*
X125751115Y-91961738D01*
X125780747Y-91872399D01*
X125804632Y-91800389D01*
X125804632Y-91800387D01*
X125806797Y-91793861D01*
X125817500Y-91689400D01*
X125817500Y-91105996D01*
X125837502Y-91037875D01*
X125851649Y-91019744D01*
X125865603Y-91004885D01*
X125888660Y-90980331D01*
X125891413Y-90977491D01*
X125911135Y-90957769D01*
X125913619Y-90954567D01*
X125921317Y-90945555D01*
X125946161Y-90919098D01*
X125951586Y-90913321D01*
X125961347Y-90895566D01*
X125972198Y-90879047D01*
X125984614Y-90863041D01*
X125989224Y-90852389D01*
X126002174Y-90822463D01*
X126007391Y-90811813D01*
X126028695Y-90773060D01*
X126033733Y-90753437D01*
X126040137Y-90734734D01*
X126045033Y-90723420D01*
X126045033Y-90723419D01*
X126048181Y-90716145D01*
X126049420Y-90708322D01*
X126049423Y-90708312D01*
X126055099Y-90672476D01*
X126057505Y-90660856D01*
X126066528Y-90625711D01*
X126066528Y-90625710D01*
X126068500Y-90618030D01*
X126068500Y-90597776D01*
X126070051Y-90578065D01*
X126071980Y-90565886D01*
X126073220Y-90558057D01*
X126069059Y-90514038D01*
X126068500Y-90502181D01*
X126068500Y-90423042D01*
X126088502Y-90354921D01*
X126142158Y-90308428D01*
X126194500Y-90297042D01*
X126324831Y-90297042D01*
X126331283Y-90295670D01*
X126331288Y-90295670D01*
X126418232Y-90277189D01*
X126511632Y-90257336D01*
X126566968Y-90232699D01*
X126680066Y-90182345D01*
X126680068Y-90182344D01*
X126686096Y-90179660D01*
X126840597Y-90067408D01*
X126876530Y-90027500D01*
X126963965Y-89930394D01*
X126963966Y-89930393D01*
X126968384Y-89925486D01*
X127038110Y-89804718D01*
X127060567Y-89765821D01*
X127060568Y-89765820D01*
X127063871Y-89760098D01*
X127122886Y-89578470D01*
X127125467Y-89553918D01*
X127131250Y-89498889D01*
X127137654Y-89437963D01*
X127164666Y-89372308D01*
X127222887Y-89331678D01*
X127293832Y-89328975D01*
X127337024Y-89349199D01*
X127399541Y-89394620D01*
X127422248Y-89411118D01*
X127428276Y-89413802D01*
X127428278Y-89413803D01*
X127590681Y-89486109D01*
X127596712Y-89488794D01*
X127690113Y-89508647D01*
X127777056Y-89527128D01*
X127777061Y-89527128D01*
X127783513Y-89528500D01*
X127974487Y-89528500D01*
X127980939Y-89527128D01*
X127980944Y-89527128D01*
X128067887Y-89508647D01*
X128161288Y-89488794D01*
X128167319Y-89486109D01*
X128329722Y-89413803D01*
X128329724Y-89413802D01*
X128335752Y-89411118D01*
X128358460Y-89394620D01*
X128391157Y-89370864D01*
X128490253Y-89298866D01*
X128526204Y-89258938D01*
X128613621Y-89161852D01*
X128613622Y-89161851D01*
X128618040Y-89156944D01*
X128683661Y-89043285D01*
X128710223Y-88997279D01*
X128710224Y-88997278D01*
X128713527Y-88991556D01*
X128772542Y-88809928D01*
X128777107Y-88766500D01*
X128791814Y-88626565D01*
X128792504Y-88620000D01*
X128786687Y-88564652D01*
X128773232Y-88436635D01*
X128773232Y-88436633D01*
X128772542Y-88430072D01*
X128734287Y-88312336D01*
X128732259Y-88241369D01*
X128768922Y-88180571D01*
X128832634Y-88149245D01*
X128854120Y-88147400D01*
X130310819Y-88147400D01*
X130378940Y-88167402D01*
X130425433Y-88221058D01*
X130430342Y-88233523D01*
X130449924Y-88292215D01*
X130452244Y-88299168D01*
X130542248Y-88444613D01*
X130663298Y-88565452D01*
X130665670Y-88566914D01*
X130705655Y-88623312D01*
X130712500Y-88664276D01*
X130712500Y-88927521D01*
X130692498Y-88995642D01*
X130666106Y-89024784D01*
X130662287Y-89027148D01*
X130541448Y-89148198D01*
X130537608Y-89154428D01*
X130537607Y-89154429D01*
X130456255Y-89286407D01*
X130451698Y-89293799D01*
X130397851Y-89456143D01*
X130397151Y-89462980D01*
X130397150Y-89462982D01*
X130394365Y-89490166D01*
X130387500Y-89557168D01*
X130387500Y-90154632D01*
X130398113Y-90256919D01*
X130400295Y-90263459D01*
X130449537Y-90411053D01*
X130452244Y-90419168D01*
X130456096Y-90425392D01*
X130456096Y-90425393D01*
X130467627Y-90444027D01*
X130542248Y-90564613D01*
X130663298Y-90685452D01*
X130669528Y-90689292D01*
X130669529Y-90689293D01*
X130761642Y-90746072D01*
X130808899Y-90775202D01*
X130971243Y-90829049D01*
X130978080Y-90829749D01*
X130978082Y-90829750D01*
X131019401Y-90833983D01*
X131072268Y-90839400D01*
X131619732Y-90839400D01*
X131622978Y-90839063D01*
X131622982Y-90839063D01*
X131657083Y-90835525D01*
X131722019Y-90828787D01*
X131772929Y-90811802D01*
X131877324Y-90776973D01*
X131877326Y-90776972D01*
X131884268Y-90774656D01*
X131893129Y-90769173D01*
X132023485Y-90688506D01*
X132029713Y-90684652D01*
X132061500Y-90652810D01*
X132145381Y-90568782D01*
X132150552Y-90563602D01*
X132164498Y-90540978D01*
X132236462Y-90424231D01*
X132236463Y-90424229D01*
X132240302Y-90418001D01*
X132294149Y-90255657D01*
X132304500Y-90154632D01*
X132304500Y-89557168D01*
X132301526Y-89528500D01*
X132295174Y-89467285D01*
X132293887Y-89454881D01*
X132259486Y-89351769D01*
X132242073Y-89299576D01*
X132242072Y-89299574D01*
X132239756Y-89292632D01*
X132149752Y-89147187D01*
X132028702Y-89026348D01*
X132026330Y-89024886D01*
X131986345Y-88968488D01*
X131979500Y-88927524D01*
X131979500Y-88664279D01*
X131999502Y-88596158D01*
X132025893Y-88567016D01*
X132029713Y-88564652D01*
X132034886Y-88559470D01*
X132040620Y-88554925D01*
X132042142Y-88556845D01*
X132094206Y-88528355D01*
X132165026Y-88533356D01*
X132201552Y-88556782D01*
X132202372Y-88555743D01*
X132208118Y-88560281D01*
X132213298Y-88565452D01*
X132219528Y-88569292D01*
X132219529Y-88569293D01*
X132291141Y-88613435D01*
X132358899Y-88655202D01*
X132521243Y-88709049D01*
X132528080Y-88709749D01*
X132528082Y-88709750D01*
X132569401Y-88713983D01*
X132622268Y-88719400D01*
X133169732Y-88719400D01*
X133172978Y-88719063D01*
X133172982Y-88719063D01*
X133207083Y-88715525D01*
X133272019Y-88708787D01*
X133356805Y-88680500D01*
X133427324Y-88656973D01*
X133427326Y-88656972D01*
X133434268Y-88654656D01*
X133443129Y-88649173D01*
X133573485Y-88568506D01*
X133579713Y-88564652D01*
X133588607Y-88555743D01*
X133695379Y-88448784D01*
X133700552Y-88443602D01*
X133702978Y-88439667D01*
X133759989Y-88399246D01*
X133800955Y-88392400D01*
X134193290Y-88392400D01*
X134261411Y-88412402D01*
X134282385Y-88429305D01*
X134373619Y-88520539D01*
X134520301Y-88609372D01*
X134527548Y-88611643D01*
X134527550Y-88611644D01*
X134593836Y-88632417D01*
X134683938Y-88660653D01*
X134757365Y-88667400D01*
X134760263Y-88667400D01*
X135089860Y-88667399D01*
X135420634Y-88667399D01*
X135423492Y-88667136D01*
X135423501Y-88667136D01*
X135459004Y-88663874D01*
X135494062Y-88660653D01*
X135511456Y-88655202D01*
X135650450Y-88611644D01*
X135650452Y-88611643D01*
X135657699Y-88609372D01*
X135804381Y-88520539D01*
X135925639Y-88399281D01*
X136014472Y-88252599D01*
X136017992Y-88241369D01*
X136046861Y-88149245D01*
X136065753Y-88088962D01*
X136072500Y-88015535D01*
X136072499Y-87502266D01*
X136070767Y-87483406D01*
X136068974Y-87463896D01*
X136065753Y-87428838D01*
X136046609Y-87367749D01*
X136016744Y-87272450D01*
X136016743Y-87272448D01*
X136014472Y-87265201D01*
X135925639Y-87118519D01*
X135804381Y-86997261D01*
X135657699Y-86908428D01*
X135650452Y-86906157D01*
X135650450Y-86906156D01*
X135568262Y-86880400D01*
X135494062Y-86857147D01*
X135420635Y-86850400D01*
X135417737Y-86850400D01*
X135088140Y-86850401D01*
X134757366Y-86850401D01*
X134754508Y-86850664D01*
X134754499Y-86850664D01*
X134718996Y-86853926D01*
X134683938Y-86857147D01*
X134677560Y-86859146D01*
X134677559Y-86859146D01*
X134527550Y-86906156D01*
X134527548Y-86906157D01*
X134520301Y-86908428D01*
X134373619Y-86997261D01*
X134282385Y-87088495D01*
X134220073Y-87122521D01*
X134193290Y-87125400D01*
X133830730Y-87125400D01*
X133762609Y-87105398D01*
X133723587Y-87065704D01*
X133699752Y-87027187D01*
X133578702Y-86906348D01*
X133572471Y-86902507D01*
X133439331Y-86820438D01*
X133439329Y-86820437D01*
X133433101Y-86816598D01*
X133270757Y-86762751D01*
X133263920Y-86762051D01*
X133263918Y-86762050D01*
X133222599Y-86757817D01*
X133169732Y-86752400D01*
X132622268Y-86752400D01*
X132619022Y-86752737D01*
X132619018Y-86752737D01*
X132584917Y-86756275D01*
X132519981Y-86763013D01*
X132513440Y-86765195D01*
X132513441Y-86765195D01*
X132364676Y-86814827D01*
X132364674Y-86814828D01*
X132357732Y-86817144D01*
X132351508Y-86820996D01*
X132351507Y-86820996D01*
X132219787Y-86902507D01*
X132212287Y-86907148D01*
X132207114Y-86912330D01*
X132201380Y-86916875D01*
X132199858Y-86914955D01*
X132147794Y-86943445D01*
X132076974Y-86938444D01*
X132040448Y-86915018D01*
X132039628Y-86916057D01*
X132033882Y-86911519D01*
X132028702Y-86906348D01*
X132022471Y-86902507D01*
X131889331Y-86820438D01*
X131889329Y-86820437D01*
X131883101Y-86816598D01*
X131720757Y-86762751D01*
X131713920Y-86762051D01*
X131713918Y-86762050D01*
X131672599Y-86757817D01*
X131619732Y-86752400D01*
X131072268Y-86752400D01*
X131069022Y-86752737D01*
X131069018Y-86752737D01*
X131034917Y-86756275D01*
X130969981Y-86763013D01*
X130807732Y-86817144D01*
X130801508Y-86820996D01*
X130801507Y-86820996D01*
X130735979Y-86861545D01*
X130669677Y-86880400D01*
X127395144Y-86880400D01*
X127276203Y-86895426D01*
X127268828Y-86898346D01*
X127235842Y-86911405D01*
X127165142Y-86917884D01*
X127147177Y-86911990D01*
X127147030Y-86912442D01*
X127139492Y-86909993D01*
X127132318Y-86906617D01*
X126975094Y-86876625D01*
X126886600Y-86882192D01*
X126823262Y-86886177D01*
X126823260Y-86886177D01*
X126815350Y-86886675D01*
X126807814Y-86889124D01*
X126807812Y-86889124D01*
X126670667Y-86933685D01*
X126670664Y-86933686D01*
X126663125Y-86936136D01*
X126527982Y-87021900D01*
X126522554Y-87027680D01*
X126516446Y-87032733D01*
X126515188Y-87031213D01*
X126463005Y-87061872D01*
X126392066Y-87059033D01*
X126352055Y-87036738D01*
X126283252Y-86979819D01*
X126283247Y-86979816D01*
X126277144Y-86974767D01*
X126269977Y-86971394D01*
X126269973Y-86971392D01*
X126182009Y-86930000D01*
X126132318Y-86906617D01*
X125975094Y-86876625D01*
X125886600Y-86882192D01*
X125823262Y-86886177D01*
X125823260Y-86886177D01*
X125815350Y-86886675D01*
X125807814Y-86889124D01*
X125807812Y-86889124D01*
X125791476Y-86894432D01*
X125743588Y-86909992D01*
X125729455Y-86914584D01*
X125658488Y-86916612D01*
X125646816Y-86912372D01*
X125639488Y-86909991D01*
X125632318Y-86906617D01*
X125624535Y-86905132D01*
X125624534Y-86905132D01*
X125482879Y-86878110D01*
X125482878Y-86878110D01*
X125475094Y-86876625D01*
X125386600Y-86882192D01*
X125323262Y-86886177D01*
X125323260Y-86886177D01*
X125315350Y-86886675D01*
X125307814Y-86889124D01*
X125307812Y-86889124D01*
X125199877Y-86924194D01*
X125128909Y-86926221D01*
X125107297Y-86918371D01*
X125082318Y-86906617D01*
X124925094Y-86876625D01*
X124836600Y-86882192D01*
X124773262Y-86886177D01*
X124773260Y-86886177D01*
X124765350Y-86886675D01*
X124757814Y-86889124D01*
X124757812Y-86889124D01*
X124620667Y-86933685D01*
X124620664Y-86933686D01*
X124613125Y-86936136D01*
X124477982Y-87021900D01*
X124368414Y-87138579D01*
X124291305Y-87278840D01*
X124251500Y-87433870D01*
X124251500Y-87483406D01*
X124231498Y-87551527D01*
X124214595Y-87572501D01*
X124112501Y-87674595D01*
X124050189Y-87708621D01*
X124023406Y-87711500D01*
X123967513Y-87711500D01*
X123961061Y-87712872D01*
X123961056Y-87712872D01*
X123874113Y-87731353D01*
X123780712Y-87751206D01*
X123774682Y-87753891D01*
X123774681Y-87753891D01*
X123612278Y-87826197D01*
X123612276Y-87826198D01*
X123606248Y-87828882D01*
X123451747Y-87941134D01*
X123323960Y-88083056D01*
X123228473Y-88248444D01*
X123169458Y-88430072D01*
X123168768Y-88436633D01*
X123168768Y-88436635D01*
X123155313Y-88564652D01*
X123149496Y-88620000D01*
X122576500Y-88620000D01*
X122576500Y-86390595D01*
X122596502Y-86322474D01*
X122613405Y-86301499D01*
X122830601Y-86084304D01*
X122892913Y-86050279D01*
X122919696Y-86047400D01*
X124974856Y-86047400D01*
X125031568Y-86040235D01*
X125085932Y-86033368D01*
X125085935Y-86033367D01*
X125093797Y-86032374D01*
X125109538Y-86026142D01*
X125136598Y-86015428D01*
X125242617Y-85973452D01*
X125270722Y-85953033D01*
X125335886Y-85905688D01*
X125363161Y-85885872D01*
X125430028Y-85862014D01*
X125499179Y-85878094D01*
X125517537Y-85890724D01*
X125586747Y-85947980D01*
X125586751Y-85947983D01*
X125592856Y-85953033D01*
X125600023Y-85956406D01*
X125600027Y-85956408D01*
X125642447Y-85976369D01*
X125737682Y-86021183D01*
X125842222Y-86041125D01*
X125878860Y-86048114D01*
X125894906Y-86051175D01*
X125983400Y-86045608D01*
X126046738Y-86041623D01*
X126046740Y-86041623D01*
X126054650Y-86041125D01*
X126062186Y-86038676D01*
X126062188Y-86038676D01*
X126126416Y-86017807D01*
X126140545Y-86013216D01*
X126211512Y-86011188D01*
X126223184Y-86015428D01*
X126230512Y-86017809D01*
X126237682Y-86021183D01*
X126245465Y-86022668D01*
X126245466Y-86022668D01*
X126387121Y-86049690D01*
X126394906Y-86051175D01*
X126483400Y-86045608D01*
X126546738Y-86041623D01*
X126546740Y-86041623D01*
X126554650Y-86041125D01*
X126562186Y-86038676D01*
X126562188Y-86038676D01*
X126626416Y-86017807D01*
X126640545Y-86013216D01*
X126711512Y-86011188D01*
X126723184Y-86015428D01*
X126730512Y-86017809D01*
X126737682Y-86021183D01*
X126745465Y-86022668D01*
X126745466Y-86022668D01*
X126887121Y-86049690D01*
X126894906Y-86051175D01*
X126983400Y-86045608D01*
X127046738Y-86041623D01*
X127046740Y-86041623D01*
X127054650Y-86041125D01*
X127062186Y-86038676D01*
X127062188Y-86038676D01*
X127199333Y-85994115D01*
X127199336Y-85994114D01*
X127206875Y-85991664D01*
X127342018Y-85905900D01*
X127451586Y-85789221D01*
X127528695Y-85648960D01*
X127568500Y-85493930D01*
X127568500Y-85386704D01*
X127588502Y-85318583D01*
X127642158Y-85272090D01*
X127668301Y-85263458D01*
X127737288Y-85248794D01*
X127817953Y-85212880D01*
X127905722Y-85173803D01*
X127905724Y-85173802D01*
X127911752Y-85171118D01*
X127932719Y-85155885D01*
X127967157Y-85130864D01*
X128066253Y-85058866D01*
X128070675Y-85053955D01*
X128189621Y-84921852D01*
X128189622Y-84921851D01*
X128194040Y-84916944D01*
X128273197Y-84779841D01*
X128286223Y-84757279D01*
X128286224Y-84757278D01*
X128289527Y-84751556D01*
X128348542Y-84569928D01*
X128356517Y-84494056D01*
X128367814Y-84386565D01*
X128368504Y-84380000D01*
X128360797Y-84306670D01*
X128373569Y-84236832D01*
X128422071Y-84184985D01*
X128486107Y-84167500D01*
X130186500Y-84167500D01*
X130254621Y-84187502D01*
X130301114Y-84241158D01*
X130312500Y-84293500D01*
X130312500Y-84580732D01*
X130323113Y-84683019D01*
X130325295Y-84689559D01*
X130374884Y-84838193D01*
X130377244Y-84845268D01*
X130381096Y-84851492D01*
X130381096Y-84851493D01*
X130433712Y-84936520D01*
X130467248Y-84990713D01*
X130588298Y-85111552D01*
X130594528Y-85115392D01*
X130594529Y-85115393D01*
X130689288Y-85173803D01*
X130733899Y-85201302D01*
X130896243Y-85255149D01*
X130903080Y-85255849D01*
X130903082Y-85255850D01*
X130944401Y-85260083D01*
X130997268Y-85265500D01*
X131594732Y-85265500D01*
X131597978Y-85265163D01*
X131597982Y-85265163D01*
X131632083Y-85261625D01*
X131697019Y-85254887D01*
X131731737Y-85243304D01*
X131852324Y-85203073D01*
X131852326Y-85203072D01*
X131859268Y-85200756D01*
X132004713Y-85110752D01*
X132125552Y-84989702D01*
X132166249Y-84923679D01*
X132211462Y-84850331D01*
X132211463Y-84850329D01*
X132215302Y-84844101D01*
X132269149Y-84681757D01*
X132271040Y-84663307D01*
X132279172Y-84583930D01*
X132279500Y-84580732D01*
X132279500Y-84033268D01*
X132268887Y-83930981D01*
X132257304Y-83896263D01*
X132217073Y-83775676D01*
X132217072Y-83775674D01*
X132214756Y-83768732D01*
X132204473Y-83752114D01*
X132128606Y-83629515D01*
X132124752Y-83623287D01*
X132003702Y-83502448D01*
X131997471Y-83498607D01*
X131864331Y-83416538D01*
X131864329Y-83416537D01*
X131858101Y-83412698D01*
X131695757Y-83358851D01*
X131688920Y-83358151D01*
X131688918Y-83358150D01*
X131647599Y-83353917D01*
X131594732Y-83348500D01*
X131285595Y-83348500D01*
X131217474Y-83328498D01*
X131196500Y-83311595D01*
X131026652Y-83141747D01*
X131019112Y-83133461D01*
X131015000Y-83126982D01*
X130965348Y-83080356D01*
X130962507Y-83077602D01*
X130942770Y-83057865D01*
X130939573Y-83055385D01*
X130930551Y-83047680D01*
X130904100Y-83022841D01*
X130898321Y-83017414D01*
X130891375Y-83013595D01*
X130891372Y-83013593D01*
X130880566Y-83007652D01*
X130864047Y-82996801D01*
X130863583Y-82996441D01*
X130848041Y-82984386D01*
X130840772Y-82981241D01*
X130840768Y-82981238D01*
X130807463Y-82966826D01*
X130796813Y-82961609D01*
X130758060Y-82940305D01*
X130738437Y-82935267D01*
X130719734Y-82928863D01*
X130708420Y-82923967D01*
X130708419Y-82923967D01*
X130701145Y-82920819D01*
X130693322Y-82919580D01*
X130693312Y-82919577D01*
X130657476Y-82913901D01*
X130645856Y-82911495D01*
X130610711Y-82902472D01*
X130610710Y-82902472D01*
X130603030Y-82900500D01*
X130582776Y-82900500D01*
X130563065Y-82898949D01*
X130550886Y-82897020D01*
X130543057Y-82895780D01*
X130535165Y-82896526D01*
X130499039Y-82899941D01*
X130487181Y-82900500D01*
X128961500Y-82900500D01*
X128893379Y-82880498D01*
X128846886Y-82826842D01*
X128835500Y-82774500D01*
X128835499Y-82355249D01*
X128835499Y-82352366D01*
X128828753Y-82278938D01*
X128826754Y-82272559D01*
X128779744Y-82122550D01*
X128779743Y-82122548D01*
X128777472Y-82115301D01*
X128688639Y-81968619D01*
X128567381Y-81847361D01*
X128420699Y-81758528D01*
X128413452Y-81756257D01*
X128413450Y-81756256D01*
X128339635Y-81733124D01*
X128257062Y-81707247D01*
X128183635Y-81700500D01*
X128180737Y-81700500D01*
X127926335Y-81700501D01*
X127670366Y-81700501D01*
X127667508Y-81700764D01*
X127667499Y-81700764D01*
X127631996Y-81704026D01*
X127596938Y-81707247D01*
X127590560Y-81709246D01*
X127590559Y-81709246D01*
X127440550Y-81756256D01*
X127440548Y-81756257D01*
X127433301Y-81758528D01*
X127286619Y-81847361D01*
X127165361Y-81968619D01*
X127161424Y-81975120D01*
X127153050Y-81988947D01*
X127100653Y-82036854D01*
X127049233Y-82049614D01*
X127028491Y-82050266D01*
X127023013Y-82050438D01*
X127019055Y-82050500D01*
X126991144Y-82050500D01*
X126987210Y-82050997D01*
X126987209Y-82050997D01*
X126987144Y-82051005D01*
X126975307Y-82051938D01*
X126943049Y-82052952D01*
X126939030Y-82053078D01*
X126931111Y-82053327D01*
X126911657Y-82058979D01*
X126892300Y-82062987D01*
X126880070Y-82064532D01*
X126880069Y-82064532D01*
X126872203Y-82065526D01*
X126864832Y-82068445D01*
X126864830Y-82068445D01*
X126831088Y-82081804D01*
X126819858Y-82085649D01*
X126785017Y-82095771D01*
X126785016Y-82095771D01*
X126777407Y-82097982D01*
X126770588Y-82102015D01*
X126770583Y-82102017D01*
X126759972Y-82108293D01*
X126742224Y-82116988D01*
X126723383Y-82124448D01*
X126716967Y-82129110D01*
X126716966Y-82129110D01*
X126687613Y-82150436D01*
X126677693Y-82156952D01*
X126646465Y-82175420D01*
X126646462Y-82175422D01*
X126639638Y-82179458D01*
X126625317Y-82193779D01*
X126610284Y-82206619D01*
X126593893Y-82218528D01*
X126588842Y-82224634D01*
X126565702Y-82252605D01*
X126557712Y-82261384D01*
X125542747Y-83276348D01*
X125534461Y-83283888D01*
X125527982Y-83288000D01*
X125522557Y-83293777D01*
X125481357Y-83337651D01*
X125478602Y-83340493D01*
X125458865Y-83360230D01*
X125456385Y-83363427D01*
X125448682Y-83372447D01*
X125418414Y-83404679D01*
X125414595Y-83411625D01*
X125414593Y-83411628D01*
X125408652Y-83422434D01*
X125397801Y-83438953D01*
X125385386Y-83454959D01*
X125382241Y-83462228D01*
X125382238Y-83462232D01*
X125367826Y-83495537D01*
X125362609Y-83506187D01*
X125341305Y-83544940D01*
X125339334Y-83552615D01*
X125339334Y-83552616D01*
X125336267Y-83564562D01*
X125329863Y-83583266D01*
X125321819Y-83601855D01*
X125320580Y-83609678D01*
X125320577Y-83609688D01*
X125314901Y-83645524D01*
X125312495Y-83657144D01*
X125301500Y-83699970D01*
X125301500Y-83720224D01*
X125299949Y-83739934D01*
X125296780Y-83759943D01*
X125297526Y-83767835D01*
X125300941Y-83803961D01*
X125301500Y-83815819D01*
X125301500Y-84691515D01*
X125281498Y-84759636D01*
X125227842Y-84806129D01*
X125157568Y-84816233D01*
X125144178Y-84813560D01*
X125015030Y-84780400D01*
X122683867Y-84780400D01*
X122672684Y-84779873D01*
X122665191Y-84778198D01*
X122657265Y-84778447D01*
X122657264Y-84778447D01*
X122597101Y-84780338D01*
X122593143Y-84780400D01*
X122565244Y-84780400D01*
X122561254Y-84780904D01*
X122549420Y-84781836D01*
X122505211Y-84783226D01*
X122497597Y-84785438D01*
X122497592Y-84785439D01*
X122485759Y-84788877D01*
X122466396Y-84792888D01*
X122446303Y-84795426D01*
X122438936Y-84798343D01*
X122438931Y-84798344D01*
X122405192Y-84811702D01*
X122393965Y-84815546D01*
X122351507Y-84827882D01*
X122344681Y-84831919D01*
X122334072Y-84838193D01*
X122316324Y-84846888D01*
X122297483Y-84854348D01*
X122291067Y-84859010D01*
X122291066Y-84859010D01*
X122261713Y-84880336D01*
X122251793Y-84886852D01*
X122220565Y-84905320D01*
X122220562Y-84905322D01*
X122213738Y-84909358D01*
X122199417Y-84923679D01*
X122184384Y-84936519D01*
X122167993Y-84948428D01*
X122141616Y-84980313D01*
X122139812Y-84982493D01*
X122131822Y-84991274D01*
X121550742Y-85572353D01*
X121542463Y-85579887D01*
X121535982Y-85584000D01*
X121489357Y-85633651D01*
X121486602Y-85636493D01*
X121466865Y-85656230D01*
X121464385Y-85659427D01*
X121456682Y-85668447D01*
X121426414Y-85700679D01*
X121422595Y-85707625D01*
X121422593Y-85707628D01*
X121416652Y-85718434D01*
X121405801Y-85734953D01*
X121393386Y-85750959D01*
X121390241Y-85758228D01*
X121390238Y-85758232D01*
X121375826Y-85791537D01*
X121370609Y-85802187D01*
X121349305Y-85840940D01*
X121347334Y-85848615D01*
X121347334Y-85848616D01*
X121344267Y-85860562D01*
X121337863Y-85879266D01*
X121329819Y-85897855D01*
X121328580Y-85905678D01*
X121328577Y-85905688D01*
X121322901Y-85941524D01*
X121320495Y-85953144D01*
X121315281Y-85973452D01*
X121309500Y-85995970D01*
X121309500Y-86016224D01*
X121307949Y-86035934D01*
X121304780Y-86055943D01*
X121305526Y-86063835D01*
X121308941Y-86099961D01*
X121309500Y-86111819D01*
X121309500Y-91872133D01*
X121308973Y-91883316D01*
X121307298Y-91890809D01*
X121307547Y-91898735D01*
X121307547Y-91898736D01*
X121309438Y-91958886D01*
X121309500Y-91962845D01*
X121309500Y-91990756D01*
X121309997Y-91994690D01*
X121309997Y-91994691D01*
X121310005Y-91994756D01*
X121310938Y-92006593D01*
X121312180Y-92046121D01*
X121312180Y-92046123D01*
X121312327Y-92050790D01*
X121311574Y-92050814D01*
X121303269Y-92115097D01*
X121257548Y-92169412D01*
X121187918Y-92190400D01*
X120753379Y-92190400D01*
X120685258Y-92170398D01*
X120656116Y-92144006D01*
X120653752Y-92140187D01*
X120532702Y-92019348D01*
X120525517Y-92014919D01*
X120393331Y-91933438D01*
X120393329Y-91933437D01*
X120387101Y-91929598D01*
X120224757Y-91875751D01*
X120217920Y-91875051D01*
X120217918Y-91875050D01*
X120176599Y-91870817D01*
X120123732Y-91865400D01*
X119526268Y-91865400D01*
X119523022Y-91865737D01*
X119523018Y-91865737D01*
X119488917Y-91869275D01*
X119423981Y-91876013D01*
X119417440Y-91878195D01*
X119417441Y-91878195D01*
X119268676Y-91927827D01*
X119268674Y-91927828D01*
X119261732Y-91930144D01*
X119255508Y-91933996D01*
X119255507Y-91933996D01*
X119200609Y-91967968D01*
X119116287Y-92020148D01*
X118995448Y-92141198D01*
X118991608Y-92147428D01*
X118991607Y-92147429D01*
X118933223Y-92242146D01*
X118905698Y-92286799D01*
X118851851Y-92449143D01*
X118851151Y-92455980D01*
X118851150Y-92455982D01*
X118850007Y-92467143D01*
X118841500Y-92550168D01*
X118841500Y-93097632D01*
X118852113Y-93199919D01*
X118854295Y-93206459D01*
X118885869Y-93301096D01*
X118906244Y-93362168D01*
X118910096Y-93368392D01*
X118910096Y-93368393D01*
X118958527Y-93446657D01*
X118996248Y-93507613D01*
X119117298Y-93628452D01*
X119123528Y-93632292D01*
X119123529Y-93632293D01*
X119231023Y-93698553D01*
X119262899Y-93718202D01*
X119425243Y-93772049D01*
X119432080Y-93772749D01*
X119432082Y-93772750D01*
X119470636Y-93776700D01*
X119526268Y-93782400D01*
X120123732Y-93782400D01*
X120126978Y-93782063D01*
X120126982Y-93782063D01*
X120161083Y-93778525D01*
X120226019Y-93771787D01*
X120294814Y-93748835D01*
X120381324Y-93719973D01*
X120381326Y-93719972D01*
X120388268Y-93717656D01*
X120533713Y-93627652D01*
X120654552Y-93506602D01*
X120656014Y-93504230D01*
X120712412Y-93464245D01*
X120753376Y-93457400D01*
X121920290Y-93457400D01*
X121988411Y-93477402D01*
X122009385Y-93494305D01*
X122077619Y-93562539D01*
X122084120Y-93566476D01*
X122090096Y-93571162D01*
X122088515Y-93573178D01*
X122128144Y-93616524D01*
X122140116Y-93686504D01*
X122112353Y-93751848D01*
X122089393Y-93771742D01*
X122090096Y-93772638D01*
X122084120Y-93777324D01*
X122077619Y-93781261D01*
X121956361Y-93902519D01*
X121867528Y-94049201D01*
X121816247Y-94212838D01*
X121809500Y-94286265D01*
X121809501Y-94799534D01*
X121809764Y-94802400D01*
X121809765Y-94802415D01*
X121811369Y-94819870D01*
X121797685Y-94889535D01*
X121748509Y-94940743D01*
X121685898Y-94957400D01*
X118079500Y-94957400D01*
X118011379Y-94937398D01*
X117964886Y-94883742D01*
X117953500Y-94831400D01*
X117953500Y-92487162D01*
X117938641Y-92250980D01*
X117880732Y-91947412D01*
X117878500Y-91923803D01*
X117878500Y-90744140D01*
X117898502Y-90676019D01*
X117952158Y-90629526D01*
X117965298Y-90624394D01*
X117997942Y-90613707D01*
X118006513Y-90610901D01*
X118094913Y-90550165D01*
X118123267Y-90530684D01*
X118123270Y-90530682D01*
X118126978Y-90528134D01*
X118156802Y-90500639D01*
X118175867Y-90483063D01*
X118175870Y-90483060D01*
X118179177Y-90480011D01*
X118182018Y-90476521D01*
X118268601Y-90370153D01*
X118268602Y-90370151D01*
X118271440Y-90366665D01*
X119397367Y-88490121D01*
X119451911Y-88362999D01*
X119469867Y-88298173D01*
X119488500Y-88161101D01*
X119488500Y-81801245D01*
X119508502Y-81733124D01*
X119562158Y-81686631D01*
X119632432Y-81676527D01*
X119697012Y-81706021D01*
X119703595Y-81712150D01*
X120054448Y-82063003D01*
X120061437Y-82071281D01*
X120061667Y-82071082D01*
X120065586Y-82075623D01*
X120069054Y-82080511D01*
X120091520Y-82102017D01*
X120136040Y-82144636D01*
X120138004Y-82146559D01*
X120165540Y-82174095D01*
X120167847Y-82176000D01*
X120171254Y-82178814D01*
X120178148Y-82184947D01*
X120217515Y-82222632D01*
X120217520Y-82222636D01*
X120221850Y-82226781D01*
X120249992Y-82244952D01*
X120261873Y-82253648D01*
X120287705Y-82274980D01*
X120308340Y-82286254D01*
X120340797Y-82303987D01*
X120348717Y-82308698D01*
X120399548Y-82341520D01*
X120405116Y-82343764D01*
X120405118Y-82343765D01*
X120430619Y-82354042D01*
X120443932Y-82360335D01*
X120473329Y-82376396D01*
X120479041Y-82378224D01*
X120479047Y-82378227D01*
X120530951Y-82394841D01*
X120539625Y-82397972D01*
X120595737Y-82420586D01*
X120628608Y-82427005D01*
X120642875Y-82430668D01*
X120669064Y-82439052D01*
X120669075Y-82439054D01*
X120674781Y-82440881D01*
X120680733Y-82441596D01*
X120734841Y-82448096D01*
X120743962Y-82449533D01*
X120780015Y-82456573D01*
X120803337Y-82461128D01*
X120808899Y-82461400D01*
X120838049Y-82461400D01*
X120853077Y-82462299D01*
X120878846Y-82465395D01*
X120878850Y-82465395D01*
X120884793Y-82466109D01*
X120890769Y-82465686D01*
X120890772Y-82465686D01*
X120946853Y-82461715D01*
X120955752Y-82461400D01*
X125389846Y-82461400D01*
X125547566Y-82446352D01*
X125750534Y-82386808D01*
X125811810Y-82355249D01*
X125933249Y-82292704D01*
X125933252Y-82292702D01*
X125938580Y-82289958D01*
X126104920Y-82159296D01*
X126108852Y-82154765D01*
X126108855Y-82154762D01*
X126239621Y-82004067D01*
X126243552Y-81999537D01*
X126246552Y-81994351D01*
X126246555Y-81994347D01*
X126346467Y-81821642D01*
X126349473Y-81816446D01*
X126418861Y-81616629D01*
X126427573Y-81556547D01*
X126448352Y-81413236D01*
X126448352Y-81413233D01*
X126449213Y-81407296D01*
X126439433Y-81196001D01*
X126389875Y-80990366D01*
X126369359Y-80945242D01*
X126322981Y-80843242D01*
X126302326Y-80797813D01*
X126179946Y-80625289D01*
X126175623Y-80621151D01*
X126175619Y-80621146D01*
X126125668Y-80573329D01*
X126090292Y-80511774D01*
X126093811Y-80440864D01*
X126123704Y-80393216D01*
X126173639Y-80343281D01*
X126262472Y-80196599D01*
X126276143Y-80152977D01*
X126292598Y-80100468D01*
X126313753Y-80032962D01*
X126320500Y-79959535D01*
X126320499Y-79667495D01*
X126340501Y-79599376D01*
X126357405Y-79578399D01*
X126397402Y-79538403D01*
X126459714Y-79504379D01*
X126486496Y-79501500D01*
X127594800Y-79501500D01*
X127662921Y-79521502D01*
X127682147Y-79537843D01*
X127682420Y-79537540D01*
X127687332Y-79541963D01*
X127691747Y-79546866D01*
X127700488Y-79553217D01*
X127821753Y-79641321D01*
X127846248Y-79659118D01*
X127852276Y-79661802D01*
X127852278Y-79661803D01*
X128014681Y-79734109D01*
X128020712Y-79736794D01*
X128107009Y-79755137D01*
X128201056Y-79775128D01*
X128201061Y-79775128D01*
X128207513Y-79776500D01*
X128398487Y-79776500D01*
X128404939Y-79775128D01*
X128404944Y-79775128D01*
X128498991Y-79755137D01*
X128585288Y-79736794D01*
X128591319Y-79734109D01*
X128753722Y-79661803D01*
X128753724Y-79661802D01*
X128759752Y-79659118D01*
X128784248Y-79641321D01*
X128849676Y-79593784D01*
X128914253Y-79546866D01*
X128937091Y-79521502D01*
X129037621Y-79409852D01*
X129037622Y-79409851D01*
X129042040Y-79404944D01*
X129137527Y-79239556D01*
X129196542Y-79057928D01*
X129216504Y-78868000D01*
X129196542Y-78678072D01*
X129137527Y-78496444D01*
X129117199Y-78461234D01*
X129063225Y-78367749D01*
X129042040Y-78331056D01*
X128914253Y-78189134D01*
X128815157Y-78117136D01*
X128765094Y-78080763D01*
X128765093Y-78080762D01*
X128759752Y-78076882D01*
X128753724Y-78074198D01*
X128753722Y-78074197D01*
X128591319Y-78001891D01*
X128591318Y-78001891D01*
X128585288Y-77999206D01*
X128491887Y-77979353D01*
X128404944Y-77960872D01*
X128404939Y-77960872D01*
X128398487Y-77959500D01*
X128207513Y-77959500D01*
X128201061Y-77960872D01*
X128201056Y-77960872D01*
X128114113Y-77979353D01*
X128020712Y-77999206D01*
X128014682Y-78001891D01*
X128014681Y-78001891D01*
X127852278Y-78074197D01*
X127852276Y-78074198D01*
X127846248Y-78076882D01*
X127840907Y-78080762D01*
X127840906Y-78080763D01*
X127780048Y-78124979D01*
X127691747Y-78189134D01*
X127687332Y-78194037D01*
X127682420Y-78198460D01*
X127681295Y-78197211D01*
X127627986Y-78230051D01*
X127594800Y-78234500D01*
X126250667Y-78234500D01*
X126239484Y-78233973D01*
X126231991Y-78232298D01*
X126224067Y-78232547D01*
X126224066Y-78232547D01*
X126221066Y-78232641D01*
X126204862Y-78233151D01*
X126136147Y-78215299D01*
X126087991Y-78163131D01*
X126075684Y-78093210D01*
X126103133Y-78027734D01*
X126111730Y-78018195D01*
X126167258Y-77962570D01*
X126172429Y-77957390D01*
X126249674Y-77832076D01*
X126258339Y-77818019D01*
X126258340Y-77818017D01*
X126262179Y-77811789D01*
X126316026Y-77649445D01*
X126326377Y-77548420D01*
X126326377Y-77000956D01*
X126315764Y-76898669D01*
X126266004Y-76749522D01*
X126263950Y-76743364D01*
X126263949Y-76743362D01*
X126261633Y-76736420D01*
X126171629Y-76590975D01*
X126050579Y-76470136D01*
X126028878Y-76456759D01*
X125911208Y-76384226D01*
X125911206Y-76384225D01*
X125904978Y-76380386D01*
X125742634Y-76326539D01*
X125735797Y-76325839D01*
X125735795Y-76325838D01*
X125694476Y-76321605D01*
X125641609Y-76316188D01*
X125044145Y-76316188D01*
X125040899Y-76316525D01*
X125040895Y-76316525D01*
X125006794Y-76320063D01*
X124941858Y-76326801D01*
X124935317Y-76328983D01*
X124935318Y-76328983D01*
X124786553Y-76378615D01*
X124786551Y-76378616D01*
X124779609Y-76380932D01*
X124773385Y-76384784D01*
X124773384Y-76384784D01*
X124663311Y-76452899D01*
X124634164Y-76470936D01*
X124513325Y-76591986D01*
X124509485Y-76598216D01*
X124509484Y-76598217D01*
X124428132Y-76730195D01*
X124423575Y-76737587D01*
X124369728Y-76899931D01*
X124369028Y-76906768D01*
X124369027Y-76906770D01*
X124366671Y-76929768D01*
X124359377Y-77000956D01*
X124359377Y-77548420D01*
X124369990Y-77650707D01*
X124372172Y-77657247D01*
X124421414Y-77804841D01*
X124424121Y-77812956D01*
X124514125Y-77958401D01*
X124635175Y-78079240D01*
X124641407Y-78083082D01*
X124641409Y-78083083D01*
X124649494Y-78088067D01*
X124696987Y-78140840D01*
X124709377Y-78195326D01*
X124709377Y-78817116D01*
X124689375Y-78885237D01*
X124648649Y-78924891D01*
X124621619Y-78941261D01*
X124500361Y-79062519D01*
X124411528Y-79209201D01*
X124360247Y-79372838D01*
X124353500Y-79446265D01*
X124353501Y-79959534D01*
X124353764Y-79962392D01*
X124353764Y-79962401D01*
X124356670Y-79994029D01*
X124360247Y-80032962D01*
X124374680Y-80079016D01*
X124375214Y-80080720D01*
X124376499Y-80151705D01*
X124339202Y-80212116D01*
X124275165Y-80242773D01*
X124254980Y-80244400D01*
X124130912Y-80244400D01*
X124062791Y-80224398D01*
X124016298Y-80170742D01*
X124006194Y-80100468D01*
X124010810Y-80080302D01*
X124058516Y-79929912D01*
X124060379Y-79924039D01*
X124061350Y-79915389D01*
X124077082Y-79775128D01*
X124078500Y-79762487D01*
X124078500Y-77290663D01*
X124077780Y-77283313D01*
X124063966Y-77142434D01*
X124063965Y-77142431D01*
X124063365Y-77136308D01*
X124012528Y-76967924D01*
X124005152Y-76943493D01*
X124005151Y-76943490D01*
X124003368Y-76937585D01*
X123986321Y-76905525D01*
X123908809Y-76759747D01*
X123908808Y-76759745D01*
X123905913Y-76754301D01*
X123857083Y-76694429D01*
X123778610Y-76598211D01*
X123778607Y-76598208D01*
X123774715Y-76593436D01*
X123767770Y-76587690D01*
X123656486Y-76495628D01*
X123614770Y-76461117D01*
X123609353Y-76458188D01*
X123609350Y-76458186D01*
X123437590Y-76365316D01*
X123437585Y-76365314D01*
X123432170Y-76362386D01*
X123233871Y-76301002D01*
X123227746Y-76300358D01*
X123227745Y-76300358D01*
X123033554Y-76279948D01*
X123033552Y-76279948D01*
X123027425Y-76279304D01*
X122941515Y-76287123D01*
X122826836Y-76297559D01*
X122826833Y-76297560D01*
X122820697Y-76298118D01*
X122814791Y-76299856D01*
X122814787Y-76299857D01*
X122724130Y-76326539D01*
X122621560Y-76356727D01*
X122437600Y-76452899D01*
X122275823Y-76582971D01*
X122271865Y-76587688D01*
X122271863Y-76587690D01*
X122267042Y-76593436D01*
X122142391Y-76741989D01*
X122139427Y-76747381D01*
X122139424Y-76747385D01*
X122056255Y-76898669D01*
X122042387Y-76923895D01*
X121979621Y-77121761D01*
X121978935Y-77127878D01*
X121978934Y-77127882D01*
X121977302Y-77142434D01*
X121961500Y-77283313D01*
X121961500Y-79755137D01*
X121961800Y-79758193D01*
X121961800Y-79758200D01*
X121973090Y-79873337D01*
X121976635Y-79909492D01*
X122002158Y-79994029D01*
X122028712Y-80081983D01*
X122029253Y-80152977D01*
X121991325Y-80212994D01*
X121926970Y-80242977D01*
X121908090Y-80244400D01*
X121423346Y-80244400D01*
X121355225Y-80224398D01*
X121334251Y-80207495D01*
X121062405Y-79935649D01*
X121028379Y-79873337D01*
X121025500Y-79846554D01*
X121025500Y-77947154D01*
X121010452Y-77789434D01*
X120950908Y-77586466D01*
X120929631Y-77545154D01*
X120856804Y-77403751D01*
X120856802Y-77403748D01*
X120854058Y-77398420D01*
X120774028Y-77296537D01*
X120755132Y-77262933D01*
X120724840Y-77182129D01*
X120719657Y-77111322D01*
X120724840Y-77093671D01*
X120770971Y-76970618D01*
X120770973Y-76970612D01*
X120773745Y-76963216D01*
X120780500Y-76901034D01*
X120780500Y-76104766D01*
X120777161Y-76074028D01*
X120789689Y-76004146D01*
X120838010Y-75952130D01*
X120876227Y-75937174D01*
X120886993Y-75934885D01*
X120953288Y-75920794D01*
X120970985Y-75912915D01*
X121121722Y-75845803D01*
X121121724Y-75845802D01*
X121127752Y-75843118D01*
X121142272Y-75832569D01*
X121183157Y-75802864D01*
X121282253Y-75730866D01*
X121410040Y-75588944D01*
X121499292Y-75434356D01*
X121502223Y-75429279D01*
X121502224Y-75429278D01*
X121505527Y-75423556D01*
X121564542Y-75241928D01*
X121584504Y-75052000D01*
X121564542Y-74862072D01*
X121505527Y-74680444D01*
X121410040Y-74515056D01*
X121282253Y-74373134D01*
X121127752Y-74260882D01*
X121121724Y-74258198D01*
X121121722Y-74258197D01*
X120959319Y-74185891D01*
X120959318Y-74185891D01*
X120953288Y-74183206D01*
X120859888Y-74163353D01*
X120772944Y-74144872D01*
X120772939Y-74144872D01*
X120766487Y-74143500D01*
X120575513Y-74143500D01*
X120569061Y-74144872D01*
X120569056Y-74144872D01*
X120482112Y-74163353D01*
X120388712Y-74183206D01*
X120382682Y-74185891D01*
X120382681Y-74185891D01*
X120220278Y-74258197D01*
X120220276Y-74258198D01*
X120214248Y-74260882D01*
X120059747Y-74373134D01*
X119931960Y-74515056D01*
X119836473Y-74680444D01*
X119777458Y-74862072D01*
X119776768Y-74868633D01*
X119776768Y-74868635D01*
X119760093Y-75027292D01*
X119733080Y-75092949D01*
X119723879Y-75103217D01*
X119591730Y-75235365D01*
X119479742Y-75347353D01*
X119471463Y-75354887D01*
X119464982Y-75359000D01*
X119439158Y-75386500D01*
X119418357Y-75408651D01*
X119415602Y-75411493D01*
X119395865Y-75431230D01*
X119393385Y-75434427D01*
X119385680Y-75443449D01*
X119357351Y-75473616D01*
X119296138Y-75509582D01*
X119225198Y-75506743D01*
X119197885Y-75493603D01*
X119191439Y-75488018D01*
X119058490Y-75427302D01*
X119026538Y-75417920D01*
X118994692Y-75408569D01*
X118994688Y-75408568D01*
X118990369Y-75407300D01*
X118985920Y-75406660D01*
X118985914Y-75406659D01*
X118850147Y-75387139D01*
X118850142Y-75387139D01*
X118845700Y-75386500D01*
X113961798Y-75386500D01*
X113914195Y-75392485D01*
X113838594Y-75401989D01*
X113838589Y-75401990D01*
X113834691Y-75402480D01*
X113818334Y-75406659D01*
X113778075Y-75416944D01*
X113778070Y-75416946D01*
X113774256Y-75417920D01*
X113770587Y-75419365D01*
X113720428Y-75439120D01*
X113655067Y-75464862D01*
X113648309Y-75469926D01*
X113648305Y-75469928D01*
X113583602Y-75518410D01*
X113538101Y-75552503D01*
X113534933Y-75555674D01*
X113534927Y-75555679D01*
X113496789Y-75593852D01*
X113487921Y-75602728D01*
X113400384Y-75719774D01*
X113398230Y-75723723D01*
X111309415Y-79553217D01*
X111259235Y-79603442D01*
X111189868Y-79618565D01*
X111123337Y-79593784D01*
X111080764Y-79536968D01*
X111072800Y-79492882D01*
X111072800Y-76720166D01*
X111066045Y-76657984D01*
X111014915Y-76521595D01*
X110927561Y-76405039D01*
X110811005Y-76317685D01*
X110674616Y-76266555D01*
X110612434Y-76259800D01*
X109525566Y-76259800D01*
X109463384Y-76266555D01*
X109326995Y-76317685D01*
X109210439Y-76405039D01*
X109123085Y-76521595D01*
X109071955Y-76657984D01*
X109065200Y-76720166D01*
X109065200Y-79813634D01*
X109071955Y-79875816D01*
X109123085Y-80012205D01*
X109128471Y-80019391D01*
X109146958Y-80044059D01*
X109171805Y-80110566D01*
X109156751Y-80179948D01*
X109128643Y-80214848D01*
X109106770Y-80233801D01*
X109103830Y-80237194D01*
X109090285Y-80252826D01*
X109030559Y-80291210D01*
X108959563Y-80291210D01*
X108899836Y-80252827D01*
X108893159Y-80244424D01*
X105861739Y-76076222D01*
X105861738Y-76076221D01*
X105860024Y-76073864D01*
X105797230Y-76002484D01*
X105763450Y-75970596D01*
X105701547Y-75922166D01*
X105694424Y-75916593D01*
X105694423Y-75916592D01*
X105688576Y-75912018D01*
X105555627Y-75851302D01*
X105527755Y-75843118D01*
X105491829Y-75832569D01*
X105491825Y-75832568D01*
X105487506Y-75831300D01*
X105483057Y-75830660D01*
X105483051Y-75830659D01*
X105347284Y-75811139D01*
X105347279Y-75811139D01*
X105342837Y-75810500D01*
X102067190Y-75810500D01*
X102040615Y-75811924D01*
X102014001Y-75813350D01*
X102013991Y-75813351D01*
X102012308Y-75813441D01*
X101985525Y-75816320D01*
X101983868Y-75816588D01*
X101983857Y-75816590D01*
X101937360Y-75824125D01*
X101937355Y-75824126D01*
X101931248Y-75825116D01*
X101925451Y-75827278D01*
X101925448Y-75827279D01*
X101798521Y-75874622D01*
X101798519Y-75874623D01*
X101794307Y-75876194D01*
X101731995Y-75910220D01*
X101728395Y-75912915D01*
X101618598Y-75995109D01*
X101618594Y-75995113D01*
X101614996Y-75997806D01*
X100416806Y-77195996D01*
X100380083Y-77236877D01*
X100363180Y-77257851D01*
X100362190Y-77259224D01*
X100334638Y-77297430D01*
X100334635Y-77297435D01*
X100331018Y-77302451D01*
X100270302Y-77435400D01*
X100250300Y-77503521D01*
X100249660Y-77507970D01*
X100249659Y-77507976D01*
X100230139Y-77643743D01*
X100229500Y-77648190D01*
X100229500Y-92383810D01*
X100232441Y-92438692D01*
X100235320Y-92465475D01*
X100235588Y-92467132D01*
X100235590Y-92467143D01*
X100243125Y-92513640D01*
X100243126Y-92513645D01*
X100244116Y-92519752D01*
X100246278Y-92525549D01*
X100246279Y-92525552D01*
X100273168Y-92597642D01*
X100295194Y-92656693D01*
X100329220Y-92719005D01*
X100331915Y-92722605D01*
X100414109Y-92832402D01*
X100414113Y-92832406D01*
X100416806Y-92836004D01*
X101190996Y-93610194D01*
X101231877Y-93646917D01*
X101252851Y-93663820D01*
X101254224Y-93664810D01*
X101292430Y-93692362D01*
X101292435Y-93692365D01*
X101297451Y-93695982D01*
X101430400Y-93756698D01*
X101454154Y-93763673D01*
X101494198Y-93775431D01*
X101494202Y-93775432D01*
X101498521Y-93776700D01*
X101502970Y-93777340D01*
X101502976Y-93777341D01*
X101638743Y-93796861D01*
X101638748Y-93796861D01*
X101643190Y-93797500D01*
X107401000Y-93797500D01*
X107404346Y-93797140D01*
X107404351Y-93797140D01*
X107506785Y-93786128D01*
X107506792Y-93786127D01*
X107510149Y-93785766D01*
X107525623Y-93782400D01*
X107559210Y-93775094D01*
X107559215Y-93775093D01*
X107562491Y-93774380D01*
X107666657Y-93739710D01*
X107789612Y-93660692D01*
X107793532Y-93657296D01*
X107839875Y-93617139D01*
X107843268Y-93614199D01*
X107878813Y-93573178D01*
X107933081Y-93510550D01*
X107933083Y-93510547D01*
X107938982Y-93503739D01*
X107999698Y-93370790D01*
X108009644Y-93336916D01*
X108018431Y-93306992D01*
X108018432Y-93306988D01*
X108019700Y-93302669D01*
X108020861Y-93294599D01*
X108039861Y-93162447D01*
X108039861Y-93162442D01*
X108040500Y-93158000D01*
X108040500Y-90700500D01*
X108039211Y-90688506D01*
X108029128Y-90594715D01*
X108029127Y-90594708D01*
X108028766Y-90591351D01*
X108021524Y-90558057D01*
X108018094Y-90542290D01*
X108018093Y-90542285D01*
X108017380Y-90539009D01*
X107982710Y-90434843D01*
X107944907Y-90376020D01*
X107932926Y-90352134D01*
X107923768Y-90327705D01*
X107923767Y-90327704D01*
X107920615Y-90319295D01*
X107833261Y-90202739D01*
X107716705Y-90115385D01*
X107580316Y-90064255D01*
X107518134Y-90057500D01*
X103704704Y-90057500D01*
X103636583Y-90037498D01*
X103590090Y-89983842D01*
X103587078Y-89976666D01*
X103567762Y-89926362D01*
X103567761Y-89926360D01*
X103566146Y-89922154D01*
X103533584Y-89863863D01*
X103448386Y-89751188D01*
X103413405Y-89716207D01*
X103379379Y-89653895D01*
X103376500Y-89627112D01*
X103376500Y-87253097D01*
X103396502Y-87184976D01*
X103429263Y-87150568D01*
X108941494Y-83213261D01*
X109008551Y-83189943D01*
X109077571Y-83206581D01*
X109128595Y-83261842D01*
X112484604Y-90345173D01*
X112500422Y-90378560D01*
X112524708Y-90423821D01*
X112537706Y-90445381D01*
X112538576Y-90446673D01*
X112538588Y-90446692D01*
X112558672Y-90476521D01*
X112566392Y-90487987D01*
X112669740Y-90591336D01*
X112673342Y-90594033D01*
X112673345Y-90594035D01*
X112694807Y-90610101D01*
X112726576Y-90633883D01*
X112854855Y-90703928D01*
X112863659Y-90705843D01*
X112863661Y-90705844D01*
X112898251Y-90713369D01*
X112912283Y-90716421D01*
X112974596Y-90750446D01*
X113008621Y-90812758D01*
X113011500Y-90839541D01*
X113011500Y-91394385D01*
X113002111Y-91442109D01*
X112049410Y-93769884D01*
X110636476Y-97222165D01*
X110636472Y-97222175D01*
X110071000Y-98603818D01*
X110977556Y-98603818D01*
X110917921Y-98633116D01*
X110894232Y-98634935D01*
X109619192Y-98612257D01*
X108258858Y-98588061D01*
X108258856Y-98588061D01*
X107763135Y-98579244D01*
X107456024Y-98968471D01*
X107456021Y-98968474D01*
X103890797Y-103486973D01*
X103883369Y-103495559D01*
X103853898Y-103526673D01*
X103771129Y-103614055D01*
X103754082Y-103629074D01*
X103626997Y-103722113D01*
X103607530Y-103733826D01*
X103465809Y-103802528D01*
X103444555Y-103810555D01*
X103292795Y-103852692D01*
X103270446Y-103856772D01*
X103107896Y-103871487D01*
X103096536Y-103872000D01*
X88654468Y-103872000D01*
X88640899Y-103871267D01*
X88447106Y-103850275D01*
X88420598Y-103844464D01*
X88319528Y-103810555D01*
X88242280Y-103784638D01*
X88217633Y-103773287D01*
X88143417Y-103728850D01*
X88056258Y-103676663D01*
X88034612Y-103660296D01*
X87892694Y-103526673D01*
X87883317Y-103516838D01*
X86490583Y-101888583D01*
X86488368Y-101885993D01*
X86488367Y-101885992D01*
X86189000Y-101536000D01*
X78291187Y-101536000D01*
X78278837Y-101535393D01*
X78102260Y-101518001D01*
X78078043Y-101513185D01*
X77914190Y-101463482D01*
X77891371Y-101454029D01*
X77832583Y-101422607D01*
X77740369Y-101373317D01*
X77719842Y-101359601D01*
X77587479Y-101250974D01*
X77570026Y-101233521D01*
X77461399Y-101101158D01*
X77447681Y-101080628D01*
X77366971Y-100929629D01*
X77357518Y-100906809D01*
X77349058Y-100878919D01*
X77307815Y-100742957D01*
X77302998Y-100718737D01*
X77301433Y-100702842D01*
X77285607Y-100542163D01*
X77285000Y-100529813D01*
X77285000Y-92392925D01*
X80525645Y-92392925D01*
X80543570Y-92589888D01*
X80545308Y-92595794D01*
X80545309Y-92595798D01*
X80576249Y-92700924D01*
X80599410Y-92779619D01*
X80602263Y-92785077D01*
X80602265Y-92785081D01*
X80649720Y-92875853D01*
X80691040Y-92954890D01*
X80814968Y-93109025D01*
X80819692Y-93112989D01*
X80826933Y-93119065D01*
X80966474Y-93236154D01*
X80971872Y-93239121D01*
X80971877Y-93239125D01*
X81079361Y-93298214D01*
X81139787Y-93331433D01*
X81145654Y-93333294D01*
X81145656Y-93333295D01*
X81250240Y-93366471D01*
X81328306Y-93391235D01*
X81482227Y-93408500D01*
X81588769Y-93408500D01*
X81591825Y-93408200D01*
X81591832Y-93408200D01*
X81650340Y-93402463D01*
X81735833Y-93394080D01*
X81741734Y-93392298D01*
X81741736Y-93392298D01*
X81864530Y-93355224D01*
X81925169Y-93336916D01*
X82099796Y-93244066D01*
X82210836Y-93153504D01*
X82248287Y-93122960D01*
X82248290Y-93122957D01*
X82253062Y-93119065D01*
X82265344Y-93104219D01*
X82375201Y-92971425D01*
X82375203Y-92971421D01*
X82379130Y-92966675D01*
X82473198Y-92792701D01*
X82531682Y-92603768D01*
X82533786Y-92583749D01*
X82551711Y-92413204D01*
X82551711Y-92413202D01*
X82552355Y-92407075D01*
X82544847Y-92324576D01*
X82534989Y-92216251D01*
X82534988Y-92216248D01*
X82534430Y-92210112D01*
X82478590Y-92020381D01*
X82468919Y-92001881D01*
X82410851Y-91890809D01*
X82386960Y-91845110D01*
X82263032Y-91690975D01*
X82256727Y-91685684D01*
X82172329Y-91614866D01*
X82111526Y-91563846D01*
X82106128Y-91560879D01*
X82106123Y-91560875D01*
X81943608Y-91471533D01*
X81943609Y-91471533D01*
X81938213Y-91468567D01*
X81932346Y-91466706D01*
X81932344Y-91466705D01*
X81755564Y-91410627D01*
X81755563Y-91410627D01*
X81749694Y-91408765D01*
X81595773Y-91391500D01*
X81489231Y-91391500D01*
X81486175Y-91391800D01*
X81486168Y-91391800D01*
X81427660Y-91397537D01*
X81342167Y-91405920D01*
X81336266Y-91407702D01*
X81336264Y-91407702D01*
X81262947Y-91429838D01*
X81152831Y-91463084D01*
X80978204Y-91555934D01*
X80891938Y-91626291D01*
X80829713Y-91677040D01*
X80829710Y-91677043D01*
X80824938Y-91680935D01*
X80821011Y-91685682D01*
X80821009Y-91685684D01*
X80702799Y-91828575D01*
X80702797Y-91828579D01*
X80698870Y-91833325D01*
X80604802Y-92007299D01*
X80546318Y-92196232D01*
X80545674Y-92202357D01*
X80545674Y-92202358D01*
X80526318Y-92386526D01*
X80525645Y-92392925D01*
X77285000Y-92392925D01*
X77285000Y-88192000D01*
X73810167Y-91442643D01*
X64044362Y-100578375D01*
X64015614Y-100605268D01*
X64006323Y-100613152D01*
X63881911Y-100708774D01*
X63867619Y-100719759D01*
X63846967Y-100732664D01*
X63730513Y-100790610D01*
X63695833Y-100807866D01*
X63673085Y-100816556D01*
X63510319Y-100861278D01*
X63486324Y-100865431D01*
X63429898Y-100869647D01*
X63317982Y-100878008D01*
X63293644Y-100877467D01*
X63209835Y-100867447D01*
X63126030Y-100857426D01*
X63102243Y-100852212D01*
X62941617Y-100800303D01*
X62919277Y-100790610D01*
X62771641Y-100708774D01*
X62751582Y-100694965D01*
X62622441Y-100586252D01*
X62605415Y-100568843D01*
X62499600Y-100437322D01*
X62486239Y-100416961D01*
X62407701Y-100267540D01*
X62398507Y-100244990D01*
X62350179Y-100083251D01*
X62345495Y-100059354D01*
X62328590Y-99885243D01*
X62328000Y-99873067D01*
X62328000Y-92004401D01*
X62328607Y-91992051D01*
X62331484Y-91962845D01*
X62345999Y-91815473D01*
X62350815Y-91791256D01*
X62400518Y-91627403D01*
X62409971Y-91604584D01*
X62490680Y-91453588D01*
X62504403Y-91433050D01*
X62616971Y-91295886D01*
X62625275Y-91286725D01*
X76178864Y-77733136D01*
X76187775Y-77725038D01*
X76269946Y-77657247D01*
X76321073Y-77615067D01*
X76341001Y-77601603D01*
X76492769Y-77518968D01*
X76503602Y-77513724D01*
X77912038Y-76913263D01*
X79313924Y-76315594D01*
X79363338Y-76305500D01*
X83409576Y-76305500D01*
X83477697Y-76325502D01*
X83489502Y-76334095D01*
X83546689Y-76381027D01*
X83564142Y-76398480D01*
X83672769Y-76530843D01*
X83686485Y-76551370D01*
X83736863Y-76645620D01*
X83767197Y-76702371D01*
X83776650Y-76725190D01*
X83826353Y-76889043D01*
X83831169Y-76913260D01*
X83848561Y-77089838D01*
X83849168Y-77102188D01*
X83849168Y-89664001D01*
X84100188Y-89949375D01*
X84100189Y-89949376D01*
X84124194Y-89976666D01*
X85341000Y-91360000D01*
X92263000Y-91360000D01*
X92263000Y-82193873D01*
X92263796Y-82179733D01*
X92274534Y-82084654D01*
X92286590Y-81977896D01*
X92292897Y-81950331D01*
X92357768Y-81765398D01*
X92370064Y-81739932D01*
X92374354Y-81733124D01*
X92478352Y-81568084D01*
X92486562Y-81556547D01*
X92566148Y-81457065D01*
X98742346Y-73736818D01*
X98751756Y-73726318D01*
X98895006Y-73583455D01*
X98917048Y-73565919D01*
X99082430Y-73462225D01*
X99107816Y-73450024D01*
X99292101Y-73385659D01*
X99319565Y-73379402D01*
X99520601Y-73356790D01*
X99534684Y-73356000D01*
X113039000Y-73356000D01*
X114048839Y-70999709D01*
X114054200Y-70988709D01*
X114138704Y-70834776D01*
X114152491Y-70814589D01*
X114261183Y-70684590D01*
X114278601Y-70667452D01*
X114410363Y-70560877D01*
X114430765Y-70547425D01*
X114580611Y-70468307D01*
X114603233Y-70459044D01*
X114765533Y-70410350D01*
X114789519Y-70405629D01*
X114964301Y-70388594D01*
X114976524Y-70388000D01*
X116282311Y-70388000D01*
X116295270Y-70388668D01*
G37*
%TD.AperFunction*%
%TD*%
%TA.AperFunction,Conductor*%
%TO.N,Net-(C11-Pad1)*%
G36*
X105410958Y-76344002D02*
G01*
X105444738Y-76375890D01*
X108774901Y-80954864D01*
X108798791Y-81021721D01*
X108799000Y-81028974D01*
X108799000Y-82619159D01*
X108778998Y-82687280D01*
X108746237Y-82721688D01*
X102863000Y-86924000D01*
X102863000Y-89892000D01*
X103085287Y-90114287D01*
X103117849Y-90172578D01*
X103118255Y-90176316D01*
X103169385Y-90312705D01*
X103256739Y-90429261D01*
X103373295Y-90516615D01*
X103509684Y-90567745D01*
X103571866Y-90574500D01*
X107401000Y-90574500D01*
X107469121Y-90594502D01*
X107515614Y-90648158D01*
X107527000Y-90700500D01*
X107527000Y-93158000D01*
X107506998Y-93226121D01*
X107453342Y-93272614D01*
X107401000Y-93284000D01*
X101643190Y-93284000D01*
X101575069Y-93263998D01*
X101554095Y-93247095D01*
X100779905Y-92472905D01*
X100745879Y-92410593D01*
X100743000Y-92383810D01*
X100743000Y-77648190D01*
X100763002Y-77580069D01*
X100779905Y-77559095D01*
X101978095Y-76360905D01*
X102040407Y-76326879D01*
X102067190Y-76324000D01*
X105342837Y-76324000D01*
X105410958Y-76344002D01*
G37*
%TD.AperFunction*%
%TD*%
%TA.AperFunction,Conductor*%
%TO.N,BYP_out*%
G36*
X102717163Y-114578962D02*
G01*
X102893740Y-114596354D01*
X102917957Y-114601170D01*
X103081809Y-114650873D01*
X103104629Y-114660326D01*
X103255631Y-114741038D01*
X103276158Y-114754754D01*
X103408521Y-114863381D01*
X103425974Y-114880834D01*
X103534601Y-115013197D01*
X103548319Y-115033727D01*
X103629029Y-115184726D01*
X103638482Y-115207545D01*
X103688185Y-115371398D01*
X103693002Y-115395618D01*
X103710393Y-115572192D01*
X103711000Y-115584542D01*
X103711000Y-129589813D01*
X103710393Y-129602163D01*
X103706721Y-129639450D01*
X103695059Y-129757851D01*
X103668477Y-129823683D01*
X103610522Y-129864693D01*
X103539596Y-129867860D01*
X103527604Y-129864273D01*
X103512855Y-129859050D01*
X103512854Y-129859050D01*
X103507978Y-129857323D01*
X103502885Y-129856416D01*
X103502882Y-129856415D01*
X103406707Y-129839284D01*
X103281250Y-129816937D01*
X103194802Y-129815881D01*
X103056141Y-129814186D01*
X103056139Y-129814186D01*
X103050971Y-129814123D01*
X102823325Y-129848958D01*
X102604424Y-129920506D01*
X102400149Y-130026845D01*
X102215984Y-130165119D01*
X102056877Y-130331616D01*
X102053963Y-130335888D01*
X102053962Y-130335889D01*
X101982368Y-130440842D01*
X101927099Y-130521863D01*
X101924919Y-130526558D01*
X101922366Y-130531053D01*
X101920471Y-130529977D01*
X101879723Y-130576418D01*
X101812260Y-130596000D01*
X98194618Y-130596000D01*
X98126497Y-130575998D01*
X98116526Y-130568882D01*
X97994735Y-130472697D01*
X97994730Y-130472693D01*
X97990681Y-130469496D01*
X97986165Y-130467003D01*
X97986162Y-130467001D01*
X97793589Y-130360695D01*
X97793585Y-130360693D01*
X97789065Y-130358198D01*
X97784196Y-130356474D01*
X97784192Y-130356472D01*
X97576853Y-130283049D01*
X97576849Y-130283048D01*
X97571978Y-130281323D01*
X97566885Y-130280416D01*
X97566882Y-130280415D01*
X97470707Y-130263284D01*
X97345250Y-130240937D01*
X97258802Y-130239881D01*
X97120141Y-130238186D01*
X97120139Y-130238186D01*
X97114971Y-130238123D01*
X96887325Y-130272958D01*
X96668424Y-130344506D01*
X96663832Y-130346896D01*
X96663833Y-130346896D01*
X96483365Y-130440842D01*
X96464149Y-130450845D01*
X96460016Y-130453948D01*
X96460013Y-130453950D01*
X96412985Y-130489260D01*
X96346500Y-130514166D01*
X96337332Y-130514500D01*
X96262879Y-130514500D01*
X96194758Y-130494498D01*
X96148265Y-130440842D01*
X96139098Y-130405042D01*
X96138185Y-130405185D01*
X96137391Y-130400093D01*
X96137015Y-130394958D01*
X96121750Y-130331616D01*
X96099217Y-130238123D01*
X96085321Y-130180463D01*
X95995404Y-129978979D01*
X95992130Y-129974224D01*
X95873550Y-129802010D01*
X95873547Y-129802006D01*
X95870276Y-129797256D01*
X95714126Y-129641379D01*
X95709364Y-129638112D01*
X95709360Y-129638109D01*
X95536949Y-129519836D01*
X95536948Y-129519836D01*
X95532185Y-129516568D01*
X95410272Y-129462417D01*
X95335832Y-129429351D01*
X95335828Y-129429350D01*
X95330545Y-129427003D01*
X95311958Y-129422558D01*
X95120967Y-129376880D01*
X95120961Y-129376879D01*
X95115960Y-129375683D01*
X95110832Y-129375315D01*
X95110829Y-129375315D01*
X95018000Y-129368661D01*
X95017992Y-129368661D01*
X95015750Y-129368500D01*
X94322250Y-129368500D01*
X94319955Y-129368668D01*
X94319953Y-129368668D01*
X94225095Y-129375609D01*
X94225094Y-129375609D01*
X94219958Y-129375985D01*
X94214957Y-129377190D01*
X94214952Y-129377191D01*
X94072086Y-129411623D01*
X94005463Y-129427679D01*
X93803979Y-129517596D01*
X93799225Y-129520869D01*
X93799224Y-129520870D01*
X93627010Y-129639450D01*
X93627006Y-129639453D01*
X93622256Y-129642724D01*
X93466379Y-129798874D01*
X93463107Y-129803644D01*
X93463106Y-129803645D01*
X93378326Y-129927231D01*
X93323297Y-129972090D01*
X93252751Y-129980077D01*
X93189086Y-129948656D01*
X93153849Y-129892531D01*
X93126678Y-129802957D01*
X93121861Y-129778737D01*
X93108143Y-129639450D01*
X93104470Y-129602163D01*
X93103863Y-129589813D01*
X93103863Y-115584542D01*
X93104470Y-115572192D01*
X93121861Y-115395618D01*
X93126678Y-115371398D01*
X93176381Y-115207545D01*
X93185834Y-115184726D01*
X93266544Y-115033727D01*
X93280262Y-115013197D01*
X93388889Y-114880834D01*
X93406342Y-114863381D01*
X93538705Y-114754754D01*
X93559232Y-114741038D01*
X93710234Y-114660326D01*
X93733054Y-114650873D01*
X93896906Y-114601170D01*
X93921123Y-114596354D01*
X94097700Y-114578962D01*
X94110050Y-114578355D01*
X102704813Y-114578355D01*
X102717163Y-114578962D01*
G37*
%TD.AperFunction*%
%TD*%
%TA.AperFunction,Conductor*%
%TO.N,SEPIC_out*%
G36*
X115606163Y-61056607D02*
G01*
X115782740Y-61073999D01*
X115806957Y-61078815D01*
X115970809Y-61128518D01*
X115993629Y-61137971D01*
X116144629Y-61218682D01*
X116165158Y-61232399D01*
X116297521Y-61341026D01*
X116314974Y-61358479D01*
X116423601Y-61490842D01*
X116437317Y-61511369D01*
X116486607Y-61603583D01*
X116518029Y-61662371D01*
X116527482Y-61685190D01*
X116577184Y-61849038D01*
X116582002Y-61873263D01*
X116599393Y-62049837D01*
X116600000Y-62062187D01*
X116600000Y-68508506D01*
X116599402Y-68520772D01*
X116582247Y-68696160D01*
X116577495Y-68720220D01*
X116528462Y-68883048D01*
X116519139Y-68905728D01*
X116439491Y-69055958D01*
X116425946Y-69076410D01*
X116318692Y-69208368D01*
X116301439Y-69225808D01*
X116170655Y-69334477D01*
X116150352Y-69348242D01*
X116000989Y-69429512D01*
X115978402Y-69439083D01*
X115891175Y-69466383D01*
X115816125Y-69489871D01*
X115792117Y-69494884D01*
X115752550Y-69499186D01*
X115616925Y-69513933D01*
X115604668Y-69514664D01*
X114972863Y-69521498D01*
X114770470Y-69523687D01*
X113632000Y-69536000D01*
X113427099Y-70253154D01*
X113426175Y-70256389D01*
X113426174Y-70256391D01*
X112993089Y-71772190D01*
X112988666Y-71785013D01*
X112915406Y-71965279D01*
X112902568Y-71989134D01*
X112849451Y-72066538D01*
X112796332Y-72143945D01*
X112778698Y-72164498D01*
X112641826Y-72293023D01*
X112620198Y-72309337D01*
X112459020Y-72405632D01*
X112434406Y-72416945D01*
X112256374Y-72476561D01*
X112229910Y-72482352D01*
X112036450Y-72503270D01*
X112022905Y-72504000D01*
X98368000Y-72504000D01*
X98067757Y-72892550D01*
X98067755Y-72892552D01*
X93590990Y-78686013D01*
X91370835Y-81559154D01*
X91370831Y-81559160D01*
X91160000Y-81832000D01*
X91160000Y-86337813D01*
X91159393Y-86350163D01*
X91142002Y-86526737D01*
X91137185Y-86550958D01*
X91087482Y-86714810D01*
X91078029Y-86737630D01*
X90997319Y-86888628D01*
X90983601Y-86909158D01*
X90874974Y-87041521D01*
X90857521Y-87058974D01*
X90725158Y-87167601D01*
X90704631Y-87181317D01*
X90704624Y-87181321D01*
X90553630Y-87262029D01*
X90530811Y-87271482D01*
X90366958Y-87321185D01*
X90342740Y-87326001D01*
X90166163Y-87343393D01*
X90153813Y-87344000D01*
X85538865Y-87344001D01*
X85526514Y-87343394D01*
X85349937Y-87326002D01*
X85325712Y-87321183D01*
X85161870Y-87271482D01*
X85139051Y-87262030D01*
X84988053Y-87181321D01*
X84967520Y-87167602D01*
X84835157Y-87058975D01*
X84817704Y-87041522D01*
X84709077Y-86909159D01*
X84695359Y-86888629D01*
X84695359Y-86888628D01*
X84614649Y-86737630D01*
X84605196Y-86714810D01*
X84555493Y-86550958D01*
X84550676Y-86526738D01*
X84533285Y-86350164D01*
X84532678Y-86337814D01*
X84532678Y-82863092D01*
X84533414Y-82849495D01*
X84554493Y-82655305D01*
X84560328Y-82628744D01*
X84620397Y-82450100D01*
X84631795Y-82425410D01*
X84728795Y-82263817D01*
X84745225Y-82242147D01*
X84874644Y-82105125D01*
X84895342Y-82087486D01*
X84957506Y-82045169D01*
X85056818Y-81977564D01*
X85068457Y-81970530D01*
X85328454Y-81832000D01*
X85656233Y-81657355D01*
X85693359Y-81644553D01*
X85698371Y-81644115D01*
X85703676Y-81642694D01*
X85703679Y-81642693D01*
X85905765Y-81588543D01*
X85905764Y-81588543D01*
X85911076Y-81587120D01*
X86110654Y-81494056D01*
X86291038Y-81367749D01*
X86381850Y-81276937D01*
X86411696Y-81254832D01*
X86597479Y-81155844D01*
X86920000Y-80984000D01*
X87768000Y-78864000D01*
X88172472Y-66729825D01*
X88173606Y-66716647D01*
X88199785Y-66528659D01*
X88206152Y-66503022D01*
X88268687Y-66330882D01*
X88280260Y-66307137D01*
X88377316Y-66151831D01*
X88393591Y-66131016D01*
X88520900Y-65999368D01*
X88541159Y-65982404D01*
X88698654Y-65876482D01*
X88710004Y-65869686D01*
X90859626Y-64731328D01*
X90859627Y-64731327D01*
X91394648Y-64448001D01*
X91394648Y-63323441D01*
X91395726Y-63306995D01*
X91404747Y-63238473D01*
X91405479Y-63232914D01*
X91394897Y-63008512D01*
X91395106Y-63008502D01*
X91394648Y-63001781D01*
X91394648Y-62062188D01*
X91395255Y-62049838D01*
X91412646Y-61873264D01*
X91417463Y-61849044D01*
X91467166Y-61685191D01*
X91476619Y-61662372D01*
X91557329Y-61511373D01*
X91571047Y-61490843D01*
X91679674Y-61358480D01*
X91697127Y-61341027D01*
X91829490Y-61232400D01*
X91850017Y-61218684D01*
X92001019Y-61137972D01*
X92023839Y-61128519D01*
X92187691Y-61078816D01*
X92211908Y-61074000D01*
X92388485Y-61056608D01*
X92400835Y-61056001D01*
X103880000Y-61056000D01*
X115593813Y-61056000D01*
X115606163Y-61056607D01*
G37*
%TD.AperFunction*%
%TD*%
M02*
